<?xml version="1.0" standalone="no"?>
<!DOCTYPE svg PUBLIC "-//W3C//DTD SVG 20010904//EN"
 "http://www.w3.org/TR/2001/REC-SVG-20010904/DTD/svg10.dtd">
<svg version="1.0" xmlns="http://www.w3.org/2000/svg"
 width="1845.815180pt" height="674.066224pt" viewBox="0 0 1845.815180 674.066224"
 preserveAspectRatio="xMidYMid meet">
<metadata>
Created by potrace 1.16, written by Peter Selinger 2001-2019
</metadata>
<g transform="translate(-127.181881,703.148362) scale(0.100000,-0.100000)"
fill="#000000" stroke="none">
<g>
<path d="M1275 7018 c-3 -7 -4 -1520 -3 -3363 l3 -3350 90 -6 c50 -4 2154 -7
4677 -8 4150 -1 4588 0 4602 15 14 14 16 338 16 3359 0 3295 0 3344 -19 3355
-31 16 -9360 14 -9366 -2z m9319 -47 c6 -10 9 -6612 3 -6617 -5 -5 -9239 -5
-9244 -1 -6 6 -3 6608 3 6618 7 12 9231 12 9238 0z"/>
<g>
<path d="M5873 6814 c-4 -11 1 -22 13 -31 18 -13 18 -15 2 -24 -24 -13 -23
-52 2 -74 16 -15 20 -31 20 -85 0 -48 4 -71 15 -80 14 -12 14 -15 0 -30 -22
-24 -22 -212 0 -230 8 -7 15 -21 15 -31 0 -11 9 -28 21 -40 16 -16 19 -28 14
-62 -7 -49 1 -64 35 -68 17 -3 26 -12 30 -29 3 -14 22 -44 43 -67 21 -22 44
-49 51 -59 23 -30 46 -11 46 40 0 38 -5 48 -35 75 -19 17 -35 40 -35 51 0 11
-7 23 -15 25 -52 16 -49 14 -31 33 20 23 20 41 -1 64 -15 17 -15 19 1 37 16
18 16 20 -4 39 -12 11 -35 22 -51 26 -42 8 -39 44 6 82 20 16 35 38 35 50 0
12 7 27 15 34 19 16 20 84 0 100 -8 6 -23 9 -35 5 -17 -5 -20 -15 -20 -63 0
-47 -5 -61 -24 -79 -13 -13 -27 -23 -30 -23 -13 0 -5 48 9 60 17 14 21 85 5
95 -17 10 -11 35 8 35 21 0 42 18 42 37 0 8 -16 28 -36 45 -35 31 -36 34 -32
86 4 43 2 55 -13 63 -27 14 -59 11 -66 -7z"/>
</g>
<g>
<path d="M5368 6763 c-13 -3 -18 -15 -18 -44 0 -36 2 -39 29 -39 31 0 61 22
61 45 0 17 -28 45 -43 44 -7 -1 -20 -3 -29 -6z"/>
</g>
<g>
<path d="M7770 6675 c0 -20 5 -25 25 -25 20 0 25 5 25 25 0 20 -5 25 -25 25
-20 0 -25 -5 -25 -25z"/>
</g>
<g>
<path d="M7024 6656 c-18 -14 -18 -16 19 -52 20 -20 37 -45 37 -54 0 -10 7
-23 15 -30 8 -7 15 -22 15 -33 0 -22 43 -67 65 -67 25 0 29 23 7 38 -16 11
-22 25 -22 52 0 21 -7 43 -15 50 -8 7 -15 21 -15 32 0 22 -52 78 -72 78 -8 0
-23 -6 -34 -14z"/>
</g>
<g>
<path d="M5450 6597 c0 -45 5 -68 15 -77 8 -7 15 -22 15 -33 0 -25 78 -99 100
-95 24 5 25 55 1 68 -12 6 -21 21 -21 33 0 13 -13 36 -29 52 -22 20 -31 39
-33 69 -2 34 -7 42 -25 44 -22 3 -23 0 -23 -61z"/>
</g>
<g>
<path d="M2548 6624 c-15 -16 -15 -19 12 -45 19 -20 39 -29 60 -29 43 0 48 23
12 60 -34 34 -60 38 -84 14z"/>
</g>
<g>
<path d="M3982 6628 c-20 -20 -15 -86 8 -105 11 -10 20 -26 20 -36 0 -10 13
-32 29 -47 27 -28 29 -28 45 -11 22 24 20 48 -4 63 -11 7 -20 22 -20 33 0 12
-5 26 -12 33 -7 7 -17 26 -22 44 -12 36 -26 44 -44 26z"/>
</g>
<g>
<path d="M2614 6486 c-4 -9 0 -23 7 -32 7 -9 14 -23 15 -31 2 -8 10 -23 18
-32 9 -10 16 -32 16 -50 0 -22 9 -41 29 -61 15 -16 31 -43 34 -59 6 -28 10
-31 42 -31 50 0 57 25 16 57 -19 15 -31 33 -31 49 0 13 -9 29 -20 36 -11 7
-20 23 -20 35 0 12 -6 26 -14 30 -8 5 -16 27 -18 53 -3 43 -5 45 -36 48 -22 2
-34 -2 -38 -12z"/>
</g>
<g>
<path d="M4074 6385 c-8 -20 4 -35 27 -35 14 0 19 7 19 25 0 18 -5 25 -20 25
-11 0 -23 -7 -26 -15z"/>
</g>
<g>
<path d="M7182 6388 c-25 -25 -7 -68 30 -68 18 0 46 -49 58 -100 3 -16 13 -26
28 -28 20 -3 22 1 22 37 0 23 -4 41 -10 41 -5 0 -10 9 -10 20 0 11 -9 29 -19
39 -11 11 -21 30 -23 43 -2 17 -10 24 -33 26 -17 2 -36 -3 -43 -10z"/>
</g>
<g>
<path d="M4114 6327 c-3 -9 -4 -28 -2 -44 2 -20 8 -28 23 -28 17 0 20 7 20 40
0 30 -4 41 -18 43 -9 2 -20 -3 -23 -11z"/>
</g>
<g>
<path d="M8517 6193 c-14 -13 -6 -50 13 -68 15 -14 20 -31 20 -70 0 -43 4 -55
29 -79 l29 -28 15 22 c16 24 12 59 -9 67 -10 3 -14 23 -14 62 0 49 -4 61 -25
79 -25 22 -46 28 -58 15z"/>
</g>
<g>
<path d="M2742 6158 c-19 -19 -15 -59 7 -65 11 -3 21 -14 24 -25 4 -12 12 -18
24 -16 23 4 29 36 10 51 -8 7 -17 24 -21 40 -7 29 -24 35 -44 15z"/>
</g>
<g>
<path d="M6456 6024 c-15 -38 -5 -73 29 -108 23 -24 35 -46 35 -64 0 -16 7
-37 15 -48 8 -10 15 -29 15 -41 0 -12 9 -27 20 -33 11 -6 20 -21 20 -34 0 -13
7 -29 15 -36 9 -7 15 -29 15 -52 0 -42 20 -59 45 -38 23 19 20 87 -5 102 -11
7 -20 23 -20 36 0 12 -7 25 -15 28 -8 4 -15 16 -15 29 0 12 -7 28 -15 35 -9 7
-15 29 -15 51 0 28 -5 41 -20 49 -14 8 -20 21 -20 46 0 62 -66 124 -84 78z"/>
</g>
<g>
<path d="M3417 5952 c-34 -36 -34 -43 3 -70 24 -18 30 -30 30 -61 0 -46 24
-71 60 -62 29 8 39 38 16 47 -9 3 -16 17 -16 31 0 14 -6 39 -14 56 -7 18 -18
44 -24 60 -14 34 -22 34 -55 -1z"/>
</g>
<g>
<path d="M4957 5933 c-14 -13 -6 -50 13 -68 11 -10 20 -28 20 -39 0 -12 13
-33 29 -49 27 -26 28 -26 44 -9 16 18 16 20 -3 37 -13 11 -20 31 -20 53 0 49
-58 101 -83 75z"/>
</g>
<g>
<path d="M8617 5934 c-15 -16 -7 -63 13 -74 13 -7 20 -21 20 -41 0 -26 3 -30
23 -27 18 2 23 10 25 41 3 32 0 39 -17 44 -12 3 -21 15 -23 31 -3 26 -26 40
-41 26z"/>
</g>
<g>
<path d="M7943 5813 c-8 -2 -13 -22 -13 -44 0 -38 1 -39 35 -39 28 0 38 5 47
25 18 41 -24 77 -69 58z"/>
</g>
<g>
<path d="M8680 5765 c-16 -19 -4 -35 26 -35 25 0 28 7 18 34 -8 20 -28 21 -44
1z"/>
</g>
<g>
<path d="M3494 5725 c-8 -21 4 -35 31 -35 18 0 24 -6 27 -27 2 -20 9 -28 23
-28 30 0 33 51 4 81 -25 27 -76 33 -85 9z"/>
</g>
<g>
<path d="M5067 5706 c-21 -16 -22 -32 -1 -40 27 -10 34 -7 34 18 0 31 -10 38
-33 22z"/>
</g>
<g>
<path d="M8722 5711 c-21 -13 -11 -56 13 -56 15 0 20 7 20 29 0 31 -12 41 -33
27z"/>
</g>
<g>
<path d="M7997 5704 c-15 -16 -7 -63 13 -74 17 -9 20 -21 20 -75 0 -54 -3 -66
-20 -75 -11 -6 -20 -17 -20 -25 0 -8 9 -19 20 -25 11 -6 20 -19 20 -30 0 -24
34 -43 60 -35 24 8 26 28 5 45 -19 16 -19 44 0 60 14 12 14 15 0 36 -8 13 -15
45 -15 73 0 39 -4 53 -19 61 -11 5 -21 22 -23 37 -3 27 -26 41 -41 27z"/>
</g>
<g>
<path d="M3578 5590 c-33 -34 -35 -46 -8 -60 13 -7 20 -21 20 -40 0 -18 5 -30
13 -30 35 0 50 57 22 80 -14 12 -14 15 1 31 14 15 14 21 4 34 -17 20 -20 19
-52 -15z"/>
</g>
<g>
<path d="M5061 5606 c-7 -8 -11 -27 -9 -43 3 -25 7 -28 43 -28 36 0 40 3 43
28 4 34 -13 57 -43 57 -12 0 -28 -6 -34 -14z"/>
</g>
<g>
<path d="M6653 5524 c-3 -8 -1 -20 5 -26 16 -16 42 -2 42 22 0 24 -38 28 -47
4z"/>
</g>
<g>
<path d="M5877 5514 c-4 -4 -7 -38 -7 -76 0 -66 1 -68 25 -68 26 0 26 1 23 72
-2 56 -7 73 -18 76 -9 1 -19 0 -23 -4z"/>
</g>
<g>
<path d="M5090 5491 c0 -27 13 -33 35 -17 21 15 12 36 -16 36 -12 0 -19 -7
-19 -19z"/>
</g>
<g>
<path d="M6657 5474 c-14 -15 -7 -72 10 -78 24 -9 35 7 31 45 -3 32 -24 49
-41 33z"/>
</g>
<g>
<path d="M3621 5437 c-8 -11 -6 -18 9 -32 20 -18 21 -18 34 1 24 32 -17 62
-43 31z"/>
</g>
<g>
<path d="M2906 5401 c-17 -19 -17 -20 3 -31 12 -6 21 -21 21 -35 0 -13 5 -27
10 -30 6 -4 17 -22 25 -41 10 -25 20 -35 32 -32 15 3 18 14 18 73 0 67 -1 70
-25 73 -14 2 -34 12 -46 23 -20 19 -21 19 -38 0z"/>
</g>
<g>
<path d="M5097 5413 c-11 -10 -8 -43 3 -43 6 0 10 -11 10 -23 0 -13 8 -31 18
-41 18 -15 20 -15 35 2 22 25 22 75 -1 95 -19 17 -53 22 -65 10z"/>
</g>
<g>
<path d="M4370 5355 c0 -22 4 -25 39 -25 26 0 41 5 45 16 10 25 -2 34 -45 34
-35 0 -39 -3 -39 -25z"/>
</g>
<g>
<path d="M6692 5338 c2 -35 7 -43 23 -43 17 0 20 7 20 40 0 34 -3 40 -23 43
-22 3 -23 0 -20 -40z"/>
</g>
<g>
<path d="M5904 5325 c-9 -36 2 -57 28 -53 26 3 36 41 18 64 -19 22 -39 17 -46
-11z"/>
</g>
<g>
<path d="M7537 5313 c-4 -3 -7 -15 -7 -25 0 -13 7 -18 25 -18 20 0 25 5 25 25
0 18 -5 25 -18 25 -10 0 -22 -3 -25 -7z"/>
</g>
<g>
<path d="M4406 5271 c-3 -4 1 -17 9 -27 8 -10 15 -27 15 -37 0 -26 55 -78 74
-71 23 9 20 61 -4 76 -12 8 -20 24 -20 40 0 25 -4 28 -34 28 -19 0 -37 -4 -40
-9z"/>
</g>
<g>
<path d="M5937 5213 c-14 -13 -7 -74 8 -79 21 -8 45 14 45 40 0 34 -34 59 -53
39z"/>
</g>
<g>
<path d="M2996 5171 c-9 -13 4 -41 18 -41 16 0 36 21 36 37 0 15 -46 18 -54 4z"/>
</g>
<g>
<path d="M7570 5132 c0 -41 5 -53 30 -77 29 -28 31 -28 48 -11 16 17 16 19 -5
33 -18 12 -23 25 -23 59 0 40 -2 44 -25 44 -23 0 -25 -3 -25 -48z"/>
</g>
<g>
<path d="M3034 5107 c-3 -9 -4 -28 -2 -44 2 -20 8 -28 23 -28 17 0 20 7 20 40
0 30 -4 41 -18 43 -9 2 -20 -3 -23 -11z"/>
</g>
<g>
<path d="M4507 5114 c-4 -4 -7 -16 -7 -26 0 -14 6 -19 23 -16 14 2 22 10 22
23 0 20 -25 32 -38 19z"/>
</g>
<g>
<path d="M5977 5114 c-4 -4 -7 -16 -7 -26 0 -13 7 -18 26 -18 21 0 25 4 22 22
-3 23 -27 35 -41 22z"/>
</g>
<g>
<path d="M4542 5051 c-8 -5 -12 -22 -10 -42 2 -27 8 -35 26 -37 22 -3 23 0 20
39 -3 44 -13 55 -36 40z"/>
</g>
<g>
<path d="M5998 4995 c-10 -21 -8 -29 9 -48 12 -12 23 -33 25 -47 2 -17 10 -26
26 -28 20 -3 22 1 22 37 0 22 -4 42 -9 45 -4 3 -11 19 -14 36 -8 38 -42 41
-59 5z"/>
</g>
<g>
<path d="M3066 4974 c-9 -23 -7 -77 3 -92 5 -8 17 -12 27 -10 38 7 28 118 -11
118 -7 0 -16 -7 -19 -16z"/>
</g>
<g>
<path d="M7634 4966 c-3 -8 -4 -31 -2 -52 2 -32 7 -40 26 -42 21 -3 22 0 22
52 0 50 -2 56 -20 56 -11 0 -23 -6 -26 -14z"/>
</g>
<g>
<path d="M4576 4951 c-3 -4 -6 -26 -6 -47 -1 -22 -2 -51 -2 -67 -1 -35 8 -44
30 -31 23 15 27 52 8 73 -15 16 -15 19 -1 31 19 16 19 36 -1 44 -20 8 -22 8
-28 -3z"/>
</g>
<g>
<path d="M7634 4805 c-10 -24 9 -37 47 -33 26 2 34 8 34 23 0 16 -8 21 -38 23
-27 2 -39 -1 -43 -13z"/>
</g>
<g>
<path d="M3686 4449 l-13 -31 -196 1 c-167 2 -202 0 -233 -15 -27 -13 -38 -14
-43 -5 -5 8 -76 12 -258 12 l-250 0 -33 -30 c-28 -25 -43 -31 -89 -33 -50 -3
-56 -5 -59 -27 -5 -30 -74 -101 -99 -101 -40 0 -55 -40 -29 -75 13 -18 19 -14
100 68 79 79 90 87 125 87 25 0 41 5 45 15 4 11 20 15 54 15 32 0 54 5 62 15
16 19 34 19 49 1 7 -8 20 -12 30 -9 13 3 21 -2 26 -16 4 -13 15 -21 29 -21 13
0 29 -7 36 -15 7 -8 21 -15 31 -15 11 0 41 -22 67 -50 27 -27 56 -50 64 -50 9
0 41 -26 72 -57 42 -44 56 -65 56 -88 0 -23 11 -42 45 -75 25 -24 45 -53 45
-65 0 -12 22 -42 50 -69 48 -46 50 -51 50 -103 0 -38 4 -55 15 -59 8 -4 15
-17 15 -30 0 -13 9 -28 20 -34 11 -6 20 -21 20 -34 0 -13 7 -29 15 -36 8 -7
15 -23 15 -37 0 -13 7 -26 15 -29 8 -4 15 -15 15 -26 0 -12 16 -35 35 -54 29
-27 35 -40 35 -72 0 -26 5 -42 15 -46 8 -3 15 -17 15 -31 0 -14 7 -28 15 -31
11 -5 15 -23 15 -77 0 -63 3 -74 27 -99 16 -17 37 -28 54 -28 33 0 46 27 22
45 -13 10 -18 30 -20 81 -2 71 -6 80 -37 86 -12 2 -23 15 -28 36 -5 17 -13 32
-19 32 -6 0 -9 10 -7 23 3 19 10 22 49 25 32 2 50 -2 59 -13 10 -12 39 -15
162 -15 149 0 149 0 146 23 -3 21 -7 22 -130 25 -96 2 -129 6 -138 17 -9 11
-34 15 -94 15 -73 0 -85 3 -104 23 -15 15 -22 36 -22 60 0 24 -5 40 -15 43 -8
4 -15 16 -15 28 0 11 -14 34 -30 50 -21 20 -30 39 -30 61 0 19 -8 39 -20 50
-18 16 -19 20 -5 27 25 14 18 33 -30 77 -38 35 -45 47 -45 79 0 26 -6 41 -20
50 -11 7 -20 20 -20 29 0 10 -20 38 -45 63 -25 25 -47 57 -50 70 -6 30 -83
110 -107 110 -24 0 -56 33 -60 62 -2 16 -11 24 -28 26 -14 2 -39 17 -56 34
-17 16 -40 31 -50 32 -10 2 -20 8 -22 14 -3 9 25 12 97 12 89 0 103 -2 118
-20 22 -26 117 -29 131 -4 7 13 36 15 208 14 189 -1 201 1 219 20 23 25 30 25
62 0 24 -18 41 -20 203 -20 164 0 178 1 195 20 16 17 31 20 115 20 75 0 100
-4 110 -15 7 -8 23 -15 36 -15 33 0 30 -18 -3 -26 -15 -4 -34 -13 -41 -21 -7
-7 -23 -13 -35 -13 -29 0 -71 -61 -62 -89 10 -33 30 -25 75 29 41 49 43 50 62
33 19 -17 20 -17 33 0 6 9 21 17 32 17 11 0 28 9 39 21 12 14 26 19 43 16 16
-3 35 2 50 14 28 23 74 25 91 4 7 -8 22 -15 34 -15 13 0 45 -26 85 -70 36 -39
72 -70 81 -70 9 0 33 -16 53 -36 29 -29 41 -35 62 -30 14 4 25 12 25 19 0 21
-145 157 -167 157 -11 0 -30 11 -42 24 l-23 24 21 21 c18 18 33 21 105 21 62
0 87 -4 96 -15 10 -12 44 -15 187 -15 145 0 175 2 179 15 9 21 230 22 253 1
12 -11 52 -15 167 -17 83 -1 157 1 163 5 18 12 13 54 -8 66 -11 5 -46 10 -79
10 -46 0 -63 -4 -77 -20 -18 -20 -18 -20 -33 1 -13 18 -22 21 -62 16 -38 -5
-50 -2 -63 14 -15 17 -31 19 -161 19 -131 0 -146 -2 -170 -21 -25 -20 -37 -21
-121 -17 -83 5 -97 3 -111 -13 -16 -18 -17 -17 -37 9 -32 41 -34 42 -152 42
-60 0 -115 -4 -121 -8 -7 -4 -14 -18 -15 -32 l-4 -25 -170 0 -170 0 -4 25 c-4
35 -16 40 -108 40 -62 0 -85 -4 -98 -16 -15 -15 -17 -15 -29 2 -12 15 -16 16
-29 5 -9 -7 -17 -21 -19 -32 -3 -19 -12 -20 -168 -20 l-165 -1 -3 27 c-4 34
-30 44 -49 19 -13 -18 -15 -18 -24 -1 -17 29 -58 22 -73 -14z"/>
</g>
<g>
<path d="M6074 4466 c-3 -8 -4 -25 -2 -38 3 -23 6 -23 130 -26 113 -2 128 -1
136 15 6 10 6 28 1 41 -8 21 -13 22 -134 22 -100 0 -127 -3 -131 -14z"/>
</g>
<g>
<path d="M6594 4469 c-9 -16 46 -69 72 -69 13 0 27 8 33 17 8 15 14 13 50 -20
41 -37 49 -38 82 -10 14 11 18 11 29 -2 15 -18 30 -11 30 15 0 10 10 26 21 34
13 9 19 21 16 30 -5 14 -30 16 -166 16 -104 0 -162 -4 -167 -11z"/>
</g>
<g>
<path d="M7219 4465 c-11 -11 -47 -16 -132 -20 -106 -5 -119 -8 -143 -30 -27
-25 -25 -45 5 -45 10 0 26 -9 36 -20 13 -14 29 -20 51 -18 20 1 41 -5 52 -15
10 -9 26 -17 35 -17 23 0 60 -38 53 -55 -6 -17 19 -45 39 -45 8 0 39 -25 69
-56 43 -43 56 -62 56 -86 0 -36 72 -118 105 -118 44 0 62 55 25 78 -11 6 -17
18 -14 26 6 16 -21 46 -42 46 -23 0 -152 133 -156 161 -2 19 -10 25 -35 27
-21 2 -33 9 -33 18 0 8 -6 14 -12 14 -7 0 -21 12 -31 26 -18 24 -18 26 -1 45
13 14 30 19 69 19 35 0 57 5 65 15 10 12 36 15 114 15 l102 0 34 -35 c39 -40
52 -43 80 -15 24 24 43 25 60 5 16 -20 39 -19 47 1 4 12 14 14 39 9 26 -4 37
-1 51 15 16 18 29 20 162 20 122 0 147 -3 163 -17 17 -15 40 -17 186 -14 131
2 169 6 175 17 6 11 35 14 124 14 106 0 119 -2 140 -22 20 -19 21 -22 6 -33
-22 -16 -10 -45 19 -45 14 0 35 15 53 35 l30 35 108 0 c93 0 114 -3 150 -22
23 -13 46 -29 50 -35 4 -7 19 -13 31 -13 13 0 26 -7 30 -15 3 -8 16 -15 28
-15 32 -1 68 -34 68 -62 0 -15 11 -32 29 -46 32 -23 66 -20 57 5 -3 8 -6 17
-6 19 0 2 -7 4 -15 4 -9 0 -15 9 -15 24 0 25 -78 106 -103 106 -7 0 -27 14
-44 30 -17 17 -42 33 -54 35 -12 3 -37 18 -54 35 -28 27 -37 30 -97 30 -49 0
-71 -4 -84 -17 -15 -16 -17 -16 -30 2 -13 18 -14 18 -36 -2 -24 -21 -47 -20
-61 3 -12 21 -439 20 -457 -1 -9 -11 -34 -15 -95 -15 -61 0 -86 4 -95 15 -10
12 -44 15 -185 15 -141 0 -175 -3 -185 -15 -10 -12 -37 -15 -125 -15 -88 0
-115 3 -125 15 -18 22 -309 22 -331 0z m-104 -74 c3 -5 1 -12 -5 -16 -14 -9
-52 4 -45 16 8 12 42 12 50 0z"/>
</g>
<g>
<path d="M6372 4438 c-16 -16 -15 -53 1 -67 11 -8 18 -6 32 9 23 25 37 25 60
0 24 -27 38 -25 76 9 28 26 30 32 19 46 -12 14 -15 14 -30 0 -15 -14 -18 -14
-30 0 -15 18 -110 21 -128 3z"/>
</g>
<g>
<path d="M6630 4300 c-8 -15 -21 -20 -50 -20 -43 0 -60 -18 -60 -64 0 -19 -5
-26 -19 -26 -48 0 -68 -63 -27 -81 29 -14 66 3 66 30 0 10 30 48 66 84 45 44
65 71 61 81 -9 22 -24 20 -37 -4z"/>
</g>
<g>
<path d="M8617 4274 c-4 -4 -7 -19 -7 -33 -1 -24 -2 -24 -14 -8 -7 9 -17 17
-22 17 -14 0 -64 -60 -64 -77 0 -8 -7 -21 -15 -30 -14 -13 -13 -18 7 -43 31
-39 46 -37 64 6 8 20 33 52 55 73 33 30 40 43 37 67 -3 27 -26 43 -41 28z"/>
</g>
<g>
<path d="M9393 4153 c-40 -8 -32 -30 31 -91 35 -33 66 -68 70 -77 9 -23 40
-14 44 13 2 12 -1 22 -7 22 -6 0 -11 9 -11 20 0 17 -92 123 -102 119 -2 -1
-13 -4 -25 -6z"/>
</g>
<g>
<path d="M2337 4092 c-22 -23 -27 -37 -27 -80 0 -38 -4 -54 -15 -58 -10 -4
-15 -20 -15 -46 0 -32 -6 -45 -36 -74 -35 -32 -36 -35 -21 -52 16 -17 15 -20
-13 -47 -26 -25 -30 -36 -30 -81 0 -34 -5 -56 -15 -64 -12 -10 -15 -42 -15
-166 0 -131 -2 -154 -16 -162 -24 -13 -30 -144 -9 -162 13 -11 21 -8 45 15
l30 29 0 183 c0 154 2 185 15 189 12 5 15 25 15 96 0 89 0 89 35 122 19 19 35
42 35 54 0 11 7 22 15 26 11 4 15 21 15 59 0 36 5 59 15 67 9 7 15 29 15 51 0
28 5 41 20 49 20 11 25 35 14 64 -9 23 -27 20 -57 -12z"/>
</g>
<g>
<path d="M5063 4109 c-14 -14 -6 -39 13 -39 8 0 14 -10 14 -23 0 -16 26 -49
80 -104 51 -51 80 -88 80 -102 0 -12 7 -24 15 -27 8 -4 15 -16 15 -29 0 -12 7
-28 14 -35 8 -6 16 -30 18 -53 4 -51 21 -57 63 -22 l30 24 -33 34 c-17 18 -32
43 -32 55 0 12 -9 26 -20 32 -11 6 -20 21 -20 34 0 13 -7 29 -15 36 -8 7 -15
19 -15 27 0 12 -180 203 -192 203 -2 0 -9 -5 -15 -11z"/>
</g>
<g>
<path d="M4210 4066 c0 -29 12 -39 34 -30 21 8 21 40 0 48 -27 10 -34 7 -34
-18z"/>
</g>
<g>
<path d="M4163 3995 c-25 -29 -35 -127 -14 -148 20 -20 46 5 46 45 0 19 6 42
13 51 17 20 12 71 -8 74 -8 2 -25 -8 -37 -22z"/>
</g>
<g>
<path d="M6337 3954 c-4 -4 -7 -18 -7 -30 0 -13 -6 -27 -13 -31 -8 -4 -24 -23
-37 -40 -20 -28 -22 -36 -12 -58 18 -38 63 -32 77 11 6 17 16 38 23 47 18 22
12 101 -8 105 -9 1 -19 0 -23 -4z"/>
</g>
<g>
<path d="M8390 3941 c-14 -28 -12 -94 4 -116 17 -23 46 -14 46 15 0 11 7 32
16 46 14 20 15 30 6 49 -14 31 -57 34 -72 6z"/>
</g>
<g>
<path d="M9537 3954 c-4 -4 -7 -16 -7 -26 0 -14 6 -19 23 -16 14 2 22 10 22
23 0 20 -25 32 -38 19z"/>
</g>
<g>
<path d="M7504 3906 c-9 -23 4 -66 20 -66 21 0 38 26 34 52 -4 28 -45 38 -54
14z"/>
</g>
<g>
<path d="M9597 3883 c-19 -18 -5 -59 28 -86 23 -18 35 -36 35 -53 0 -13 7 -27
15 -30 8 -4 15 -15 15 -26 0 -11 14 -33 30 -50 25 -25 33 -28 45 -18 23 19 18
43 -20 86 -24 27 -35 49 -35 70 0 24 -9 40 -35 63 -19 17 -35 35 -35 41 0 11
-33 14 -43 3z"/>
</g>
<g>
<path d="M7548 3819 c-28 -15 -21 -47 17 -86 19 -20 35 -45 35 -55 0 -10 6
-21 14 -24 8 -3 16 -14 19 -25 8 -29 47 -25 47 5 0 13 -6 26 -13 29 -9 3 -12
16 -9 35 3 25 -4 38 -45 80 -39 41 -51 49 -65 41z"/>
</g>
<g>
<path d="M8363 3793 c-8 -2 -13 -22 -13 -44 0 -35 2 -39 26 -39 23 0 25 3 22
42 -3 41 -11 51 -35 41z"/>
</g>
<g>
<path d="M4038 3705 c-25 -21 -28 -31 -28 -85 0 -75 16 -86 62 -41 26 26 29
31 15 37 -24 9 -21 30 9 53 15 11 24 28 22 38 -5 28 -49 27 -80 -2z"/>
</g>
<g>
<path d="M5357 3623 c-4 -3 -7 -17 -7 -31 0 -27 84 -117 100 -107 6 3 10 28
10 54 0 41 -4 50 -30 69 -29 22 -60 28 -73 15z"/>
</g>
<g>
<path d="M9730 3580 c-14 -27 -13 -37 11 -59 15 -13 20 -28 17 -52 l-3 -34
-89 0 c-74 0 -90 -3 -100 -18 -9 -14 -8 -20 4 -28 17 -11 269 -7 288 5 16 9
15 51 0 64 -7 5 -22 12 -33 14 -11 2 -19 10 -17 17 2 8 -6 24 -18 36 -12 12
-20 26 -19 31 6 35 -25 54 -41 24z"/>
</g>
<g>
<path d="M6158 3537 c-25 -20 -28 -30 -28 -79 0 -64 16 -79 56 -50 29 21 36
44 32 103 -4 52 -20 59 -60 26z"/>
</g>
<g>
<path d="M3987 3522 c-13 -14 -14 -21 -5 -30 17 -17 68 -15 75 4 12 32 -45 54
-70 26z"/>
</g>
<g>
<path d="M5429 3454 c-7 -8 -13 -30 -13 -47 -1 -32 -2 -32 -56 -35 -62 -4 -84
-16 -71 -40 8 -14 27 -17 98 -17 l88 0 3 -55 c2 -35 9 -58 18 -63 8 -4 14 -19
14 -33 0 -17 8 -28 28 -36 15 -7 35 -19 45 -27 17 -14 20 -14 33 4 20 28 18
37 -21 75 -19 19 -35 41 -35 51 0 9 -7 22 -15 29 -8 7 -15 23 -15 36 0 19 5
24 25 24 29 0 45 27 24 41 -8 5 -26 8 -40 7 -33 -3 -89 39 -65 48 21 8 21 40
0 48 -23 9 -30 8 -45 -10z"/>
</g>
<g>
<path d="M7705 3456 c-37 -27 17 -149 60 -132 19 7 19 30 0 46 -8 7 -15 27
-15 45 0 42 -20 60 -45 41z"/>
</g>
<g>
<path d="M8288 3433 c-3 -27 -5 -28 -72 -31 -55 -2 -72 0 -78 13 -14 23 -133
22 -143 -2 -6 -17 -7 -17 -21 2 -13 17 -17 18 -35 7 -18 -11 -24 -11 -39 3
-17 16 -19 15 -30 -5 -9 -17 -9 -29 -1 -46 l11 -24 201 0 201 0 29 30 c36 35
36 73 2 78 -17 3 -22 -2 -25 -25z"/>
</g>
<g>
<path d="M8460 3432 c-18 -6 -11 -28 18 -55 25 -24 36 -27 100 -27 55 0 74 4
78 15 8 20 50 19 58 -1 9 -22 80 -15 84 9 2 9 -4 20 -15 24 -10 4 -23 14 -30
22 -9 13 -36 16 -147 16 -75 0 -140 -1 -146 -3z"/>
</g>
<g>
<path d="M9017 3433 c-12 -12 -7 -37 12 -60 22 -27 34 -29 51 -8 9 11 35 15
109 15 108 0 147 14 122 44 -11 13 -37 16 -151 16 -75 0 -140 -3 -143 -7z"/>
</g>
<g>
<path d="M9494 3425 c-9 -22 22 -53 37 -38 15 15 7 47 -14 51 -9 2 -20 -4 -23
-13z"/>
</g>
<g>
<path d="M5910 3385 c-9 -11 -35 -15 -102 -15 -71 0 -90 -3 -95 -16 -13 -34
13 -39 200 -39 l182 0 5 -29 c7 -42 28 -43 45 -4 9 18 21 41 28 51 19 28 -7
37 -114 37 -74 0 -100 4 -109 15 -7 8 -16 15 -20 15 -4 0 -13 -7 -20 -15z"/>
</g>
<g>
<path d="M6822 3378 c2 -19 10 -24 46 -26 26 -2 45 -9 49 -18 6 -17 39 -19 46
-1 2 7 -6 25 -19 40 -19 23 -31 27 -74 27 -48 0 -51 -2 -48 -22z"/>
</g>
<g>
<path d="M7470 3375 c0 -20 5 -25 25 -25 20 0 25 5 25 25 0 20 -5 25 -25 25
-20 0 -25 -5 -25 -25z"/>
</g>
<g>
<path d="M7617 3371 c-26 -27 -26 -28 -9 -44 17 -16 20 -15 47 12 17 18 25 36
22 45 -9 23 -28 19 -60 -13z"/>
</g>
<g>
<path d="M4113 3354 c-13 -34 21 -42 150 -37 105 5 124 3 136 -11 10 -12 31
-16 83 -16 60 0 72 -3 87 -22 24 -28 51 -18 51 20 0 44 -16 52 -109 52 -60 1
-92 5 -105 15 -15 12 -51 15 -153 15 -115 0 -135 -2 -140 -16z"/>
</g>
<g>
<path d="M4699 3354 c-28 -34 11 -42 183 -42 105 0 163 -3 171 -11 6 -6 19
-11 29 -11 26 0 23 32 -5 58 -22 21 -32 22 -194 22 -144 0 -173 -2 -184 -16z"/>
</g>
<g>
<path d="M6272 3357 c-6 -7 -7 -18 -3 -26 7 -11 48 -13 190 -12 190 2 211 5
211 26 0 22 -26 25 -210 25 -132 0 -180 -3 -188 -13z"/>
</g>
<g>
<path d="M7020 3355 c-10 -12 -10 -18 0 -30 16 -20 84 -20 100 0 12 14 15 14
32 -2 17 -16 20 -16 35 0 16 16 16 18 0 34 -14 15 -21 15 -37 6 -12 -8 -21 -9
-25 -3 -10 16 -91 12 -105 -5z"/>
</g>
<g>
<path d="M9832 3358 c-17 -17 -15 -57 3 -64 8 -4 15 -14 15 -24 0 -28 11 -50
24 -50 6 0 24 13 39 29 28 29 28 29 9 47 -11 11 -22 30 -24 44 -3 28 -44 40
-66 18z"/>
</g>
<g>
<path d="M6692 3250 c-7 -11 -21 -20 -32 -20 -12 0 -23 -8 -26 -17 -3 -10 -8
-24 -10 -31 -3 -11 -8 -10 -26 2 -48 34 -78 22 -161 -62 -68 -69 -76 -80 -63
-92 9 -7 16 -19 16 -28 0 -21 83 -100 109 -104 32 -5 29 -22 -5 -28 -28 -5
-29 -7 -32 -68 -2 -50 0 -62 12 -62 8 0 20 -9 26 -20 6 -11 19 -20 29 -20 10
0 24 -7 31 -15 7 -8 23 -15 36 -15 25 0 34 -25 12 -33 -10 -3 -10 -9 0 -26 10
-18 10 -25 -3 -44 -32 -46 -8 -105 38 -93 26 6 27 9 27 79 1 55 5 77 19 95 24
28 51 28 75 1 14 -17 25 -20 51 -16 28 5 35 2 40 -14 8 -25 19 -24 49 6 21 21
26 36 28 98 l3 72 35 5 c54 8 90 37 90 72 0 27 2 30 25 24 20 -5 27 -2 37 19
10 23 8 29 -24 63 -20 20 -38 48 -40 62 -3 22 -9 25 -48 28 -26 2 -48 10 -53
18 -4 8 -19 14 -32 14 -24 0 -25 3 -25 59 0 61 -4 69 -41 76 -12 3 -29 11 -39
20 -26 23 -112 20 -128 -5z m104 -45 c9 -8 24 -15 33 -15 13 0 20 -10 25 -37
13 -82 12 -83 -51 -83 -44 0 -62 -5 -80 -22 -13 -12 -23 -26 -23 -31 0 -21 47
-46 88 -47 38 0 42 2 42 25 0 14 9 34 21 46 19 19 22 19 38 5 10 -9 32 -16 49
-16 19 0 41 -9 56 -24 23 -21 26 -31 26 -95 l0 -72 -62 3 c-61 3 -63 4 -66 31
-2 16 -10 31 -18 34 -19 7 -18 23 1 23 8 0 15 -7 15 -16 0 -12 10 -14 48 -12
41 3 47 6 50 27 5 36 -12 47 -37 22 -26 -26 -37 -26 -58 -1 -24 28 -63 27 -63
-2 0 -43 -12 -49 -91 -46 l-74 3 -3 40 c-2 22 -1 86 3 143 6 87 9 102 24 102
9 0 26 7 37 15 25 19 52 19 70 0z m-188 -100 c46 -48 6 -101 -43 -55 -16 15
-25 18 -30 10 -4 -7 9 -25 30 -44 39 -35 43 -61 13 -80 -13 -8 -22 -5 -42 13
-22 21 -26 22 -32 7 -9 -25 -34 -19 -34 8 0 13 -7 29 -15 36 -25 21 -17 50 27
91 51 47 91 52 126 14z m22 -235 c0 -18 -6 -33 -15 -36 -8 -4 -15 -10 -15 -15
0 -5 7 -9 15 -9 8 0 15 7 15 16 0 9 6 14 13 12 6 -3 13 -24 15 -49 2 -38 -2
-47 -24 -63 -24 -17 -27 -18 -36 -2 -5 9 -20 16 -32 16 -40 0 -49 55 -16 97
11 14 20 34 20 44 0 14 7 19 30 19 27 0 30 -3 30 -30z m230 -32 c23 -3 25 -8
28 -58 2 -47 -1 -59 -23 -82 -34 -37 -73 -37 -108 0 -15 15 -27 34 -27 42 0 7
-10 24 -22 37 -17 19 -20 28 -12 41 16 25 51 27 64 3 6 -13 21 -21 35 -21 14
0 25 2 25 4 0 2 3 11 6 20 4 11 1 16 -10 16 -9 0 -16 7 -16 17 0 15 2 15 18 0
9 -8 28 -17 42 -19z"/>
</g>
<g>
<path d="M7765 3249 c-7 -21 23 -75 52 -92 8 -5 13 -26 13 -52 0 -47 8 -59 34
-49 22 8 22 96 1 114 -8 7 -15 18 -15 25 0 19 -49 75 -65 75 -8 0 -17 -10 -20
-21z"/>
</g>
<g>
<path d="M8260 3256 c-18 -23 -8 -61 18 -64 20 -3 22 1 22 37 0 43 -17 54 -40
27z"/>
</g>
<g>
<path d="M3938 3210 c-16 -16 -28 -37 -28 -47 0 -26 55 -77 74 -70 30 12 17
149 -13 147 -4 -1 -18 -14 -33 -30z"/>
</g>
<g>
<path d="M9897 3194 c-12 -13 -8 -61 7 -73 8 -7 17 -23 20 -36 4 -14 13 -25
21 -25 19 0 27 34 23 91 -3 41 -5 44 -33 47 -17 2 -34 0 -38 -4z"/>
</g>
<g>
<path d="M6092 3169 c-21 -8 -23 -14 -20 -61 3 -48 6 -53 27 -56 31 -5 51 21
51 64 0 25 -22 67 -33 63 -1 0 -12 -4 -25 -10z"/>
</g>
<g>
<path d="M5514 3086 c-10 -26 0 -51 21 -51 16 0 20 7 20 30 0 33 -30 49 -41
21z"/>
</g>
<g>
<path d="M2085 3010 c-4 -19 -2 -36 6 -46 10 -13 14 -12 31 3 26 23 20 67 -9
71 -17 3 -23 -3 -28 -28z"/>
</g>
<g>
<path d="M5582 3028 c-7 -7 -12 -33 -12 -59 0 -39 6 -54 29 -80 19 -20 35 -30
45 -26 21 8 21 66 1 73 -9 4 -15 19 -15 36 0 31 -15 68 -28 68 -5 0 -13 -5
-20 -12z"/>
</g>
<g>
<path d="M6037 3034 c-15 -16 -7 -63 13 -74 24 -13 33 2 28 47 -3 27 -26 42
-41 27z"/>
</g>
<g>
<path d="M9927 3034 c-12 -13 -8 -55 8 -70 8 -9 15 -33 15 -53 0 -22 6 -44 15
-51 8 -7 15 -26 15 -42 0 -16 9 -41 20 -55 13 -16 18 -34 14 -49 -4 -16 1 -28
15 -41 12 -9 21 -27 21 -40 0 -12 5 -25 10 -28 6 -4 17 -22 25 -41 12 -30 19
-35 42 -32 38 4 39 28 4 63 -26 25 -30 38 -31 81 0 43 -5 55 -30 79 -23 22
-30 38 -30 66 0 26 -6 42 -20 52 -15 11 -20 27 -22 88 l-3 74 -30 3 c-17 2
-34 0 -38 -4z"/>
</g>
<g>
<path d="M8227 3002 c-23 -25 -21 -75 3 -97 16 -15 22 -15 35 -5 21 18 19 83
-3 104 -18 15 -20 15 -35 -2z"/>
</g>
<g>
<path d="M7830 2955 c0 -40 4 -57 15 -61 9 -4 15 -19 15 -38 0 -18 7 -41 15
-52 8 -10 15 -36 15 -56 0 -27 6 -40 20 -48 15 -8 20 -21 20 -49 0 -22 6 -44
15 -51 10 -8 15 -30 15 -64 0 -40 4 -54 19 -63 23 -14 21 -41 -4 -59 -28 -21
-12 -46 27 -42 28 2 34 8 36 31 2 16 10 31 18 34 18 7 18 27 -1 43 -10 8 -15
30 -15 64 0 45 -4 56 -30 81 -16 16 -30 39 -30 51 0 12 -7 27 -15 34 -8 7 -15
26 -15 43 0 17 -8 39 -17 49 -10 12 -16 32 -15 53 2 25 -3 38 -18 47 -14 9
-20 23 -20 50 0 27 -6 40 -19 48 -30 15 -31 14 -31 -45z"/>
</g>
<g>
<path d="M3755 2930 c-4 -6 0 -19 9 -29 9 -10 16 -26 16 -37 0 -11 10 -25 21
-32 19 -12 21 -20 15 -62 -6 -44 -4 -51 21 -74 15 -14 31 -26 35 -26 5 0 8
-10 8 -21 0 -12 16 -40 36 -62 l37 -40 -6 -72 c-6 -65 -4 -76 15 -101 32 -41
41 -46 56 -27 17 23 15 78 -3 93 -28 23 -15 29 63 32 69 3 77 5 77 23 0 18 -8
20 -82 23 l-83 3 0 43 c0 29 -5 46 -14 49 -8 3 -16 18 -18 34 -2 22 -9 29 -33
33 l-30 5 3 95 c1 52 -1 102 -4 112 -7 22 -30 24 -38 3 -9 -24 -24 -17 -28 13
-2 22 -8 28 -35 30 -17 2 -34 -2 -38 -8z"/>
</g>
<g>
<path d="M2120 2895 c-10 -12 -11 -63 -6 -233 4 -119 9 -218 12 -221 2 -2 16
2 30 9 24 13 27 12 88 -53 65 -69 84 -78 106 -52 10 13 9 19 -6 37 -36 41 -69
67 -86 68 -9 0 -20 5 -23 10 -4 6 40 10 124 10 71 0 132 4 135 9 4 5 3 17 0
26 -6 14 -25 16 -153 14 -141 -1 -146 -1 -144 19 1 11 -4 26 -12 32 -12 10
-15 42 -15 160 0 82 -3 155 -6 164 -8 20 -28 20 -44 1z"/>
</g>
<g>
<path d="M8262 2808 c-19 -19 -16 -182 3 -198 28 -23 36 3 33 105 -3 97 -11
118 -36 93z"/>
</g>
<g>
<path d="M5646 2794 c-11 -28 -6 -71 9 -84 8 -7 15 -29 15 -49 0 -44 13 -66
34 -58 21 8 22 89 1 107 -8 7 -15 27 -15 44 0 46 -31 74 -44 40z"/>
</g>
<g>
<path d="M5714 2785 c-7 -28 12 -59 32 -51 17 7 64 -39 64 -62 0 -25 23 -44
47 -40 13 2 17 -3 16 -16 -1 -11 7 -31 18 -44 10 -13 16 -29 13 -34 -9 -14 16
-38 41 -38 13 0 25 -7 29 -15 3 -10 19 -15 44 -15 30 0 45 -7 72 -35 25 -26
42 -35 66 -35 22 0 42 -10 64 -30 31 -29 36 -30 121 -30 87 0 89 -1 111 -30
12 -16 29 -30 38 -30 10 0 29 -11 44 -25 22 -20 26 -32 26 -80 0 -40 -4 -57
-15 -61 -19 -8 -19 -48 0 -64 14 -12 14 -15 0 -30 -8 -9 -15 -26 -15 -38 0
-25 -1 -25 -91 -22 -42 1 -69 -3 -74 -10 -15 -24 17 -35 102 -35 60 0 87 -4
90 -12 5 -13 -49 -16 -288 -18 -48 0 -72 -5 -86 -17 -12 -11 -40 -18 -78 -20
l-60 -3 -3 -45 c-2 -32 1 -48 13 -56 14 -11 21 -26 24 -56 1 -4 13 -8 29 -10
26 -3 27 -6 30 -63 2 -35 9 -66 18 -76 13 -14 14 -43 8 -183 -7 -162 -6 -168
15 -197 12 -16 20 -33 17 -38 -3 -5 16 -32 43 -60 49 -52 50 -52 98 -45 41 5
51 3 67 -15 16 -18 31 -21 100 -21 70 0 84 3 99 21 16 18 28 20 80 18 55 -3
65 0 90 23 15 14 27 34 27 44 0 11 23 41 51 67 l50 47 -2 86 c-1 71 1 88 15
96 19 11 22 78 4 96 -16 16 -70 16 -86 0 -20 -20 -16 -167 5 -190 16 -18 16
-20 -15 -44 -26 -20 -32 -33 -32 -62 0 -40 -34 -82 -65 -82 -10 0 -23 -7 -30
-17 -10 -13 -37 -17 -154 -21 -139 -4 -143 -4 -167 19 -24 23 -26 23 -38 7
-20 -28 -56 -23 -56 6 0 15 -12 35 -32 52 -39 32 -40 41 -15 74 17 22 17 25 2
36 -13 10 -18 35 -22 112 -5 101 5 134 27 92 12 -23 42 -26 59 -7 13 17 -4 37
-32 37 -11 0 -17 5 -14 13 2 7 18 11 40 9 32 -3 37 -1 37 17 0 18 -6 21 -39
21 -21 0 -44 6 -51 14 -6 8 -21 16 -32 18 -12 2 -26 11 -32 21 -15 24 18 49
59 45 25 -2 31 -8 35 -33 5 -27 9 -30 48 -33 31 -2 44 1 48 12 8 20 30 21 38
1 4 -12 28 -15 129 -15 99 0 127 3 137 15 9 11 32 15 81 15 52 0 70 4 77 16 5
9 18 14 33 12 20 -2 24 -9 24 -40 0 -72 40 -70 47 2 2 29 8 36 28 38 37 5 48
21 27 37 -10 7 -22 26 -26 42 -7 27 -10 28 -81 31 -63 3 -75 0 -92 -18 -18
-19 -30 -20 -268 -20 -217 0 -250 2 -250 15 0 9 -12 18 -30 21 -16 4 -35 13
-41 20 -6 8 -20 14 -30 14 -24 0 -24 14 -2 40 20 23 61 27 69 6 9 -23 42 -25
68 -5 13 10 33 19 44 19 11 0 22 9 25 20 5 18 14 20 95 20 95 0 116 -9 82 -33
-17 -12 -21 -23 -18 -58 4 -56 31 -62 36 -9 2 19 10 50 18 68 14 29 19 32 60
32 37 0 47 -4 51 -20 4 -16 14 -20 43 -20 21 0 43 -7 50 -15 7 -8 20 -15 30
-15 10 0 23 -7 30 -15 16 -19 80 -20 80 -1 0 7 -9 16 -20 19 -14 3 -20 14 -20
31 0 25 -2 26 -63 26 -35 0 -67 4 -72 9 -6 6 -40 11 -78 13 -117 5 -82 23 53
26 111 2 127 1 151 -17 22 -16 29 -18 38 -7 8 9 4 19 -15 37 -24 23 -33 24
-147 24 -120 0 -122 0 -125 23 -4 28 31 66 71 76 15 3 27 11 27 16 0 15 21 12
34 -4 8 -10 36 -15 91 -17 107 -2 105 -3 105 29 0 38 -9 45 -36 28 -25 -17
-34 -12 -34 21 0 32 -15 29 -49 -9 -29 -32 -29 -33 -50 -14 -12 11 -21 23 -21
29 0 5 21 29 46 52 25 24 43 48 39 54 -10 17 -46 13 -60 -6 -13 -18 -35 -10
-35 13 0 8 16 28 35 45 21 19 35 40 35 54 0 18 6 24 28 27 19 2 28 9 30 26 3
18 -1 22 -26 22 -22 0 -35 -8 -53 -35 -13 -19 -30 -35 -36 -35 -7 0 -13 -6
-13 -13 0 -7 -13 -23 -30 -35 -27 -21 -30 -28 -30 -82 0 -49 -3 -61 -20 -70
-11 -6 -20 -21 -20 -34 0 -24 -28 -56 -48 -56 -8 0 -12 51 -14 173 -3 145 -5
172 -18 172 -10 0 -17 -14 -20 -45 -5 -49 -23 -61 -28 -18 -2 14 -10 32 -18
38 -8 7 -14 28 -14 47 0 24 -8 42 -30 63 -22 21 -30 39 -30 64 0 43 -42 96
-75 96 -12 0 -25 7 -29 15 -3 8 -16 15 -28 15 -27 0 -49 22 -63 65 -8 22 -18
31 -38 33 -16 2 -31 10 -34 18 -4 11 -33 14 -144 14 -128 0 -139 -1 -149 -20
-7 -14 -21 -20 -44 -20 -20 0 -40 8 -51 20 -26 29 -63 26 -71 -5z m382 -25
c27 0 32 -4 38 -30 6 -32 29 -40 44 -15 7 13 18 6 60 -35 28 -27 59 -50 69
-50 10 0 31 -14 47 -30 16 -17 33 -30 38 -30 4 0 8 -13 8 -30 0 -35 -9 -38
-33 -10 -19 23 -104 29 -125 8 -18 -18 5 -38 46 -38 30 0 45 -9 89 -52 29 -29
53 -56 53 -60 0 -4 -31 -8 -68 -8 -65 0 -70 2 -102 35 -21 21 -44 35 -58 35
-27 0 -127 44 -137 60 -3 6 -14 10 -24 10 -10 0 -64 45 -121 101 -79 77 -100
103 -89 110 22 14 37 11 49 -11 6 -11 19 -20 29 -20 10 0 24 -7 31 -15 7 -8
23 -15 36 -15 13 0 28 -9 34 -20 9 -17 21 -20 69 -20 43 0 60 -4 65 -15 3 -8
14 -15 24 -15 11 0 25 -7 32 -16 17 -20 64 -14 68 9 3 12 -3 17 -21 17 -13 0
-32 9 -42 20 -10 11 -26 20 -35 20 -10 0 -23 7 -30 15 -8 10 -31 15 -66 15
-48 0 -57 4 -84 33 -45 49 -40 61 23 53 28 -3 66 -6 83 -6z m334 -270 c0 -5
-4 -10 -10 -10 -5 0 -10 5 -10 10 0 6 5 10 10 10 6 0 10 -4 10 -10z m-256
-765 c4 -10 20 -15 51 -15 32 0 45 -4 45 -14 0 -9 12 -16 33 -18 17 -2 32 -7
32 -13 0 -5 -15 -11 -32 -13 -25 -2 -33 1 -33 12 0 12 -10 16 -39 16 -28 0
-48 7 -65 23 -14 13 -23 27 -19 30 10 11 20 8 27 -8z m706 -30 c0 -9 -9 -15
-25 -15 -14 0 -28 -7 -31 -15 -8 -20 -258 -23 -252 -2 3 8 36 13 109 15 78 2
106 6 112 17 11 21 87 20 87 0z m-480 -36 c0 -5 -7 -9 -15 -9 -15 0 -20 12 -9
23 8 8 24 -1 24 -14z m98 3 c2 -7 -3 -12 -12 -12 -9 0 -16 7 -16 16 0 17 22
14 28 -4z"/>
</g>
<g>
<path d="M5420 2565 c-7 -8 -26 -15 -42 -15 -16 0 -38 -5 -49 -10 -19 -11 -18
-12 10 -40 25 -26 37 -30 83 -30 46 0 58 4 81 28 l27 28 -28 27 c-31 30 -63
35 -82 12z"/>
</g>
<g>
<path d="M5717 2573 c-4 -3 -7 -61 -7 -128 0 -95 3 -125 14 -135 8 -6 16 -30
18 -53 2 -34 7 -42 23 -42 17 0 20 8 23 48 2 35 -1 49 -12 53 -21 8 -21 96 -1
128 14 21 14 24 0 36 -8 7 -15 29 -15 50 0 25 -5 40 -16 44 -19 7 -19 7 -27
-1z"/>
</g>
<g>
<path d="M6777 2551 c-25 -26 -26 -29 -11 -42 14 -11 18 -11 30 6 19 26 41 27
58 3 18 -26 46 -17 46 15 0 33 -18 47 -59 47 -26 0 -44 -8 -64 -29z"/>
</g>
<g>
<path d="M7734 2565 c-5 -12 -27 -15 -109 -15 -73 0 -106 -4 -114 -13 -8 -10
-7 -17 1 -25 15 -15 261 -16 289 -2 21 12 25 40 7 58 -17 17 -67 15 -74 -3z"/>
</g>
<g>
<path d="M8065 2570 c-9 -15 4 -30 26 -30 10 0 27 -9 36 -20 14 -17 30 -20 89
-20 55 0 73 -4 78 -15 3 -8 16 -15 28 -15 13 0 31 -9 41 -20 9 -11 26 -20 37
-20 17 0 20 -7 20 -44 0 -31 5 -46 16 -50 30 -11 82 -6 95 10 11 13 10 18 -8
32 -12 10 -23 28 -25 42 -2 18 -10 26 -29 28 -14 2 -41 19 -60 38 -18 18 -40
34 -48 34 -9 0 -31 14 -50 30 -33 29 -37 30 -137 30 -58 0 -106 -4 -109 -10z"/>
</g>
<g>
<path d="M4570 2545 c-15 -18 -7 -45 13 -45 8 0 20 6 26 13 8 11 6 18 -8 31
-16 15 -20 15 -31 1z"/>
</g>
<g>
<path d="M4709 2539 c-19 -19 -21 -20 -33 -3 -21 28 -48 11 -44 -28 l3 -33 88
-3 c78 -2 87 -1 87 15 0 20 -35 56 -63 66 -11 4 -25 -1 -38 -14z"/>
</g>
<g>
<path d="M5030 2536 c-6 -8 -10 -25 -8 -38 3 -21 8 -23 81 -26 75 -3 80 -2
109 27 29 28 29 30 10 40 -32 17 -177 14 -192 -3z"/>
</g>
<g>
<path d="M7091 2536 c-23 -27 10 -36 114 -31 107 6 117 9 108 30 -7 21 -205
22 -222 1z"/>
</g>
<g>
<path d="M2734 2505 c-11 -29 7 -35 111 -35 105 0 128 8 105 35 -18 21 -208
21 -216 0z"/>
</g>
<g>
<path d="M3137 2514 c-4 -4 -7 -16 -7 -26 0 -16 10 -18 106 -18 104 0 105 0
102 23 -3 21 -8 22 -98 25 -53 1 -99 0 -103 -4z"/>
</g>
<g>
<path d="M3590 2495 l0 -26 103 3 c94 3 102 4 102 23 0 19 -8 20 -102 23
l-103 3 0 -26z"/>
</g>
<g>
<path d="M10090 2501 c-14 -27 -13 -46 5 -61 32 -26 63 38 33 68 -17 17 -26
15 -38 -7z"/>
</g>
<g>
<path d="M6980 2465 c-7 -8 -21 -15 -31 -15 -24 0 -33 -18 -19 -35 17 -21 37
-19 57 5 15 17 30 20 105 20 72 0 88 -3 88 -15 0 -10 -10 -15 -29 -15 -16 0
-31 -6 -35 -15 -3 -8 -17 -15 -31 -15 -14 0 -28 -7 -31 -15 -4 -8 -16 -15 -29
-15 -12 0 -28 -7 -35 -15 -7 -8 -21 -15 -31 -15 -28 0 -74 -44 -66 -63 8 -21
56 -22 63 -2 4 8 16 15 29 15 12 0 30 9 40 20 10 11 26 20 35 20 10 0 23 7 30
15 7 8 19 15 28 15 8 0 30 16 48 36 29 30 39 35 71 32 36 -3 38 -5 41 -41 3
-30 -2 -42 -20 -57 -13 -11 -30 -19 -39 -20 -9 0 -24 -9 -34 -20 -10 -11 -29
-20 -42 -20 -18 0 -25 -7 -29 -29 -7 -36 -61 -89 -100 -100 -21 -5 -30 -14
-32 -33 -4 -37 20 -53 43 -28 10 11 26 20 36 20 14 0 229 203 229 217 0 2 13
16 29 31 15 15 31 40 35 55 6 26 10 28 37 22 26 -6 36 -2 65 26 18 18 31 36
28 41 -3 4 -115 8 -248 8 -204 0 -246 -2 -256 -15z"/>
</g>
<g>
<path d="M10114 2405 c-8 -20 4 -35 27 -35 14 0 19 7 19 25 0 18 -5 25 -20 25
-11 0 -23 -7 -26 -15z"/>
</g>
<g>
<path d="M2354 2305 c-8 -20 4 -35 27 -35 11 0 32 -13 46 -30 17 -21 34 -30
54 -30 47 0 47 26 1 71 -34 32 -48 39 -82 39 -26 0 -43 -5 -46 -15z"/>
</g>
<g>
<path d="M7997 2314 c-4 -4 -7 -20 -7 -35 0 -36 28 -53 65 -39 22 8 26 15 23
42 -3 30 -7 33 -38 36 -20 2 -39 0 -43 -4z"/>
</g>
<g>
<path d="M10114 2306 c-3 -8 -4 -31 -2 -52 2 -31 7 -40 25 -42 16 -2 23 3 28
26 9 43 -3 82 -26 82 -11 0 -22 -6 -25 -14z"/>
</g>
<g>
<path d="M4014 2276 c-11 -28 0 -61 21 -61 16 0 20 7 20 35 0 25 -5 36 -18 38
-9 2 -20 -3 -23 -12z"/>
</g>
<g>
<path d="M4050 2181 c-20 -38 -9 -66 28 -69 47 -5 53 22 14 60 l-30 31 -12
-22z"/>
</g>
<g>
<path d="M2514 2176 c-11 -29 1 -61 24 -64 12 -2 59 -41 104 -88 56 -57 90
-84 105 -84 18 0 23 -6 23 -25 0 -18 8 -29 27 -38 37 -17 73 -54 73 -76 0 -22
86 -104 100 -96 6 3 10 20 10 36 0 25 -6 33 -30 42 -25 9 -29 17 -32 52 -3 38
-5 40 -38 43 -42 4 -60 18 -60 44 0 26 -156 182 -175 174 -8 -3 -31 15 -56 45
-44 50 -65 60 -75 35z"/>
</g>
<g>
<path d="M5777 2184 c-4 -4 -7 -33 -7 -65 0 -49 3 -60 21 -69 16 -9 19 -19 17
-48 l-3 -37 -72 -3 c-72 -3 -73 -3 -73 23 0 36 -42 55 -69 31 -28 -25 -120
-28 -135 -4 -17 28 -49 21 -86 -16 -25 -27 -43 -36 -74 -38 -33 -2 -41 -7 -41
-23 0 -17 8 -20 48 -23 35 -2 49 1 53 12 9 23 289 24 298 1 5 -13 44 -15 296
-15 160 1 298 4 306 7 8 3 14 14 14 24 0 17 -12 19 -207 21 l-208 3 3 36 c3
28 -2 40 -17 51 -15 11 -21 28 -23 73 -2 44 -7 61 -18 63 -9 1 -19 0 -23 -4z"/>
</g>
<g>
<path d="M8030 2136 c0 -44 3 -56 19 -61 36 -11 80 28 46 41 -8 4 -15 16 -15
28 0 25 -17 46 -37 46 -9 0 -13 -16 -13 -54z"/>
</g>
<g>
<path d="M10157 2184 c-13 -14 -7 -91 8 -104 10 -8 15 -30 15 -65 0 -56 17
-84 38 -63 18 18 16 152 -2 168 -8 6 -16 23 -18 38 -3 26 -26 40 -41 26z"/>
</g>
<g>
<path d="M8740 2107 c0 -7 23 -34 50 -59 28 -26 50 -55 50 -66 0 -11 7 -25 15
-32 8 -7 15 -21 15 -31 0 -24 22 -35 87 -43 55 -7 69 1 58 34 -4 12 -15 20
-29 20 -28 0 -63 36 -68 70 -2 18 -10 26 -27 28 -13 2 -43 24 -65 48 -40 43
-86 59 -86 31z"/>
</g>
<g>
<path d="M4076 2074 c-14 -36 -6 -101 14 -119 26 -23 25 -46 -1 -68 -24 -21
-22 -65 4 -81 23 -15 39 9 31 47 -4 20 -2 27 10 27 9 0 19 13 24 31 l8 32 99
-2 c75 -2 102 -6 108 -17 12 -22 232 -20 241 2 11 29 -4 34 -97 34 -83 0 -93
2 -106 21 -12 21 -18 21 -128 17 -104 -5 -117 -4 -134 13 -11 11 -19 27 -19
37 0 36 -42 57 -54 26z"/>
</g>
<g>
<path d="M8073 2053 c-8 -3 -13 -22 -13 -48 l0 -44 -47 -3 c-40 -3 -48 -6 -48
-23 0 -18 7 -20 65 -20 60 -1 65 -2 68 -24 2 -13 -5 -32 -18 -46 -13 -14 -20
-33 -18 -47 2 -19 9 -23 38 -23 l35 0 0 50 0 50 260 5 c252 5 260 6 260 25 0
19 -8 20 -137 23 -105 2 -139 6 -148 17 -16 19 -29 19 -52 -2 -18 -16 -21 -16
-47 0 -37 21 -85 22 -106 1 -26 -26 -55 7 -55 61 0 42 -12 57 -37 48z"/>
</g>
<g>
<path d="M4965 2016 c-15 -12 -50 -15 -152 -16 -118 0 -133 -2 -142 -18 -20
-37 4 -42 185 -42 144 0 173 -2 178 -15 4 -12 25 -15 101 -15 95 0 95 0 95 25
0 25 -1 25 -90 25 l-90 0 -32 36 c-31 33 -34 34 -53 20z"/>
</g>
<g>
<path d="M7174 1945 c-3 -8 -3 -19 1 -25 8 -13 305 -14 305 -1 0 5 3 16 6 25
5 14 -12 16 -150 16 -128 0 -158 -3 -162 -15z"/>
</g>
<g>
<path d="M7734 1945 c-4 -10 -20 -15 -44 -15 -45 0 -68 -21 -44 -41 20 -16
139 -15 160 2 13 10 11 16 -12 41 -31 31 -52 36 -60 13z"/>
</g>
<g>
<path d="M7894 1945 c-4 -9 -2 -21 4 -27 15 -15 44 -1 40 19 -4 23 -36 29 -44
8z"/>
</g>
<g>
<path d="M9047 1954 c-13 -13 -7 -62 7 -67 20 -8 38 17 34 45 -3 22 -27 35
-41 22z"/>
</g>
<g>
<path d="M9138 1934 c-22 -47 5 -55 167 -52 132 3 140 4 140 23 0 18 -8 20
-62 23 -38 2 -66 8 -73 17 -9 11 -34 15 -86 15 -70 0 -75 -1 -86 -26z"/>
</g>
<g>
<path d="M9730 1935 l0 -25 109 0 c88 0 110 -3 115 -15 4 -12 27 -15 120 -15
118 0 147 10 111 37 -13 9 -49 13 -111 13 -69 0 -95 4 -104 15 -10 12 -37 15
-126 15 l-114 0 0 -25z"/>
</g>
<g>
<path d="M5833 1860 c-16 -19 -23 -42 -23 -72 0 -52 6 -61 31 -47 13 7 19 21
19 47 0 20 7 45 15 55 15 20 10 47 -9 46 -6 0 -21 -13 -33 -29z"/>
</g>
<g>
<path d="M10217 1843 c-4 -3 -7 -22 -7 -41 0 -18 -9 -45 -19 -59 -14 -17 -18
-31 -12 -46 12 -31 45 -29 49 3 2 14 10 29 18 33 9 5 14 26 14 62 0 47 -3 55
-18 55 -10 0 -22 -3 -25 -7z"/>
</g>
<g>
<path d="M3003 1704 c-4 -11 15 -35 60 -77 39 -38 67 -72 69 -87 2 -18 11 -26
30 -30 16 -3 55 -36 104 -87 44 -47 86 -83 96 -83 11 0 38 -20 60 -45 43 -47
78 -59 78 -27 0 22 -304 316 -331 320 -15 3 -19 12 -19 41 0 42 -14 61 -46 61
-12 0 -24 7 -28 15 -7 20 -65 20 -73 -1z"/>
</g>
<g>
<path d="M5845 1710 c-4 -6 -7 -43 -7 -81 0 -53 4 -73 16 -82 11 -9 16 -33 18
-92 3 -72 5 -80 23 -80 18 0 20 8 23 99 2 76 -1 102 -12 115 -8 9 -16 41 -18
71 -2 42 -7 56 -20 58 -9 2 -19 -2 -23 -8z"/>
</g>
<g>
<path d="M8094 1707 c-3 -8 -4 -41 -2 -73 3 -51 6 -59 23 -59 18 0 20 7 20 70
0 58 -3 70 -18 73 -9 2 -20 -3 -23 -11z"/>
</g>
<g>
<path d="M4117 1683 c-4 -3 -7 -64 -7 -135 0 -105 3 -130 15 -134 11 -5 15
-23 15 -79 0 -56 -4 -74 -15 -79 -11 -4 -15 -22 -15 -70 0 -56 3 -66 20 -71
11 -3 29 -3 40 0 18 6 20 15 20 79 0 53 4 77 15 86 8 7 15 18 15 25 0 7 -7 18
-15 25 -10 9 -15 32 -15 75 0 43 -5 66 -15 75 -11 9 -15 32 -15 80 0 55 4 70
21 86 19 17 19 19 3 31 -19 14 -56 17 -67 6z"/>
</g>
<g>
<path d="M9212 1678 c-7 -7 -12 -21 -12 -32 0 -24 48 -76 70 -76 9 0 25 -9 35
-20 14 -15 21 -17 32 -9 17 15 17 35 -2 43 -8 3 -15 15 -15 26 0 27 -52 80
-77 80 -11 0 -24 -5 -31 -12z"/>
</g>
<g>
<path d="M10222 1648 c-8 -8 -12 -52 -12 -135 0 -112 2 -123 20 -133 18 -10
20 -21 20 -123 0 -100 -2 -114 -20 -130 -14 -11 -20 -29 -20 -57 0 -29 5 -42
20 -50 18 -10 20 -21 20 -145 0 -74 -3 -135 -7 -135 -3 0 -14 7 -23 15 -15 13
-19 13 -29 1 -9 -11 -4 -20 24 -44 19 -17 35 -40 35 -51 0 -21 -22 -33 -45
-25 -8 4 -26 -1 -40 -10 -34 -22 -217 -23 -235 -1 -18 22 -312 22 -330 0 -10
-12 -43 -15 -174 -15 -120 0 -167 -3 -181 -13 -22 -17 -12 -37 19 -37 13 0 29
-7 36 -15 16 -20 69 -20 76 0 9 24 200 22 227 -2 18 -17 19 -17 32 0 16 22 72
22 96 1 22 -20 39 -11 39 21 0 31 24 38 52 15 21 -17 25 -17 40 -3 16 14 20
13 44 -16 21 -25 33 -31 67 -31 24 0 48 7 59 17 19 17 21 17 50 0 28 -16 32
-16 48 -2 12 11 39 15 96 15 49 0 85 5 92 12 18 18 14 46 -8 60 -11 7 -20 22
-20 33 0 11 9 26 20 33 26 16 29 102 4 126 -14 14 -16 52 -14 286 1 260 0 269
-19 280 -19 9 -21 22 -23 137 -3 124 -10 147 -36 121z"/>
</g>
<g>
<path d="M8130 1541 c-5 -11 -10 -46 -10 -79 0 -64 16 -90 52 -84 16 3 18 -5
18 -85 0 -76 -3 -91 -20 -106 -11 -9 -20 -24 -20 -32 0 -8 9 -23 20 -32 18
-16 20 -30 20 -134 0 -92 3 -119 15 -129 13 -11 15 -35 13 -133 -3 -108 -5
-120 -21 -123 -10 -1 -27 -10 -37 -19 -16 -14 -18 -14 -32 7 -8 13 -18 35 -22
51 -8 35 -20 34 -56 -3 l-29 -30 -578 0 -578 0 -20 30 c-22 33 -37 37 -55 15
-10 -12 -36 -15 -115 -15 -79 0 -105 -3 -115 -15 -10 -12 -41 -15 -161 -15
-137 0 -149 1 -149 18 0 10 -6 27 -14 37 -13 18 -14 18 -32 -3 -17 -20 -28
-22 -131 -22 -96 0 -113 2 -122 17 -13 23 -44 6 -49 -26 -3 -20 -8 -21 -142
-21 -113 0 -139 3 -144 15 -8 22 -414 22 -422 0 -9 -22 -176 -22 -194 0 -19
22 -571 22 -590 0 -7 -8 -20 -15 -30 -15 -10 0 -23 7 -30 15 -9 11 -33 15 -86
15 -69 0 -94 10 -59 24 19 7 19 50 0 66 -14 12 -14 15 0 30 12 13 15 47 15
173 0 157 -6 181 -35 157 -11 -10 -15 -37 -15 -115 0 -79 -3 -105 -15 -115
-13 -11 -12 -15 5 -37 19 -25 16 -52 -10 -68 -6 -4 -1 -18 12 -36 15 -20 19
-32 12 -39 -7 -7 -30 11 -72 55 -45 49 -67 65 -87 65 -24 0 -26 3 -21 25 7 28
-15 45 -58 45 -30 0 -166 129 -166 157 0 24 -112 133 -135 133 -10 0 -34 18
-53 40 -33 39 -35 40 -54 24 -18 -17 -16 -20 67 -100 49 -47 85 -89 85 -101 0
-24 18 -43 42 -43 24 0 156 -134 160 -162 3 -20 10 -23 51 -26 26 -2 47 -7 47
-13 0 -18 85 -89 107 -89 19 0 22 -6 25 -47 l3 -48 92 -3 c65 -2 95 -7 103
-17 18 -22 195 -21 204 0 8 22 427 22 446 0 18 -22 328 -22 336 0 9 22 309 22
318 0 8 -22 308 -22 326 0 18 22 285 22 294 0 8 -23 491 -23 500 0 7 20 79 20
96 0 11 -13 65 -15 375 -15 313 0 364 -2 369 -15 7 -19 35 -19 42 0 5 13 41
15 236 15 191 0 232 -3 244 -15 21 -20 143 -21 170 0 29 22 439 22 448 0 5
-13 27 -15 138 -13 130 3 133 3 136 26 6 42 -14 52 -100 52 -64 0 -85 -4 -105
-20 -25 -20 -52 -16 -68 10 -4 6 -91 10 -226 10 l-219 0 0 140 c0 116 -3 142
-15 146 -13 5 -15 42 -15 244 0 199 -2 240 -15 250 -10 9 -15 31 -15 72 0 71
-12 98 -45 98 -14 0 -29 -8 -35 -19z"/>
</g>
<g>
<path d="M9334 1506 c-5 -14 67 -96 85 -96 5 0 11 -9 14 -21 4 -13 12 -20 24
-17 14 2 18 13 18 43 0 36 -3 40 -26 43 -15 2 -39 16 -55 33 -30 32 -52 37
-60 15z"/>
</g>
<g>
<path d="M5877 1253 c-4 -3 -7 -57 -7 -119 0 -93 3 -113 16 -118 29 -11 34 4
34 100 0 74 3 94 14 94 16 0 29 27 20 41 -6 10 -67 12 -77 2z"/>
</g>
<g>
<path d="M9690 1226 c0 -26 7 -41 30 -59 17 -14 30 -35 30 -47 0 -15 11 -25
35 -36 19 -8 35 -19 35 -24 0 -15 47 -12 52 3 7 16 -1 37 -14 37 -13 0 -47 41
-48 58 0 21 -81 102 -101 102 -15 0 -19 -7 -19 -34z"/>
</g>
<g>
<path d="M9892 1038 c2 -15 10 -23 23 -23 13 0 21 8 23 23 3 18 -1 22 -23 22
-22 0 -26 -4 -23 -22z"/>
</g>
<g>
<path d="M5910 981 c-16 -30 -13 -193 4 -216 12 -16 16 -17 30 -6 13 11 16 34
16 111 0 54 -3 105 -6 114 -8 22 -31 20 -44 -3z"/>
</g>
<g>
<path d="M10072 872 c-20 -3 -23 -9 -20 -40 3 -34 6 -37 36 -40 26 -3 34 1 41
20 15 41 -10 68 -57 60z"/>
</g>
<g>
<path d="M5913 724 c-8 -21 13 -42 28 -27 13 13 5 43 -11 43 -6 0 -13 -7 -17
-16z"/>
</g>
<g>
<path d="M9013 594 c-9 -24 7 -32 78 -36 73 -3 109 13 88 38 -17 21 -158 19
-166 -2z"/>
</g>
</g>
<g>
<path d="M10875 7018 c-3 -7 -4 -1523 -3 -3368 l3 -3355 4412 -2 c3964 -2
4414 -1 4428 13 13 14 15 359 15 3356 0 2457 -3 3345 -11 3354 -16 20 -8837
21 -8844 2z m8775 -1210 c0 -4736 -1 -5452 -9 -5457 -5 -3 -1969 -5 -4365 -3
l-4356 2 0 3315 0 3315 4365 0 4365 0 0 -1172z"/>
<g>
<path d="M14887 6663 c-13 -12 -7 -60 8 -73 8 -7 15 -27 15 -45 0 -19 8 -39
20 -50 16 -14 20 -33 22 -109 3 -86 4 -91 26 -94 33 -5 52 15 52 54 0 19 5 34
10 34 6 0 10 -23 10 -50 0 -45 -4 -54 -35 -83 -27 -25 -35 -40 -35 -67 0 -30
-9 -44 -50 -85 -47 -47 -50 -52 -50 -101 0 -47 3 -55 33 -79 17 -15 34 -39 37
-54 4 -22 11 -27 50 -31 34 -4 46 -10 48 -24 2 -10 -3 -23 -12 -28 -20 -11
-21 -32 -1 -48 8 -7 15 -21 15 -33 0 -11 16 -35 35 -53 29 -27 34 -38 29 -59
-7 -29 10 -55 35 -55 21 0 55 -38 61 -70 3 -17 12 -25 25 -25 29 0 33 55 5 80
-15 13 -20 30 -20 67 0 34 -5 50 -15 54 -8 4 -15 16 -15 29 0 25 -15 41 -45
47 -11 2 -21 13 -23 25 -2 12 -10 27 -18 33 -8 8 -14 30 -14 56 0 32 -4 44
-15 44 -12 0 -15 15 -15 73 0 70 1 74 35 107 26 25 35 43 35 66 0 17 7 37 16
44 35 30 -5 98 -43 74 -14 -9 -19 -27 -21 -82 -3 -70 -3 -71 -52 -118 -45 -44
-48 -49 -34 -65 16 -18 27 -86 14 -94 -4 -2 -24 14 -44 36 -47 52 -49 93 -6
135 16 16 30 36 30 45 0 20 20 39 42 39 14 0 18 8 18 43 0 56 9 87 26 87 10 0
14 16 14 63 -1 55 -4 65 -30 91 -17 16 -30 38 -30 48 0 10 -16 33 -35 51 -27
25 -35 40 -35 67 0 47 -51 105 -73 83z"/>
</g>
<g>
<path d="M17070 6452 c0 -32 5 -54 15 -62 8 -7 15 -29 15 -49 0 -31 7 -43 35
-67 34 -28 35 -31 35 -99 0 -69 0 -70 46 -116 39 -40 43 -47 30 -59 -9 -7 -16
-25 -16 -41 0 -24 4 -29 25 -29 21 0 25 5 25 29 0 20 6 30 20 34 25 6 26 35 3
44 -29 11 -52 46 -53 79 0 17 -7 37 -15 44 -9 8 -15 29 -15 56 0 33 -5 46 -20
54 -12 6 -20 21 -20 36 0 13 -7 27 -16 31 -8 3 -13 12 -10 20 3 7 -3 22 -14
33 -11 11 -20 36 -22 62 -2 36 -7 44 -25 46 -21 3 -23 0 -23 -46z"/>
</g>
<g>
<path d="M15512 6462 c-25 -25 -19 -68 11 -74 45 -8 57 1 57 43 0 21 -4 39 -9
39 -5 0 -16 3 -24 6 -9 3 -24 -3 -35 -14z"/>
</g>
<g>
<path d="M11622 6458 c-19 -19 -14 -56 8 -68 15 -8 20 -21 20 -51 0 -26 5 -42
15 -45 8 -4 15 -16 15 -29 0 -12 9 -30 20 -40 18 -16 19 -26 14 -79 -6 -57 -4
-63 23 -93 22 -25 32 -29 46 -22 21 12 23 57 2 65 -8 4 -15 12 -15 19 0 7 7
15 15 19 23 8 20 81 -4 98 -10 8 -21 25 -23 38 -2 19 -11 26 -32 30 -28 5 -29
6 -13 22 23 22 22 26 -13 60 -16 15 -30 35 -30 42 0 41 -24 58 -48 34z"/>
</g>
<g>
<path d="M12866 6361 c-26 -28 -17 -66 14 -66 21 0 26 5 28 31 4 42 -19 61
-42 35z"/>
</g>
<g>
<path d="M15574 6327 c-3 -9 -4 -28 -2 -44 2 -20 8 -28 23 -28 17 0 20 7 20
40 0 30 -4 41 -18 43 -9 2 -20 -3 -23 -11z"/>
</g>
<g>
<path d="M12897 6264 c-4 -4 -7 -36 -7 -71 0 -47 4 -65 15 -69 9 -4 15 -20 15
-43 1 -24 9 -45 25 -63 30 -35 42 -35 57 -3 9 20 8 28 -6 44 -15 16 -15 22 -5
39 11 18 10 24 -4 40 -9 10 -17 26 -17 34 0 9 -6 21 -14 28 -8 6 -16 23 -18
38 -3 26 -26 40 -41 26z"/>
</g>
<g>
<path d="M14272 6228 c-17 -17 -15 -83 3 -98 11 -9 15 -33 15 -86 0 -70 1 -74
30 -94 17 -12 37 -19 45 -16 22 8 18 50 -5 71 -16 15 -20 31 -20 85 0 37 -5
71 -12 78 -8 8 -8 15 2 26 27 34 -27 65 -58 34z"/>
</g>
<g>
<path d="M15600 6225 c-16 -19 -4 -35 25 -35 28 0 38 12 29 34 -8 20 -38 21
-54 1z"/>
</g>
<g>
<path d="M15637 6093 c-4 -3 -7 -39 -7 -80 0 -56 4 -75 15 -79 9 -4 15 -19 15
-38 0 -18 7 -41 15 -52 8 -10 15 -28 15 -40 0 -30 32 -58 48 -42 17 17 15 68
-3 74 -10 4 -15 20 -15 48 0 30 -5 44 -20 54 -11 7 -20 18 -20 25 0 7 9 20 20
30 11 9 20 22 20 28 0 6 -9 13 -20 16 -14 4 -20 14 -20 34 0 21 -5 29 -18 29
-10 0 -22 -3 -25 -7z"/>
</g>
<g>
<path d="M11792 5998 c-17 -17 -15 -53 3 -68 8 -7 15 -23 15 -36 0 -12 5 -26
10 -29 12 -8 42 -70 50 -105 4 -18 12 -25 30 -25 23 0 25 4 28 48 2 35 -1 49
-12 53 -9 3 -16 15 -16 26 0 12 -16 35 -35 54 -19 18 -35 41 -35 52 0 27 -23
45 -38 30z"/>
</g>
<g>
<path d="M12997 5973 c-13 -12 -7 -71 8 -83 8 -7 15 -29 15 -49 0 -28 7 -43
31 -64 17 -15 35 -24 40 -21 15 9 10 71 -6 84 -8 7 -15 23 -15 35 0 13 -7 25
-15 29 -8 3 -15 16 -15 29 0 33 -26 57 -43 40z"/>
</g>
<g>
<path d="M18282 5898 c-7 -7 -12 -36 -12 -65 0 -42 4 -54 20 -63 13 -7 20 -21
20 -41 0 -33 17 -44 55 -35 28 7 32 27 10 46 -10 8 -15 31 -15 66 0 44 -5 58
-25 79 -29 28 -36 30 -53 13z"/>
</g>
<g>
<path d="M14356 5831 c-10 -16 5 -41 24 -41 16 0 30 18 30 41 0 12 -47 12 -54
0z"/>
</g>
<g>
<path d="M17271 5807 c-25 -25 -7 -81 25 -75 27 5 31 59 6 75 -15 9 -22 9 -31
0z"/>
</g>
<g>
<path d="M14393 5764 c-3 -9 6 -27 26 -46 22 -22 31 -40 31 -64 0 -20 8 -40
19 -51 11 -10 21 -29 23 -43 2 -17 9 -25 23 -25 17 0 20 8 23 46 2 32 -2 50
-13 59 -8 7 -15 20 -15 30 0 10 -7 23 -15 30 -8 7 -15 22 -15 34 0 12 -5 27
-12 34 -17 17 -67 15 -75 -4z"/>
</g>
<g>
<path d="M13090 5701 c0 -28 4 -41 14 -41 40 0 48 73 9 78 -21 3 -23 -1 -23
-37z"/>
</g>
<g>
<path d="M15733 5724 c-3 -8 -1 -20 5 -26 16 -16 42 -2 42 22 0 24 -38 28 -47
4z"/>
</g>
<g>
<path d="M15772 5668 c-16 -16 -15 -93 1 -107 24 -19 49 20 45 70 -3 46 -22
61 -46 37z"/>
</g>
<g>
<path d="M18349 5656 c-10 -20 -9 -30 5 -50 9 -14 16 -34 16 -45 0 -11 9 -25
20 -31 15 -8 20 -21 20 -51 0 -26 5 -42 15 -45 11 -5 15 -23 15 -75 0 -56 4
-76 22 -99 25 -34 58 -40 58 -11 0 10 -7 24 -15 31 -20 16 -19 74 1 90 9 8 14
25 12 44 -2 25 -8 32 -30 34 -25 3 -28 7 -28 42 0 29 -5 42 -20 50 -13 7 -20
21 -20 40 0 17 -4 30 -8 30 -4 0 -12 14 -17 32 -13 41 -32 47 -46 14z"/>
</g>
<g>
<path d="M11910 5615 c0 -20 5 -25 25 -25 20 0 25 5 25 25 0 20 -5 25 -25 25
-20 0 -25 -5 -25 -25z"/>
</g>
<g>
<path d="M13114 5627 c-3 -8 -4 -32 -2 -53 3 -34 6 -39 28 -39 23 0 25 3 25
50 0 44 -3 50 -23 53 -13 2 -24 -3 -28 -11z"/>
</g>
<g>
<path d="M16710 5606 c0 -18 7 -39 15 -46 8 -7 15 -26 15 -43 0 -17 7 -39 17
-49 12 -13 16 -35 14 -81 -1 -71 4 -84 39 -88 19 -3 26 -11 30 -34 7 -38 37
-46 49 -13 6 17 4 30 -10 50 -14 19 -19 44 -19 90 0 69 -10 88 -48 88 -23 0
-24 3 -19 36 5 27 1 40 -14 55 -10 10 -19 30 -19 44 0 20 -5 25 -25 25 -22 0
-25 -4 -25 -34z"/>
</g>
<g>
<path d="M13157 5514 c-4 -4 -7 -16 -7 -26 0 -13 7 -18 26 -18 21 0 25 4 22
22 -3 23 -27 35 -41 22z"/>
</g>
<g>
<path d="M14532 5508 c-16 -16 -15 -33 1 -47 11 -8 18 -7 31 7 15 18 15 20 -2
35 -14 13 -21 14 -30 5z"/>
</g>
<g>
<path d="M12659 5363 c-3 -45 4 -79 17 -89 8 -7 14 -29 14 -52 0 -31 5 -44 20
-52 11 -6 20 -21 20 -34 0 -13 7 -29 15 -36 8 -7 15 -23 15 -35 0 -13 7 -25
15 -29 8 -3 15 -17 15 -31 0 -14 7 -28 15 -31 11 -5 15 -22 15 -64 0 -70 14
-112 33 -104 8 3 24 19 37 36 22 30 23 33 7 61 -10 16 -17 37 -17 47 0 11 -9
24 -20 30 -11 6 -20 21 -20 34 0 13 -7 29 -15 36 -8 7 -15 27 -15 45 0 23 -10
42 -35 68 -26 27 -35 45 -35 70 0 18 -5 38 -12 45 -6 6 -12 31 -12 54 -1 39
-3 43 -28 46 -21 3 -28 -1 -29 -15z"/>
</g>
<g>
<path d="M16877 5173 c-4 -3 -7 -26 -7 -49 0 -33 5 -46 20 -54 16 -9 20 -21
20 -64 0 -34 5 -58 14 -66 8 -6 16 -24 18 -38 2 -19 9 -27 23 -27 17 0 20 8
23 53 2 36 -2 62 -12 78 -9 13 -16 32 -16 43 0 11 -9 25 -20 31 -15 8 -20 21
-20 55 0 37 -3 45 -18 45 -10 0 -22 -3 -25 -7z"/>
</g>
<g>
<path d="M17817 5073 c-14 -14 -6 -53 13 -63 17 -9 20 -21 20 -71 0 -44 4 -61
15 -65 9 -4 15 -19 15 -38 0 -18 6 -41 14 -51 11 -16 11 -22 -3 -46 -15 -26
-14 -29 7 -58 12 -17 22 -41 22 -55 0 -33 20 -44 37 -21 17 25 17 60 -2 75
-19 16 -19 47 0 67 14 14 14 17 0 32 -9 11 -15 36 -15 63 0 56 -7 78 -26 78
-10 0 -14 13 -14 44 0 27 -6 48 -15 56 -8 7 -15 18 -14 24 3 27 -3 36 -24 36
-13 0 -27 -3 -30 -7z"/>
</g>
<g>
<path d="M14614 4993 c-6 -22 -1 -32 29 -60 20 -18 41 -33 47 -33 12 0 13 47
1 54 -4 3 -11 19 -14 36 -5 24 -12 30 -32 30 -18 0 -26 -7 -31 -27z"/>
</g>
<g>
<path d="M14697 4853 c-10 -10 -8 -131 2 -137 5 -3 12 -31 16 -61 4 -34 12
-58 21 -62 8 -3 14 -16 14 -29 0 -14 7 -27 15 -30 9 -4 15 -19 15 -38 0 -17 6
-41 14 -52 8 -11 16 -31 18 -44 2 -19 9 -25 28 -25 21 0 26 5 28 33 2 19 -4
44 -12 57 -9 14 -16 33 -16 44 0 11 -9 25 -20 31 -11 6 -20 21 -20 34 0 13 -7
29 -15 36 -9 8 -15 30 -15 57 0 30 -5 45 -15 49 -11 5 -15 22 -15 63 0 63 -20
97 -43 74z"/>
</g>
<g>
<path d="M16988 4849 c-12 -7 -18 -22 -18 -47 0 -26 -7 -43 -22 -56 -21 -18
-21 -19 -3 -32 27 -20 40 -17 80 17 27 24 35 39 35 64 0 52 -33 77 -72 54z"/>
</g>
<g>
<path d="M12866 4777 c-16 -12 -16 -14 3 -31 14 -13 21 -31 21 -56 0 -21 7
-43 15 -50 8 -7 15 -21 15 -32 0 -27 40 -78 61 -78 13 0 20 11 24 34 7 35 -7
76 -26 76 -6 0 -9 7 -5 15 3 9 -3 19 -14 25 -12 7 -20 22 -21 38 0 38 -49 76
-73 59z"/>
</g>
<g>
<path d="M16250 4606 c0 -32 13 -46 41 -46 5 0 9 18 9 40 0 36 -2 40 -25 40
-22 0 -25 -4 -25 -34z"/>
</g>
<g>
<path d="M17957 4574 c-14 -14 -8 -121 8 -134 8 -7 15 -27 15 -44 0 -17 8 -42
17 -56 11 -16 16 -39 14 -71 -2 -39 1 -49 18 -59 27 -14 27 -41 0 -63 -15 -14
-19 -27 -17 -60 3 -35 7 -43 30 -51 45 -16 58 4 58 94 0 60 -3 79 -15 84 -12
4 -15 24 -15 89 0 71 -3 87 -20 102 -15 14 -20 33 -22 94 l-3 76 -30 3 c-17 2
-34 0 -38 -4z"/>
</g>
<g>
<path d="M16286 4525 c-8 -23 4 -65 19 -65 20 0 37 27 33 52 -4 28 -42 37 -52
13z"/>
</g>
<g>
<path d="M16319 4404 c-11 -14 -10 -18 5 -29 33 -24 62 5 34 33 -16 16 -23 15
-39 -4z"/>
</g>
<g>
<path d="M13770 4360 c0 -11 7 -23 15 -26 9 -4 15 -19 15 -40 0 -21 8 -42 20
-54 25 -25 25 -44 -1 -61 -18 -12 -18 -16 -6 -33 13 -18 14 -18 33 2 10 11 30
22 44 24 20 2 26 10 28 35 3 25 -3 36 -27 54 -17 13 -31 32 -31 43 0 25 -48
76 -72 76 -11 0 -18 -7 -18 -20z"/>
</g>
<g>
<path d="M12605 4344 c-18 -13 -18 -15 3 -37 18 -20 22 -35 22 -95 0 -55 4
-74 15 -78 10 -4 15 -19 15 -43 0 -48 17 -67 42 -44 24 22 23 75 -2 98 -16 15
-20 31 -20 87 0 63 -3 72 -28 98 -25 24 -30 26 -47 14z"/>
</g>
<g>
<path d="M16357 4343 c-4 -3 -7 -28 -7 -55 0 -34 5 -50 15 -54 12 -5 15 -30
15 -137 0 -109 3 -134 17 -149 10 -12 16 -32 15 -53 -2 -25 3 -37 18 -45 11
-6 20 -20 20 -32 0 -12 12 -35 27 -50 22 -23 25 -32 17 -46 -17 -27 -5 -42 32
-42 32 0 34 2 34 35 0 22 -6 38 -15 41 -10 4 -15 20 -15 45 0 30 -7 45 -30 67
-22 22 -30 38 -30 64 0 21 -7 41 -19 52 -16 15 -18 28 -13 129 4 105 3 113
-17 131 -15 14 -21 31 -21 63 0 35 -3 43 -18 43 -10 0 -22 -3 -25 -7z"/>
</g>
<g>
<path d="M14857 4314 c-4 -4 -7 -16 -7 -26 0 -13 7 -18 26 -18 21 0 25 4 22
22 -3 23 -27 35 -41 22z"/>
</g>
<g>
<path d="M13838 4096 c-10 -22 -8 -29 9 -49 12 -12 23 -33 25 -47 2 -20 9 -26
36 -28 37 -4 56 23 29 43 -9 6 -17 30 -19 56 -3 42 -5 44 -35 47 -27 3 -35 -1
-45 -22z"/>
</g>
<g>
<path d="M12693 4004 c-3 -8 -1 -20 5 -26 16 -16 42 -2 42 22 0 24 -38 28 -47
4z"/>
</g>
<g>
<path d="M12737 3954 c-10 -11 -9 -102 2 -108 21 -13 51 -95 51 -139 0 -33 5
-49 18 -57 16 -10 16 -10 0 -20 -23 -14 -23 -36 -1 -49 12 -6 16 -20 15 -44
-2 -21 3 -39 13 -47 8 -7 15 -20 15 -29 0 -10 7 -26 15 -37 15 -19 15 -19 30
0 9 12 15 41 15 71 0 39 -4 53 -20 63 -18 11 -19 19 -14 81 6 63 5 70 -15 80
-12 7 -21 21 -21 35 0 13 -7 29 -15 36 -8 7 -15 27 -15 45 0 18 -6 38 -14 45
-8 6 -16 26 -18 43 -3 30 -25 47 -41 31z"/>
</g>
<g>
<path d="M13907 3913 c-4 -3 -1 -16 7 -28 8 -12 16 -32 18 -46 2 -16 9 -24 23
-24 17 0 20 8 23 53 l3 52 -34 0 c-18 0 -37 -3 -40 -7z"/>
</g>
<g>
<path d="M15370 3906 c-6 -8 -21 -16 -33 -18 -32 -4 -30 -42 3 -46 29 -3 87
49 76 67 -10 15 -31 14 -46 -3z"/>
</g>
<g>
<path d="M15443 3905 c-3 -9 -3 -18 0 -22 10 -10 37 6 37 22 0 20 -29 20 -37
0z"/>
</g>
<g>
<path d="M15517 3883 c-4 -3 -7 -23 -7 -44 0 -43 -16 -59 -34 -34 -16 22 -91
18 -91 -5 0 -11 13 -16 48 -18 l47 -3 0 -38 c0 -28 -7 -44 -29 -65 -36 -34
-71 -29 -71 10 0 19 -8 28 -29 35 -26 9 -30 16 -33 52 -2 34 -7 42 -23 42 -17
0 -20 -8 -23 -53 -3 -51 -2 -54 43 -97 29 -29 55 -45 70 -45 16 0 25 -6 25
-15 0 -9 -9 -15 -23 -15 -32 0 -67 -40 -67 -77 0 -17 -8 -37 -20 -48 -13 -12
-20 -31 -20 -57 0 -25 -5 -41 -15 -44 -10 -4 -15 -20 -15 -47 0 -34 -6 -46
-40 -79 -23 -21 -49 -38 -59 -38 -10 0 -24 -7 -31 -15 -7 -8 -22 -15 -34 -15
-13 0 -35 -14 -52 -35 -23 -28 -36 -35 -65 -35 -20 0 -42 -7 -49 -15 -7 -8
-29 -15 -49 -15 -30 0 -42 -6 -60 -30 -30 -41 -25 -74 12 -78 16 -2 31 -10 34
-18 7 -18 -14 -44 -36 -44 -9 -1 -26 -9 -38 -19 -20 -17 -23 -29 -23 -89 0
-56 -4 -72 -20 -87 -13 -11 -20 -31 -20 -52 0 -19 -6 -41 -14 -48 -9 -10 -12
-28 -9 -58 4 -36 1 -49 -16 -66 -14 -14 -21 -34 -21 -61 0 -29 -4 -40 -15 -40
-11 0 -15 12 -15 44 0 26 -6 48 -15 56 -20 16 -19 39 2 63 17 18 17 19 0 32
-15 11 -15 14 -2 25 10 8 15 31 15 71 0 48 4 60 20 69 15 8 20 21 20 49 0 22
6 44 15 51 8 7 15 23 15 36 0 14 6 24 14 24 20 0 26 78 8 96 -21 21 -32 7 -32
-39 0 -32 -5 -45 -21 -55 -15 -10 -19 -20 -15 -37 5 -21 2 -24 -26 -27 -31 -3
-33 -6 -36 -45 -2 -23 -10 -47 -18 -53 -11 -10 -14 -42 -14 -151 0 -128 1
-139 20 -149 14 -8 20 -21 20 -45 0 -24 -6 -37 -20 -45 -27 -14 -26 -56 1 -71
19 -10 21 -17 15 -59 -8 -59 0 -80 29 -80 24 0 50 24 41 38 -3 5 1 18 9 28 8
10 15 32 15 47 0 22 4 28 18 25 12 -2 18 -15 20 -43 2 -22 11 -48 19 -57 13
-15 15 -37 10 -132 -5 -104 -4 -116 14 -132 17 -15 18 -26 13 -83 -4 -38 -13
-74 -23 -84 -14 -17 -14 -20 2 -32 12 -9 17 -26 17 -61 0 -31 7 -59 17 -74 10
-14 18 -31 20 -39 1 -8 37 -50 80 -93 l78 -78 197 0 c187 0 198 1 208 20 8 14
21 20 48 20 30 0 46 8 80 40 23 22 42 44 42 49 0 6 15 11 33 13 30 3 32 5 35
48 2 26 10 48 18 53 8 5 14 23 14 46 0 26 5 41 16 45 13 5 15 33 13 202 -1
156 1 198 12 205 22 14 38 10 49 -11 6 -12 21 -20 35 -20 24 0 25 -3 25 -58 0
-51 4 -62 29 -86 19 -18 37 -26 52 -24 31 4 37 34 9 43 -21 7 -21 8 11 41 30
31 32 37 20 56 -10 16 -10 23 -2 26 6 2 11 14 11 26 0 13 9 31 20 41 13 12 20
31 20 56 0 28 -5 41 -20 49 -25 13 -25 28 -1 54 29 32 34 83 12 105 -11 11
-21 30 -23 43 -3 24 -34 35 -65 24 -14 -6 -13 -10 6 -29 26 -29 31 -124 6
-133 -21 -9 -21 -90 1 -98 10 -4 14 -15 12 -33 -2 -22 -9 -29 -30 -31 -26 -3
-28 -1 -28 37 0 22 -7 46 -15 55 -18 18 -19 40 -3 66 10 16 10 24 0 40 -6 11
-12 32 -12 46 0 16 -14 42 -36 66 -27 31 -34 46 -32 71 2 27 8 33 31 35 15 2
27 -1 27 -7 0 -5 12 -22 26 -36 21 -21 29 -24 40 -14 8 7 14 24 12 38 -2 21
-9 27 -35 29 -21 2 -33 9 -33 18 0 8 -4 14 -9 14 -5 0 -25 16 -44 35 -19 19
-43 35 -54 35 -10 0 -27 10 -38 23 -19 21 -21 26 -24 55 0 6 -12 12 -24 12
-13 0 -32 9 -43 21 -13 15 -26 19 -46 15 -17 -3 -33 0 -42 9 -8 8 -22 15 -30
15 -9 0 -25 9 -36 20 -13 13 -33 20 -58 20 -31 0 -43 6 -60 30 -12 16 -22 36
-22 44 0 8 -8 20 -17 25 -17 10 -17 12 2 26 16 13 20 28 21 87 1 44 6 74 13
76 6 2 11 14 11 26 0 12 16 37 35 56 31 30 35 40 35 84 0 32 6 56 17 68 15 17
15 19 -2 38 -16 18 -16 20 -1 26 11 4 16 19 16 50 0 53 17 58 53 14 14 -16 34
-30 44 -30 10 0 26 -9 36 -20 26 -30 80 -27 112 7 14 15 25 31 25 35 0 5 7 8
15 8 8 0 15 5 15 11 0 7 8 18 17 24 17 13 17 14 0 32 -16 18 -15 21 18 53 54
53 49 82 -28 158 -37 37 -71 62 -84 62 -11 0 -23 7 -27 15 -5 15 -76 22 -89 8z
m83 -53 c0 -5 -4 -10 -10 -10 -5 0 -10 5 -10 10 0 6 5 10 10 10 6 0 10 -4 10
-10z m54 -16 c9 -3 16 -14 16 -23 0 -10 7 -26 15 -37 8 -10 15 -29 15 -42 0
-20 -4 -23 -27 -20 -22 2 -29 9 -31 31 -4 32 -15 34 -42 7 -14 -14 -20 -33
-20 -65 0 -41 2 -45 24 -45 13 0 29 7 36 15 20 24 30 17 30 -22 0 -58 -30 -83
-102 -83 l-59 0 3 93 3 92 28 3 c16 2 31 10 34 18 3 8 11 14 19 14 9 0 14 11
14 28 0 40 11 49 44 36z m-376 -587 c2 -19 -1 -27 -12 -27 -11 0 -16 10 -16
31 0 38 24 35 28 -4z m-33 -113 c0 -31 -4 -39 -20 -42 -28 -6 -45 -21 -45 -42
0 -10 -7 -23 -15 -30 -8 -7 -15 -23 -15 -37 0 -13 -7 -26 -15 -29 -23 -9 -21
-152 3 -170 16 -13 16 -15 0 -28 -14 -10 -18 -28 -18 -81 0 -53 4 -71 18 -81
16 -13 16 -15 0 -27 -9 -7 -18 -24 -20 -37 -3 -23 -8 -25 -58 -28 -33 -2 -62
-10 -73 -20 -18 -16 -20 -16 -31 0 -8 11 -17 14 -26 8 -11 -7 -9 -14 13 -34
23 -21 38 -26 100 -28 l72 -3 3 -62 c3 -70 13 -77 46 -36 15 20 21 42 21 78 0
38 4 50 15 50 10 0 16 -13 18 -42 2 -29 8 -43 17 -43 9 0 15 14 17 43 l3 42
108 3 c89 2 108 0 113 -13 4 -10 19 -15 44 -15 46 0 50 -5 56 -73 3 -32 11
-55 20 -60 14 -8 14 -11 1 -25 -8 -10 -17 -26 -19 -37 -5 -28 -31 -25 -38 5
-7 31 -35 37 -62 14 -18 -18 -20 -18 -29 -1 -8 14 -26 17 -111 17 -90 0 -104
-2 -124 -21 -23 -21 -33 -21 -66 3 -14 10 -20 9 -36 -5 -13 -12 -36 -17 -78
-17 -56 0 -62 2 -91 35 -29 33 -35 35 -92 35 -45 0 -61 4 -61 14 0 8 -7 16
-15 20 -25 9 -17 25 17 34 22 6 34 16 38 32 3 15 15 26 30 30 29 7 36 23 15
40 -21 17 -19 47 5 60 11 6 20 19 20 30 0 10 20 38 45 62 l45 43 0 102 c0 77
4 105 15 117 8 8 15 23 15 34 0 11 7 25 15 32 10 8 15 30 15 65 0 39 5 56 20
70 11 10 20 26 20 35 0 9 9 25 21 36 16 15 24 16 39 6 27 -17 59 -15 67 3 10
28 28 9 28 -31z m-246 -107 c19 -21 20 -25 6 -37 -8 -7 -15 -19 -15 -27 0 -8
-9 -26 -20 -40 -16 -21 -20 -41 -20 -108 0 -64 -3 -84 -15 -89 -8 -3 -15 -14
-15 -24 0 -10 -9 -27 -20 -37 -11 -10 -20 -28 -20 -39 0 -12 -7 -30 -15 -40
-8 -11 -15 -26 -15 -33 0 -8 -13 -27 -30 -43 -16 -16 -30 -37 -30 -47 -1 -36
-58 -83 -61 -50 -5 39 5 104 17 118 8 9 14 37 14 64 0 34 5 52 18 61 15 11 15
16 4 34 -12 19 -11 25 5 43 10 12 24 26 31 30 6 4 12 16 12 26 0 10 7 24 15
31 9 8 15 29 15 55 0 29 5 45 15 49 8 3 15 14 15 24 0 23 19 42 42 42 12 0 18
8 18 23 0 43 17 47 49 14z m301 -171 c18 -19 42 -36 54 -38 14 -2 22 -12 24
-28 2 -13 10 -29 17 -35 8 -5 15 -28 17 -50 3 -36 6 -40 33 -45 23 -4 31 -11
33 -30 2 -14 10 -32 19 -42 8 -9 13 -30 11 -50 l-3 -33 -118 -3 c-157 -4 -166
2 -167 109 0 59 3 78 15 83 22 8 20 82 -2 95 -16 9 -16 13 -5 32 10 15 11 24
3 32 -18 18 -12 37 12 37 13 0 37 -15 57 -34z m-90 -111 c0 -10 -10 -15 -30
-15 -20 0 -30 5 -30 15 0 10 10 15 30 15 20 0 30 -5 30 -15z m303 -39 c3 -8
18 -16 34 -18 21 -2 29 -9 31 -28 5 -32 27 -57 60 -65 37 -9 56 -42 62 -105 4
-45 9 -55 25 -58 38 -7 45 -22 45 -92 0 -51 4 -69 15 -74 10 -3 15 -19 15 -45
0 -25 5 -41 15 -45 8 -3 15 -12 15 -21 0 -19 -43 -20 -60 -1 -6 8 -21 16 -33
18 -12 2 -23 12 -25 23 -2 11 -19 36 -38 56 -26 27 -34 43 -32 67 1 18 -5 39
-15 50 -9 10 -17 35 -17 55 0 26 -6 39 -20 47 -16 9 -20 21 -20 63 0 46 -4 57
-30 82 -16 16 -30 39 -30 51 0 12 -7 24 -15 28 -8 3 -15 10 -15 16 0 15 27 12
33 -4z m186 -58 c41 -45 44 -64 8 -52 -28 9 -98 75 -91 86 12 19 46 5 83 -34z
m-905 -363 c3 -8 14 -15 24 -15 11 0 25 -6 32 -14 6 -8 24 -16 38 -18 16 -2
27 -9 27 -18 0 -11 -14 -16 -53 -18 -44 -3 -57 1 -77 20 -14 13 -25 32 -25 44
0 34 23 47 34 19z m584 -82 c-3 -29 -25 -40 -55 -29 -13 5 -12 10 8 30 33 33
51 32 47 -1z m259 -100 c-4 -54 -7 -157 -7 -230 l0 -132 -27 -3 c-25 -3 -28
-8 -31 -43 -2 -23 -12 -49 -24 -62 -14 -15 -19 -31 -16 -52 4 -25 -1 -34 -21
-48 -58 -38 -97 -53 -143 -53 -34 0 -50 -5 -54 -15 -5 -12 -31 -15 -144 -15
-113 0 -139 3 -144 15 -3 10 -19 15 -47 15 -48 0 -79 22 -79 55 0 13 -7 28
-15 35 -8 7 -15 27 -15 45 0 19 -8 39 -20 50 -19 17 -20 31 -20 206 0 178 -1
189 -20 199 -20 11 -27 51 -14 84 8 21 100 22 123 2 12 -11 72 -15 265 -18
232 -4 250 -3 265 14 20 23 103 25 121 3 21 -25 40 -18 40 15 0 21 5 30 17 30
14 0 15 -11 10 -97z"/>
<g>
<path d="M14867 2083 c-20 -19 -5 -33 38 -33 25 0 45 -4 45 -8 0 -17 -48 -54
-55 -43 -14 23 -36 12 -33 -16 3 -25 7 -28 46 -31 31 -2 44 1 48 12 3 9 12 16
20 16 8 0 14 6 14 14 0 8 7 16 15 20 24 9 18 36 -8 36 -13 0 -32 9 -42 20 -18
19 -74 28 -88 13z"/>
</g>
</g>
<g>
<path d="M13977 3793 c-14 -13 -7 -72 9 -81 12 -7 15 -18 11 -38 -6 -33 7 -64
28 -64 43 0 40 116 -4 163 -27 28 -33 31 -44 20z"/>
</g>
<g>
<path d="M16486 3651 c-14 -21 6 -42 38 -39 23 2 31 8 31 23 0 15 -8 21 -32
23 -17 2 -34 -1 -37 -7z"/>
</g>
<g>
<path d="M16330 3055 c-7 -8 -23 -15 -35 -15 -43 0 -47 -23 -9 -59 40 -40 45
-71 11 -71 -35 0 -47 -19 -47 -77 0 -39 4 -54 17 -62 13 -7 20 -5 29 7 11 15
14 15 31 -1 26 -23 55 -22 71 4 10 15 19 19 40 14 21 -4 35 1 60 23 18 16 32
38 32 49 0 12 7 23 15 27 9 3 15 18 15 40 0 21 -6 36 -15 40 -8 3 -15 17 -15
31 0 33 -26 44 -45 19 -14 -18 -15 -18 -42 14 -22 25 -36 32 -65 32 -19 0 -41
-7 -48 -15z m125 -75 c4 -12 15 -20 30 -20 40 0 41 -44 1 -51 -19 -4 -30 -18
-40 -51 -4 -13 -16 -18 -39 -18 -19 0 -40 -7 -47 -15 -7 -8 -16 -12 -21 -9
-15 9 -10 71 6 84 9 7 15 29 15 50 0 41 8 48 57 49 23 1 33 -4 38 -19z"/>
<g>
<path d="M16394 2956 c-9 -23 0 -51 16 -51 10 0 15 10 15 29 0 32 -21 47 -31
22z"/>
</g>
</g>
<g>
<path d="M16132 1948 c-5 -7 -11 -22 -13 -33 -3 -11 -15 -22 -29 -25 -23 -5
-25 -10 -28 -77 l-3 -72 28 -3 c18 -2 29 -10 31 -23 6 -30 22 -45 47 -45 13 0
25 -7 29 -15 7 -19 50 -19 66 -1 6 8 24 16 38 18 21 2 28 9 30 29 2 14 19 41
38 60 27 26 34 41 34 70 0 54 -40 99 -87 99 -22 0 -41 7 -48 17 -12 17 -14 17
-35 -2 -21 -19 -23 -19 -35 -2 -14 20 -48 22 -63 5z m96 -65 c-24 -4 -28 -9
-28 -37 0 -19 7 -39 15 -46 8 -7 15 -20 15 -30 0 -10 7 -23 16 -31 14 -11 13
-15 -8 -31 -30 -23 -38 -22 -38 1 0 11 -16 36 -35 55 -46 48 -49 99 -7 114 15
6 43 10 62 10 29 -1 30 -2 8 -5z m114 -36 c-15 -15 -22 -36 -22 -61 0 -35 -2
-37 -27 -34 -27 3 -28 6 -31 61 l-3 57 52 0 52 0 -21 -23z"/>
</g>
<g>
<path d="M16885 1866 c-11 -9 -34 -16 -50 -16 -34 0 -55 -15 -55 -40 0 -8 -9
-23 -20 -33 -11 -9 -20 -24 -20 -32 0 -8 -6 -24 -12 -35 -11 -17 -8 -24 20
-53 22 -22 32 -43 32 -63 0 -46 15 -54 106 -54 92 0 107 9 102 62 -3 28 0 33
20 36 13 2 43 24 67 48 50 50 59 90 26 123 -11 11 -21 30 -23 43 -3 22 -8 23
-88 26 -64 2 -90 -1 -105 -12z m93 -68 c2 -28 -3 -42 -23 -62 -24 -24 -33 -27
-93 -24 -41 2 -67 8 -70 16 -2 7 6 12 22 12 15 0 30 8 36 20 6 12 21 20 35 20
20 0 25 5 25 23 0 31 9 39 40 35 21 -3 25 -9 28 -40z m62 -66 c0 -13 -147
-152 -160 -152 -13 0 -60 41 -60 53 0 4 17 7 39 7 33 0 44 6 82 49 32 36 52
50 72 50 15 1 27 -3 27 -7z"/>
</g>
</g>
</g>
</svg>
