<?xml version="1.0" encoding="UTF-8" standalone="no"?>
<svg
   xmlns:dc="http://purl.org/dc/elements/1.1/"
   xmlns:cc="http://creativecommons.org/ns#"
   xmlns:rdf="http://www.w3.org/1999/02/22-rdf-syntax-ns#"
   xmlns:svg="http://www.w3.org/2000/svg"
   xmlns="http://www.w3.org/2000/svg"
   xmlns:sodipodi="http://sodipodi.sourceforge.net/DTD/sodipodi-0.dtd"
   xmlns:inkscape="http://www.inkscape.org/namespaces/inkscape"
   version="1.0"
   width="1306.760782pt"
   height="635.171576pt"
   viewBox="0 0 1306.760782 635.171576"
   preserveAspectRatio="xMidYMid meet"
   id="svg114"
   sodipodi:docname="picture-03.svg"
   inkscape:version="1.0.2 (e86c870879, 2021-01-15)">
  <defs
     id="defs118" />
  <sodipodi:namedview
     pagecolor="#ffffff"
     bordercolor="#666666"
     borderopacity="1"
     objecttolerance="10"
     gridtolerance="10"
     guidetolerance="10"
     inkscape:pageopacity="0"
     inkscape:pageshadow="2"
     inkscape:window-width="1920"
     inkscape:window-height="1030"
     id="namedview116"
     showgrid="false"
     inkscape:zoom="0.60226009"
     inkscape:cx="790.44795"
     inkscape:cy="564.54271"
     inkscape:window-x="0"
     inkscape:window-y="0"
     inkscape:window-maximized="1"
     inkscape:current-layer="g112" />
  <metadata
     id="metadata2">
Created by potrace 1.16, written by Peter Selinger 2001-2019
<rdf:RDF>
  <cc:Work
     rdf:about="">
    <dc:format>image/svg+xml</dc:format>
    <dc:type
       rdf:resource="http://purl.org/dc/dcmitype/StillImage" />
  </cc:Work>
</rdf:RDF>
</metadata>
  <g
     transform="translate(-159.213561,679.424638) scale(0.100000,-0.100000)"
     fill="#000000"
     stroke="none"
     id="g112">
    <g
       id="g6">
      <path
         d="M8990 6780 c-6 -11 -21 -20 -34 -20 -38 0 -38 -12 -2 -49 19 -20 36 -45 38 -56 3 -16 11 -20 48 -20 l45 0 3 47 c3 44 2 47 -25 50 -22 2 -29 9 -31 30 -4 33 -28 44 -42 18z"
         id="path4" />
    </g>
    <g
       id="g54">
      <path
         d="M8220 6775 c0 -9 -9 -15 -24 -15 -13 0 -29 -7 -36 -15 -8 -10 -31 -15 -65 -15 -37 0 -55 -4 -58 -14 -4 -10 -25 -16 -64 -18 -55 -3 -58 -4 -61 -30 -2 -19 -9 -28 -21 -28 -22 0 -41 -19 -41 -41 0 -10 -13 -21 -30 -28 l-30 -10 0 -150 0 -151 -30 0 -31 0 3 -77 3 -78 57 -3 c53 -3 57 -5 60 -30 3 -24 8 -27 45 -30 37 -3 42 -6 45 -30 2 -18 10 -28 28 -32 17 -4 26 -14 28 -30 2 -13 10 -29 17 -35 8 -5 15 -21 17 -35 2 -19 10 -26 31 -28 18 -2 27 -9 27 -21 0 -25 20 -41 53 -41 18 0 42 -11 64 -30 24 -21 44 -30 69 -30 46 0 41 -24 -7 -28 -19 -2 -42 -11 -51 -19 -14 -13 -32 -15 -91 -10 -80 7 -97 0 -97 -40 0 -20 -4 -22 -24 -17 -38 9 -64 -4 -68 -34 -3 -26 -6 -27 -73 -32 -64 -5 -70 -7 -75 -30 -3 -14 -14 -26 -25 -29 -35 -6 -46 -22 -44 -67 2 -29 -3 -49 -14 -62 -9 -10 -17 -26 -17 -34 0 -9 -7 -21 -15 -28 -8 -7 -15 -20 -15 -29 0 -24 -30 -81 -64 -125 l-30 -36 -222 0 c-185 0 -224 -2 -234 -15 -9 -11 -34 -15 -96 -15 -80 0 -84 1 -84 22 0 12 -8 30 -17 41 -17 18 -17 19 0 32 21 15 22 48 2 65 -20 16 -19 60 1 88 15 21 15 25 -2 43 -15 17 -17 35 -11 179 4 88 4 167 0 176 -5 14 -63 15 -587 13 l-581 -3 -3 25 c-2 13 -11 28 -19 32 -11 7 -14 27 -12 93 2 50 -1 88 -7 94 -6 6 -35 10 -65 8 l-54 -3 -3 -69 c-2 -53 1 -72 14 -87 13 -15 16 -35 15 -93 -2 -64 1 -77 19 -94 18 -17 21 -29 18 -83 l-3 -64 -36 -3 c-23 -2 -40 2 -49 12 -8 11 -30 16 -64 16 -40 0 -54 4 -64 20 -11 18 -23 20 -105 20 -65 1 -98 5 -111 15 -15 12 -52 15 -162 15 -117 0 -143 3 -148 15 -4 12 -29 15 -134 15 -103 0 -132 3 -142 15 -10 12 -41 15 -155 15 -118 0 -144 3 -149 15 -5 13 -129 15 -1031 15 -902 0 -1026 -2 -1031 -15 -5 -13 -50 -15 -315 -15 l-309 0 0 -25 0 -25 459 0 c395 0 460 2 471 15 11 13 116 15 832 15 718 0 819 -2 824 -15 5 -12 31 -15 149 -15 114 0 145 -3 155 -15 10 -12 41 -15 160 -15 122 0 149 -3 154 -15 4 -12 31 -15 149 -15 116 0 147 -3 157 -15 10 -12 37 -15 126 -15 104 0 114 -2 124 -20 10 -18 17 -20 58 -14 37 5 51 2 61 -10 8 -10 29 -16 52 -16 22 0 39 -4 39 -10 0 -5 15 -13 33 -18 l32 -8 2 -99 c1 -78 4 -101 17 -111 13 -9 16 -31 16 -108 0 -77 3 -98 15 -102 19 -8 19 -30 1 -41 -8 -4 -16 -19 -18 -33 -2 -19 -10 -26 -30 -28 -27 -3 -28 -5 -28 -64 l0 -61 -86 5 c-66 3 -90 9 -99 21 -9 13 -28 17 -77 17 -46 0 -69 4 -78 15 -9 11 -35 15 -105 15 -79 0 -94 3 -110 20 -17 18 -31 20 -176 20 -94 0 -160 4 -164 10 -4 6 -69 10 -163 10 -145 0 -159 2 -175 20 -16 19 -29 20 -436 20 -367 0 -420 2 -431 16 -12 13 -86 15 -674 13 -535 -2 -664 -5 -677 -15 -12 -11 -81 -14 -305 -16 -281 -3 -289 -4 -289 -23 0 -20 8 -20 541 -23 473 -2 543 0 554 13 19 22 551 22 570 0 11 -13 82 -15 525 -15 488 0 513 -1 529 -19 15 -16 33 -19 168 -19 91 -1 155 -5 162 -12 6 -6 77 -10 186 -10 164 0 176 -1 188 -20 11 -18 23 -20 126 -20 92 0 116 -3 127 -16 10 -13 27 -15 76 -12 45 3 64 0 67 -9 3 -8 22 -13 48 -13 30 0 49 -6 60 -19 25 -29 31 -58 14 -68 -8 -4 -16 -19 -18 -33 -2 -19 -10 -26 -33 -30 -29 -5 -30 -7 -33 -63 -2 -35 -8 -57 -15 -58 -7 -1 -19 -2 -27 -3 -11 -1 -16 -17 -20 -61 -5 -54 -7 -60 -29 -63 -13 -2 -31 -10 -38 -18 -8 -8 -25 -14 -39 -14 -17 0 -24 -6 -24 -19 0 -49 5 -51 131 -51 l119 0 6 28 c4 15 13 34 20 43 11 13 10 18 -7 32 -17 15 -19 28 -17 95 l3 77 35 3 c23 2 47 15 70 37 19 18 44 35 55 37 13 2 21 12 23 31 3 23 8 27 33 27 27 0 29 -3 29 -39 0 -22 6 -44 15 -51 11 -9 15 -34 15 -95 0 -61 4 -86 15 -95 11 -10 15 -35 15 -110 0 -75 4 -100 15 -110 11 -9 15 -35 15 -105 0 -70 4 -96 15 -105 11 -10 15 -36 15 -111 0 -88 2 -101 21 -120 19 -19 21 -29 15 -89 -5 -53 -3 -70 9 -80 11 -9 15 -36 15 -110 0 -84 3 -99 20 -115 23 -21 26 -51 6 -62 -9 -5 -16 -28 -18 -63 -3 -52 -5 -55 -31 -58 -18 -2 -29 2 -33 12 -3 9 -14 16 -23 16 -22 0 -41 19 -41 42 0 10 -8 21 -17 24 -10 3 -26 10 -35 15 -10 5 -24 9 -32 9 -9 0 -23 9 -33 19 -10 11 -34 21 -53 23 -28 2 -36 8 -38 26 -2 13 -10 26 -18 29 -8 3 -14 15 -14 27 0 34 -79 106 -117 106 -17 0 -36 7 -43 15 -7 8 -20 15 -30 15 -10 0 -30 14 -43 30 -14 17 -34 30 -45 30 -22 0 -62 40 -62 62 0 8 -19 33 -42 56 l-41 41 -113 -6 c-119 -6 -144 0 -144 37 0 10 -7 23 -15 30 -10 9 -15 32 -15 74 0 56 -3 65 -30 91 -17 16 -30 39 -30 51 0 30 -22 36 -99 28 -59 -5 -68 -4 -85 15 -15 16 -31 21 -71 21 -38 0 -55 4 -59 15 -3 8 -15 15 -26 15 -12 0 -33 14 -47 30 -27 33 -63 39 -83 15 -7 -8 -19 -15 -27 -15 -8 0 -28 -14 -45 -30 -16 -17 -37 -30 -47 -30 -23 0 -41 -20 -41 -46 0 -12 -7 -24 -15 -28 -8 -3 -15 -15 -15 -26 0 -12 -20 -41 -45 -66 -25 -24 -45 -53 -45 -64 0 -23 -18 -27 -26 -5 -5 12 -28 15 -119 15 -91 0 -114 3 -119 15 -4 12 -27 15 -119 15 -102 0 -116 2 -132 20 -17 19 -30 21 -144 19 -84 -1 -126 2 -129 10 -2 7 -56 11 -167 11 -156 0 -165 1 -175 21 -11 20 -16 21 -323 17 -282 -3 -313 -5 -326 -20 -14 -17 -44 -18 -348 -18 -356 0 -372 -2 -317 -47 30 -24 100 -32 120 -14 5 5 175 11 377 14 319 4 370 7 386 21 15 13 45 16 182 16 152 0 166 -2 182 -20 15 -18 29 -20 161 -20 86 0 147 -4 151 -10 4 -6 64 -10 148 -10 131 0 143 -2 155 -20 11 -18 23 -20 126 -20 92 0 116 -3 127 -16 11 -14 33 -16 139 -13 120 4 125 3 128 -17 2 -11 -4 -27 -13 -34 -10 -9 -15 -31 -15 -75 0 -43 -5 -66 -15 -75 -8 -7 -15 -22 -15 -35 0 -26 -29 -55 -56 -55 -40 0 -42 -14 -37 -220 6 -192 5 -198 -16 -219 -11 -11 -21 -30 -21 -42 0 -15 -5 -19 -15 -15 -17 6 -75 -39 -75 -59 0 -7 -7 -15 -15 -19 -10 -3 -15 -19 -15 -44 0 -23 -6 -45 -15 -52 -8 -7 -15 -23 -15 -35 0 -13 -7 -25 -15 -29 -12 -4 -15 -27 -15 -120 l0 -115 56 -56 c31 -30 64 -55 73 -55 9 0 30 -14 46 -30 27 -29 33 -30 111 -30 l83 0 3 -28 c3 -27 4 -27 92 -32 l88 -5 42 -47 43 -46 141 5 c121 5 143 4 157 -10 13 -14 29 -16 90 -10 79 6 109 -4 98 -33 -5 -13 -25 -15 -108 -13 -99 3 -103 2 -131 -25 -16 -14 -39 -29 -51 -32 -24 -6 -25 -12 -28 -266 l0 -43 60 0 60 0 3 85 c2 72 0 87 -15 98 -14 10 -15 16 -5 30 12 17 18 30 27 57 6 19 84 21 86 3 3 -29 5 -34 21 -58 18 -24 18 -24 48 -6 24 14 48 17 112 14 84 -3 88 -1 102 45 4 14 17 17 71 17 54 0 67 -3 71 -17 11 -35 21 -48 45 -53 20 -5 24 -12 24 -45 l0 -40 -72 -3 c-47 -2 -75 -8 -83 -17 -7 -8 -20 -15 -30 -15 -10 0 -23 -7 -30 -15 -10 -12 -40 -15 -154 -15 -138 0 -143 -1 -165 -24 -29 -31 -20 -46 29 -46 35 0 39 -3 42 -27 l3 -28 120 0 120 0 5 30 5 30 135 0 135 0 5 30 c3 17 12 31 20 31 8 1 21 2 28 3 19 2 17 150 -3 157 -8 4 -15 14 -15 24 0 36 -34 60 -87 60 -52 0 -68 10 -75 45 -3 18 -11 20 -108 20 -98 0 -105 1 -105 20 0 19 5 20 176 16 153 -3 180 -1 202 14 15 10 34 14 46 10 14 -4 31 4 59 30 22 20 44 34 50 33 15 -5 242 233 242 254 0 10 7 21 15 24 8 4 15 16 15 29 0 12 7 28 15 35 8 7 15 21 15 32 0 10 7 21 15 24 10 4 15 20 15 48 0 31 5 44 21 54 19 12 20 20 16 105 -7 124 -7 260 -1 266 3 3 14 0 24 -7 11 -7 35 -12 54 -12 34 0 35 -1 38 -42 3 -39 6 -43 31 -46 18 -2 31 -11 36 -25 8 -21 13 -22 157 -20 157 1 168 5 121 44 -12 10 -29 18 -38 19 -24 0 -42 26 -34 50 6 19 13 20 247 20 200 0 243 2 252 15 8 11 38 14 131 15 66 1 125 1 132 1 8 -1 13 -27 15 -82 l3 -81 360 1 c392 0 398 1 335 54 -16 14 -30 35 -30 46 0 16 -6 21 -25 21 -14 0 -28 7 -31 15 -4 9 -19 15 -35 15 -47 0 -46 25 1 70 39 37 47 41 89 38 l46 -3 -2 -44 c-1 -29 -8 -48 -18 -53 -27 -15 -6 -28 45 -28 32 0 52 5 57 14 5 9 28 16 63 18 52 3 55 4 60 33 5 28 8 30 50 30 41 0 45 -2 48 -25 2 -19 -7 -35 -33 -58 -58 -53 -41 -82 43 -72 40 4 48 9 50 28 6 43 37 62 96 62 52 0 55 1 58 27 2 20 9 29 24 31 27 4 107 79 99 92 -3 6 -17 10 -30 10 -18 0 -24 6 -27 28 -3 26 -6 27 -65 30 -59 3 -62 4 -65 30 -2 21 -9 28 -30 30 -25 3 -28 0 -28 -25 0 -17 -10 -38 -26 -53 -24 -22 -27 -23 -38 -8 -6 9 -23 18 -36 20 -19 2 -26 11 -30 33 l-5 30 -83 -4 c-76 -3 -86 -1 -108 20 -31 29 -31 66 3 101 32 33 46 35 72 9 27 -27 193 -34 217 -9 13 12 29 15 75 11 36 -4 64 -1 72 5 15 13 14 99 -1 114 -19 19 -47 4 -52 -27 -6 -36 -7 -36 -44 -9 -34 25 -28 44 15 44 29 0 30 1 27 42 -3 37 -7 44 -28 48 -32 6 -70 32 -70 46 0 17 27 25 57 18 16 -4 28 -2 34 7 6 10 1 15 -18 19 -19 3 -29 13 -33 30 -5 22 -12 26 -65 30 -59 5 -60 6 -60 35 l0 30 150 0 150 0 3 -28 c2 -18 -2 -29 -12 -33 -26 -10 -18 -48 15 -77 25 -21 32 -37 33 -65 1 -33 4 -37 29 -40 22 -3 29 -10 34 -33 4 -22 11 -29 30 -29 18 0 25 -7 30 -30 3 -17 10 -33 14 -36 5 -3 9 -14 9 -24 0 -23 48 -70 71 -70 9 0 19 -7 23 -15 3 -8 16 -15 29 -15 14 0 30 -6 37 -14 6 -8 21 -16 33 -18 20 -3 22 -9 22 -78 0 -59 -3 -75 -15 -76 -8 -1 -20 -2 -26 -3 -18 -2 -26 -32 -12 -48 9 -11 24 -13 58 -9 39 5 50 3 65 -15 18 -19 26 -20 140 -14 117 6 121 5 149 -19 26 -21 28 -27 16 -41 -10 -12 -23 -14 -58 -9 -35 5 -48 3 -57 -9 -7 -10 -31 -17 -65 -19 -48 -3 -55 -6 -60 -28 -5 -23 -11 -25 -63 -28 -34 -2 -60 -8 -62 -15 -2 -7 -6 -24 -9 -39 l-6 -27 112 -4 113 -3 -137 -2 c-119 -2 -137 0 -132 13 8 20 -39 20 -56 0 -7 -8 -25 -15 -41 -15 -19 0 -37 -9 -51 -25 -16 -19 -32 -25 -60 -25 -35 0 -38 -2 -38 -29 0 -21 -6 -30 -21 -34 -33 -9 -49 3 -49 34 l0 29 -229 0 c-194 0 -230 2 -235 15 -3 10 -19 15 -44 15 -21 0 -42 4 -48 9 -5 4 -51 6 -101 3 -82 -4 -93 -7 -93 -23 0 -34 -68 -52 -111 -28 -14 7 -18 16 -14 30 6 17 1 19 -59 19 -59 0 -65 -2 -68 -22 -3 -23 -5 -23 -143 -23 l-140 0 -3 -28 c-4 -30 14 -61 30 -51 5 3 17 -1 26 -9 9 -9 31 -17 47 -19 22 -2 30 -8 30 -23 0 -18 -8 -20 -62 -23 -54 -3 -64 0 -75 18 -11 17 -23 20 -76 20 -58 0 -65 2 -89 30 -23 28 -30 30 -89 30 -58 0 -66 3 -92 30 -25 26 -37 30 -79 30 -33 0 -55 5 -63 15 -7 8 -20 15 -30 15 -9 0 -20 3 -24 8 -4 4 -111 7 -237 7 -238 0 -259 -4 -218 -41 10 -9 19 -26 19 -36 0 -10 7 -21 15 -24 20 -8 22 -183 3 -185 -7 -1 -35 -2 -63 -3 -43 -1 -50 -4 -53 -23 -2 -12 -10 -27 -18 -33 -8 -7 -14 -29 -14 -49 0 -29 -7 -42 -35 -65 -49 -41 -43 -86 11 -86 17 0 23 -7 26 -27 l3 -28 144 0 c122 0 147 3 164 17 14 13 37 18 82 18 47 0 64 4 69 15 5 13 20 15 78 13 l73 -3 3 -55 c2 -30 8 -60 14 -67 8 -10 6 -18 -6 -31 -10 -12 -16 -36 -16 -64 0 -28 -6 -50 -15 -58 -9 -8 -15 -30 -15 -60 0 -30 -6 -52 -15 -60 -8 -7 -15 -27 -15 -45 0 -18 -7 -38 -15 -45 -10 -8 -15 -30 -15 -64 0 -39 -5 -56 -20 -69 -11 -9 -20 -26 -20 -36 0 -11 -4 -23 -10 -26 -5 -3 -10 -14 -10 -24 0 -10 -9 -26 -20 -36 -11 -10 -20 -23 -20 -28 0 -21 -41 -94 -65 -117 -14 -13 -25 -33 -25 -44 0 -12 -9 -27 -21 -34 -11 -7 -27 -28 -34 -46 -8 -18 -25 -44 -39 -57 -14 -13 -26 -32 -26 -42 0 -10 -13 -31 -30 -47 -16 -16 -30 -38 -30 -49 0 -11 -16 -33 -35 -48 -19 -15 -35 -35 -35 -45 0 -9 -77 -95 -171 -192 -122 -125 -178 -176 -194 -176 -13 0 -25 -7 -29 -15 -3 -8 -14 -15 -24 -15 -11 0 -25 -7 -32 -15 -7 -8 -21 -15 -32 -15 -11 0 -31 -14 -45 -30 -13 -17 -33 -30 -43 -30 -10 0 -23 -7 -30 -15 -7 -8 -21 -15 -31 -15 -10 0 -31 -14 -46 -30 -15 -17 -36 -30 -49 -30 -13 0 -28 -9 -34 -20 -6 -11 -18 -20 -26 -20 -19 0 -74 -38 -74 -51 0 -5 11 -14 25 -21 19 -9 29 -8 49 6 14 9 32 16 40 16 9 0 20 9 26 20 6 11 21 20 33 20 14 0 32 12 45 30 14 19 32 30 46 30 13 0 29 7 36 15 7 8 18 15 24 15 6 0 26 14 44 30 18 17 42 30 53 30 11 0 22 7 25 15 4 8 15 15 26 15 11 0 33 14 50 30 16 17 36 30 44 30 20 0 194 173 194 193 0 8 49 65 110 127 60 61 110 118 110 126 0 8 10 25 21 37 12 12 27 36 34 52 7 17 25 41 39 54 14 14 26 34 26 45 0 12 9 27 21 34 11 7 27 28 34 46 8 18 25 44 39 57 14 13 26 34 26 45 0 12 7 24 15 28 8 3 15 17 15 30 0 14 7 29 15 34 9 4 17 19 20 32 2 13 9 28 15 34 5 5 10 17 10 26 0 8 9 23 20 33 15 12 20 29 20 66 0 31 5 53 15 61 8 7 15 27 15 45 0 18 7 38 15 45 10 8 15 30 15 65 0 36 5 57 16 66 10 8 14 23 12 41 -3 16 1 33 9 39 7 7 13 31 13 55 l0 44 439 0 439 0 35 35 35 35 311 0 c201 0 311 4 311 10 0 6 7 10 16 10 14 0 15 -13 9 -117 -5 -84 -11 -120 -21 -126 -10 -6 -14 -33 -14 -106 0 -75 -4 -101 -15 -111 -10 -9 -15 -32 -15 -75 0 -43 -5 -66 -15 -75 -10 -8 -15 -30 -15 -65 0 -35 -5 -57 -15 -65 -8 -7 -15 -27 -15 -45 0 -20 -6 -35 -15 -39 -11 -4 -15 -20 -15 -58 0 -42 -5 -58 -20 -71 -16 -14 -20 -28 -19 -62 2 -25 -3 -51 -9 -57 -7 -7 -12 -22 -12 -35 0 -12 -9 -27 -20 -33 -13 -7 -20 -21 -20 -39 0 -15 -13 -53 -30 -84 -16 -31 -30 -63 -30 -71 0 -7 -7 -19 -15 -26 -8 -7 -15 -19 -15 -27 0 -9 -13 -31 -30 -50 -16 -18 -30 -39 -30 -46 0 -7 -20 -33 -45 -57 -25 -24 -45 -51 -45 -60 0 -9 -13 -29 -30 -45 -16 -16 -30 -36 -30 -46 0 -23 -165 -189 -188 -189 -20 0 -62 -39 -62 -57 0 -6 12 -13 26 -16 20 -3 35 3 64 29 21 19 44 34 52 34 20 0 118 102 118 123 0 10 23 40 50 66 28 26 50 56 50 65 0 10 14 29 30 43 17 13 30 35 30 46 0 13 20 41 45 65 25 24 45 49 45 57 0 7 7 18 15 25 8 7 15 22 15 35 0 12 9 30 21 41 13 12 19 27 16 41 -2 13 2 31 9 40 7 10 14 25 14 34 0 9 9 24 20 34 11 10 20 26 20 36 0 10 5 21 10 24 6 3 10 31 10 60 0 44 4 56 20 65 15 8 20 21 20 49 0 22 6 44 15 51 10 8 15 31 15 65 0 38 4 55 15 59 11 4 15 21 15 60 0 39 4 55 15 60 11 4 15 21 15 60 0 39 4 55 15 60 12 4 15 26 15 110 0 83 3 105 15 110 12 4 15 26 15 110 0 59 4 108 10 111 6 3 10 13 10 21 0 8 10 28 22 44 20 28 26 30 89 30 47 0 70 4 79 15 18 21 64 19 85 -5 22 -25 72 -26 97 -3 17 15 61 17 471 17 l452 1 3 -25 c2 -14 10 -32 17 -40 7 -8 15 -24 17 -35 2 -11 14 -22 28 -25 18 -4 26 -14 28 -33 3 -26 6 -27 58 -27 39 0 56 -4 60 -15 4 -10 19 -15 43 -15 57 0 81 -31 81 -105 0 -40 -5 -64 -16 -76 -13 -14 -16 -37 -15 -100 1 -45 4 -86 8 -91 3 -6 18 3 34 18 l29 28 0 128 c0 105 3 130 15 134 10 4 15 20 15 44 0 22 5 42 10 45 6 3 10 15 10 25 0 11 9 28 21 39 18 17 20 28 17 88 l-3 68 72 3 c47 2 75 8 83 17 14 17 145 22 154 6 3 -4 -3 -16 -14 -26 -12 -11 -20 -31 -20 -50 0 -18 -7 -38 -15 -45 -11 -9 -15 -35 -15 -105 0 -70 -4 -96 -15 -105 -11 -9 -15 -32 -15 -82 0 -52 -4 -70 -15 -74 -8 -4 -15 -17 -15 -30 0 -14 -7 -27 -15 -30 -10 -4 -15 -20 -15 -44 0 -21 -6 -43 -14 -50 -8 -6 -16 -21 -18 -33 l-3 -22 -719 -3 c-739 -2 -735 -2 -736 -39 0 -18 52 -63 73 -63 10 0 30 -13 44 -30 13 -16 33 -30 43 -30 10 0 23 -7 30 -15 7 -8 20 -15 30 -15 9 0 25 -9 35 -20 10 -11 26 -20 36 -20 10 0 21 -4 24 -10 3 -5 15 -10 26 -10 10 0 27 -9 36 -20 10 -11 28 -20 40 -20 13 0 31 -12 45 -30 12 -16 29 -30 37 -30 9 0 25 -7 35 -15 11 -8 27 -15 37 -15 9 0 19 -7 23 -15 3 -8 14 -15 24 -15 11 0 25 -7 32 -15 7 -8 19 -15 26 -15 16 0 94 -39 112 -57 7 -7 21 -13 31 -13 9 0 30 -13 46 -30 16 -16 37 -30 46 -30 10 0 21 -5 24 -10 3 -6 15 -10 25 -10 27 0 34 -17 16 -36 -9 -8 -16 -24 -16 -33 0 -10 -7 -24 -15 -31 -8 -7 -15 -25 -15 -40 0 -15 -7 -33 -15 -40 -8 -7 -15 -21 -15 -31 0 -11 -9 -28 -20 -39 -12 -12 -20 -33 -20 -54 0 -19 -4 -38 -10 -41 -5 -3 -10 -21 -10 -38 0 -22 -10 -41 -31 -61 -16 -17 -32 -40 -35 -53 -4 -13 -10 -23 -14 -23 -5 0 -12 -10 -15 -22 -12 -42 -47 -108 -56 -108 -5 0 -9 -7 -9 -15 0 -8 -7 -15 -15 -15 -19 0 -19 -24 -1 -40 25 -20 61 -8 64 21 2 15 16 39 33 55 16 15 29 38 29 50 0 12 7 24 15 28 8 3 15 16 15 30 0 13 7 26 15 30 8 3 15 16 15 28 0 13 9 31 20 41 11 9 20 26 20 36 0 11 5 23 10 26 6 3 10 21 10 39 0 20 8 40 20 51 11 10 20 25 20 34 0 9 7 25 15 35 8 11 12 28 9 38 -3 11 1 29 9 42 9 13 17 38 19 57 2 26 8 35 24 37 11 2 27 -4 34 -13 7 -8 20 -15 30 -15 10 0 23 -7 30 -15 7 -8 21 -15 31 -15 20 0 59 -33 59 -50 0 -5 11 -10 24 -10 13 0 29 -7 36 -15 7 -8 20 -15 30 -15 10 0 23 -7 30 -15 7 -8 20 -15 30 -15 10 0 23 -7 30 -15 7 -8 21 -15 31 -15 9 0 24 -7 33 -15 8 -8 23 -15 34 -15 11 0 32 -14 45 -30 14 -17 34 -30 44 -30 10 0 26 -9 36 -20 9 -11 24 -20 33 -20 8 0 22 -7 30 -15 9 -8 24 -15 34 -15 10 0 20 -7 24 -15 3 -8 14 -15 24 -15 11 0 25 -7 32 -15 7 -8 19 -15 26 -15 19 0 98 -42 107 -57 12 -20 71 -16 92 7 10 11 26 20 35 20 10 0 23 7 30 15 7 8 27 15 45 15 18 0 38 7 45 15 7 8 20 15 29 15 9 0 24 9 34 20 11 13 29 20 51 20 19 0 38 5 41 10 3 6 14 10 24 10 10 0 26 9 36 20 11 12 31 20 50 20 18 0 38 7 45 15 7 9 19 14 27 11 7 -3 21 3 30 14 10 11 30 20 44 20 15 0 41 8 58 18 27 14 33 15 40 3 14 -22 1 -194 -15 -204 -8 -5 -14 -25 -14 -46 0 -23 -6 -44 -15 -51 -11 -9 -15 -27 -13 -59 2 -38 6 -46 23 -46 14 0 21 9 26 35 4 19 12 36 18 38 6 2 11 29 11 62 0 44 4 59 16 64 14 5 15 23 13 124 l-4 117 27 3 c15 2 32 10 38 18 7 8 21 14 32 14 10 0 21 7 24 15 4 10 20 15 49 15 29 0 45 5 49 15 3 8 14 15 24 15 11 0 25 7 32 15 7 8 23 15 35 15 13 0 25 7 29 15 3 9 18 15 35 15 30 0 106 33 117 51 3 5 23 9 45 9 26 0 42 5 45 15 4 8 17 15 30 15 14 0 27 7 30 15 4 10 20 15 44 15 22 0 42 5 45 10 4 6 22 17 41 25 19 8 34 19 34 24 0 6 20 11 44 11 30 0 46 5 50 15 3 8 14 15 24 15 11 0 25 7 32 15 7 8 27 15 45 15 18 0 38 7 45 15 7 8 20 15 30 15 10 0 23 7 30 15 7 8 20 15 30 15 10 0 23 7 30 15 7 8 27 15 45 15 18 0 38 7 45 15 7 8 23 15 36 15 13 0 27 7 32 16 5 9 22 17 38 17 31 0 104 34 117 54 4 7 25 13 46 13 22 0 44 6 51 15 7 8 21 15 32 15 10 0 21 7 24 15 4 10 20 15 50 15 32 0 44 4 44 15 0 8 5 15 10 15 14 0 13 -13 -2 -28 -10 -10 -14 -85 -16 -290 -3 -222 -6 -280 -18 -293 -11 -12 -15 -65 -17 -260 l-2 -244 23 -3 c22 -3 22 -3 22 145 0 131 2 150 18 164 17 14 19 39 20 314 1 182 6 303 12 309 6 6 10 56 10 113 l0 103 40 0 c29 0 42 5 50 20 6 11 21 20 35 20 13 0 27 5 30 10 3 6 21 10 38 10 46 1 90 39 85 76 l-3 29 -133 -4 c-121 -3 -134 -2 -148 15 -13 18 -15 18 -25 2 -9 -16 -31 -18 -220 -18 -177 0 -211 -2 -215 -15 -5 -13 -59 -15 -398 -15 -216 0 -395 3 -399 6 -3 3 16 28 44 54 27 26 49 54 49 62 0 9 7 21 15 28 8 7 15 21 15 32 0 10 7 21 15 24 10 4 15 20 15 45 0 26 7 46 20 59 12 12 20 33 20 54 0 22 6 36 16 40 12 5 15 18 13 57 -2 39 1 54 14 64 11 7 17 26 17 48 0 20 5 39 10 42 6 3 10 33 10 66 0 60 0 60 -27 57 -20 -2 -29 -9 -31 -26 -2 -13 -10 -26 -18 -29 -10 -3 -14 -21 -14 -58 0 -39 -5 -56 -20 -70 -15 -13 -20 -31 -20 -65 0 -30 -6 -52 -15 -60 -10 -8 -15 -26 -13 -47 1 -24 -3 -38 -15 -44 -11 -7 -17 -23 -17 -48 0 -22 -6 -44 -15 -51 -8 -7 -15 -20 -15 -30 0 -10 -7 -20 -15 -24 -8 -3 -15 -16 -15 -28 0 -31 -127 -158 -158 -158 -27 0 -27 -3 -2 -56 l21 -42 144 0 c112 0 147 3 156 14 9 12 80 14 410 14 388 0 399 1 417 20 17 18 29 20 103 18 72 -3 84 -6 87 -21 6 -29 -47 -79 -76 -72 -15 4 -32 -1 -49 -15 -14 -11 -34 -20 -44 -20 -10 0 -21 -4 -24 -10 -3 -5 -19 -10 -36 -10 -17 0 -36 -8 -46 -20 -10 -11 -27 -20 -38 -20 -11 0 -29 -7 -39 -15 -11 -8 -29 -12 -41 -9 -13 3 -27 -2 -39 -15 -11 -12 -29 -21 -41 -21 -13 0 -25 -7 -29 -15 -3 -10 -19 -15 -46 -15 -22 0 -40 -4 -40 -9 0 -5 -12 -14 -27 -20 -16 -6 -35 -15 -43 -19 -52 -29 -85 -42 -111 -42 -17 0 -32 -6 -35 -15 -4 -8 -17 -15 -30 -15 -14 0 -27 -7 -30 -15 -4 -10 -20 -15 -45 -15 -26 0 -42 -5 -45 -15 -4 -8 -14 -15 -23 -15 -10 0 -26 -7 -37 -15 -10 -8 -33 -15 -50 -15 -17 0 -37 -7 -44 -15 -7 -8 -21 -15 -31 -15 -11 0 -27 -9 -36 -19 -11 -14 -24 -18 -42 -15 -19 4 -32 -1 -45 -15 -11 -12 -26 -21 -35 -21 -9 0 -25 -7 -35 -15 -11 -8 -32 -15 -47 -15 -14 0 -32 -7 -39 -15 -7 -8 -23 -15 -37 -15 -13 0 -26 -7 -29 -15 -4 -9 -19 -15 -38 -15 -18 0 -41 -7 -52 -15 -10 -8 -27 -15 -37 -15 -10 0 -20 -7 -23 -15 -4 -8 -14 -15 -23 -15 -10 0 -26 -7 -37 -15 -10 -8 -33 -15 -49 -15 -18 0 -38 -8 -48 -20 -11 -13 -29 -20 -51 -20 -21 0 -36 -6 -40 -15 -8 -23 -211 -22 -220 1 -3 9 -12 14 -20 11 -8 -3 -22 0 -31 7 -16 12 -15 15 11 39 16 15 38 27 49 27 11 1 31 14 45 30 13 17 33 30 45 30 11 0 41 20 65 45 37 38 50 45 82 45 33 0 38 3 38 24 0 13 6 29 14 36 8 6 16 21 18 33 2 14 11 23 25 25 12 2 27 10 33 18 7 8 21 14 31 14 26 0 129 102 129 128 0 16 6 22 23 22 46 0 65 50 27 70 -43 23 -79 7 -94 -42 -4 -13 -16 -18 -39 -18 -25 0 -42 -9 -67 -35 -19 -19 -42 -35 -52 -35 -12 0 -18 -8 -18 -22 0 -26 -40 -68 -63 -68 -8 0 -20 -7 -27 -15 -7 -9 -29 -15 -51 -15 -34 0 -38 -3 -41 -27 -3 -25 -7 -28 -45 -31 -38 -3 -43 -6 -43 -27 0 -28 -15 -39 -54 -40 -28 0 -38 -10 -50 -48 -5 -14 -18 -17 -91 -17 -67 0 -87 3 -91 15 -4 10 -19 15 -43 15 -69 0 -104 67 -59 112 19 19 31 22 88 19 38 -1 71 -8 81 -17 10 -9 38 -14 75 -14 54 0 63 3 89 30 24 25 37 30 75 30 34 0 52 5 65 20 10 11 26 20 35 20 21 0 60 41 60 63 0 10 7 20 15 23 21 8 19 51 -4 63 -23 13 -48 -5 -53 -38 -2 -17 -10 -25 -26 -26 -13 -1 -27 -7 -30 -12 -4 -6 -18 -13 -32 -14 -18 -3 -26 -12 -30 -32 l-5 -29 -154 -3 c-144 -3 -156 -2 -183 18 -39 29 -36 70 5 75 15 2 27 9 27 18 0 8 9 23 21 35 l20 20 -26 25 c-23 21 -35 24 -104 24 -58 0 -82 4 -91 15 -7 8 -21 15 -32 15 -10 0 -21 7 -24 15 -9 21 -206 22 -224 1 -6 -8 -21 -16 -33 -18 -21 -3 -22 -8 -24 -113 -1 -60 -2 -116 -2 -122 -1 -9 -19 -13 -55 -13 -35 0 -58 -5 -66 -15 -7 -8 -23 -15 -36 -15 -17 0 -23 -6 -26 -27 -3 -26 -6 -28 -53 -29 -27 -1 -56 -2 -62 -3 -7 -1 -13 -12 -13 -25 0 -32 15 -40 75 -41 l50 0 3 -40 c5 -78 9 -85 45 -79 18 4 47 21 65 40 35 36 40 38 66 28 13 -5 16 -22 16 -78 0 -63 -3 -75 -23 -94 -27 -26 -43 -28 -51 -7 -3 9 -18 15 -40 15 -19 0 -37 4 -41 9 -3 6 -33 23 -68 39 -34 17 -72 42 -84 56 -13 14 -31 26 -42 26 -10 0 -21 7 -25 15 -3 8 -14 15 -24 15 -11 0 -25 7 -32 15 -7 8 -19 15 -26 15 -17 0 -98 41 -102 52 -2 4 -12 8 -21 8 -10 0 -30 9 -44 20 -14 11 -30 19 -35 18 -5 -2 -23 12 -39 30 -17 17 -40 32 -51 32 -11 0 -25 7 -32 15 -7 8 -19 15 -27 15 -8 0 -21 7 -29 15 -9 8 -24 15 -33 15 -10 0 -24 7 -31 15 -7 8 -20 15 -30 15 -10 0 -23 7 -30 15 -7 8 -20 15 -30 15 -10 0 -23 7 -30 15 -7 8 -21 15 -32 15 -11 0 -31 14 -45 30 -13 17 -33 30 -43 30 -10 0 -23 7 -30 15 -7 8 -20 15 -30 15 -10 0 -23 7 -30 15 -7 8 -21 15 -31 15 -9 0 -24 7 -33 15 -8 8 -20 15 -26 15 -7 0 -24 6 -38 14 -15 8 -35 17 -44 20 -10 3 -18 10 -18 16 0 7 100 10 299 10 254 0 300 -2 311 -15 11 -13 63 -15 389 -13 l376 3 3 37 c2 20 10 42 18 48 9 8 14 31 14 61 0 42 4 53 30 75 29 26 29 29 32 133 l3 106 28 3 27 3 0 154 c0 84 3 160 6 169 5 13 26 16 123 16 l116 0 20 30 20 30 562 0 562 0 29 36 c33 40 52 38 52 -7 0 -29 1 -29 55 -29 52 0 55 1 55 25 0 46 21 48 324 40 277 -7 281 -7 300 14 12 13 31 21 52 21 18 0 36 4 39 10 3 6 37 10 74 10 79 0 90 9 84 63 -4 30 -9 37 -28 37 -12 0 -28 7 -35 15 -9 11 -35 15 -101 15 l-89 0 0 30 0 29 -107 3 -108 3 0 48 c0 39 -4 51 -25 67 -14 11 -32 20 -41 20 -9 0 -22 7 -29 15 -7 8 -20 15 -30 15 -10 0 -23 7 -31 16 -10 12 -30 15 -83 14 -100 -3 -96 -5 -96 39 0 22 -6 44 -15 51 -12 10 -15 37 -15 126 0 101 -2 114 -19 123 -17 10 -18 21 -13 160 4 128 2 154 -12 175 -13 21 -16 53 -16 176 0 138 -2 152 -20 167 -22 19 -26 48 -9 58 5 4 47 -32 92 -80 45 -48 130 -136 190 -196 59 -60 107 -118 107 -128 0 -10 7 -24 15 -31 8 -7 15 -20 15 -29 0 -10 14 -30 30 -46 17 -16 30 -39 30 -51 0 -12 7 -24 15 -28 8 -3 15 -16 15 -29 0 -14 12 -32 30 -45 19 -14 30 -32 30 -46 0 -13 7 -29 15 -36 8 -7 15 -18 15 -25 0 -7 7 -18 15 -25 8 -7 15 -23 15 -35 0 -13 13 -34 30 -48 17 -14 30 -35 30 -46 0 -11 9 -25 20 -31 11 -6 20 -21 20 -34 0 -15 12 -34 30 -49 17 -14 30 -35 30 -46 0 -11 6 -24 13 -28 8 -4 16 -16 20 -25 3 -10 14 -18 22 -18 12 0 15 -6 10 -20 -5 -15 2 -29 24 -52 l30 -31 12 27 c11 23 10 29 -8 49 -11 12 -23 30 -26 40 -4 9 -11 17 -17 17 -5 0 -10 8 -10 18 0 10 -13 31 -30 47 -16 16 -30 39 -30 51 0 12 -7 27 -15 34 -8 7 -15 20 -15 30 0 10 -13 30 -30 43 -16 14 -30 34 -30 45 0 11 -7 25 -15 32 -8 7 -15 20 -15 30 0 10 -7 23 -15 30 -8 7 -15 20 -15 29 0 9 -13 31 -30 49 -16 18 -30 42 -30 53 0 11 -7 22 -15 25 -8 4 -15 15 -15 26 0 11 -13 33 -30 50 -16 16 -30 38 -30 48 0 10 -4 21 -9 24 -11 7 -51 88 -51 103 0 6 -101 110 -225 231 l-225 220 0 94 c0 59 -4 98 -12 106 -8 8 -11 57 -9 166 2 148 2 155 -18 166 -20 10 -21 19 -21 174 0 140 -2 165 -16 170 -10 4 -14 15 -12 33 3 26 7 28 52 31 48 3 51 2 108 -55 35 -35 58 -66 58 -79 0 -12 6 -24 14 -27 8 -3 16 -18 18 -34 3 -28 3 -28 70 -25 59 3 68 1 78 -17 9 -18 20 -21 85 -21 97 0 98 11 3 102 l-73 70 -52 -6 c-71 -8 -83 -2 -83 44 0 33 -3 38 -29 43 -23 5 -30 12 -33 34 -3 27 -6 28 -63 33 -57 5 -60 7 -63 33 -3 21 -9 27 -28 27 -37 0 -64 33 -64 80 0 43 12 50 40 25 14 -12 99 -15 598 -15 320 -1 587 2 592 5 13 8 13 534 1 554 -6 10 -23 12 -59 9 -40 -4 -51 -1 -61 14 -10 16 -27 18 -185 18 -142 0 -176 3 -186 15 -10 12 -39 15 -140 15 -101 0 -130 3 -140 15 -7 9 -30 15 -54 15 -22 0 -50 7 -60 15 -11 8 -35 15 -53 15 -21 0 -36 6 -39 15 -4 10 -20 15 -49 15 -29 0 -45 5 -49 15 -3 10 -19 15 -45 15 -25 0 -41 5 -45 15 -3 10 -19 15 -44 15 -22 0 -45 6 -52 14 -6 8 -21 16 -33 18 -21 3 -22 8 -22 108 l0 105 -28 3 c-16 2 -35 -2 -44 -9 -8 -7 -25 -18 -37 -24 -18 -9 -21 -20 -24 -92 -3 -74 -1 -83 18 -93 19 -10 20 -20 20 -176 0 -137 3 -166 15 -170 12 -5 15 -33 15 -169 0 -136 3 -164 15 -169 11 -4 15 -23 15 -81 l0 -75 -74 0 c-53 0 -77 -4 -86 -15 -10 -13 -54 -15 -275 -15 -221 0 -265 -2 -275 -15 -10 -12 -44 -15 -187 -15 -145 0 -175 2 -179 15 -4 8 -16 15 -28 15 -13 0 -31 12 -44 30 -12 16 -35 33 -50 37 -15 3 -38 19 -52 35 -13 15 -31 28 -38 28 -8 0 -25 9 -39 20 -14 11 -29 18 -33 15 -4 -3 -13 2 -20 10 -7 8 -20 15 -30 15 -9 0 -25 9 -35 20 -11 12 -31 20 -50 20 -18 0 -38 7 -45 15 -7 8 -20 15 -30 15 -10 0 -23 7 -30 15 -7 8 -20 15 -30 15 -10 0 -23 7 -30 15 -7 8 -23 15 -35 15 -13 0 -25 7 -29 15 -3 10 -19 15 -44 15 -23 0 -45 6 -52 15 -7 8 -18 15 -25 15 -7 0 -18 7 -25 15 -7 8 -23 15 -36 15 -14 0 -28 9 -35 21 -10 20 -17 21 -74 16 -49 -5 -66 -3 -75 8 -9 10 -32 15 -74 15 -50 0 -65 4 -79 21 -14 16 -28 20 -60 18 -27 -2 -52 4 -70 15 -20 14 -40 17 -78 14 -39 -4 -55 -1 -74 14 -18 14 -38 18 -80 17 -38 -2 -60 2 -72 13 -12 11 -29 15 -48 11 -59 -9 -60 -12 -30 -43 26 -27 35 -30 91 -30 42 0 65 -5 74 -15 9 -10 32 -15 75 -15 43 0 66 -5 75 -15 9 -11 32 -15 79 -15 54 0 70 -4 84 -20 13 -16 29 -20 79 -20 40 -1 70 -6 83 -16 13 -9 39 -14 78 -13 46 2 62 -2 69 -14 5 -10 17 -17 27 -17 10 0 24 -7 31 -15 7 -8 23 -15 35 -15 13 0 25 -7 29 -15 3 -8 18 -15 33 -15 27 0 108 -35 119 -51 3 -5 16 -9 28 -9 13 0 29 -7 36 -15 7 -8 27 -15 45 -15 20 0 35 -6 39 -15 3 -8 17 -15 31 -15 14 0 28 -7 31 -15 4 -8 16 -15 29 -15 12 0 28 -7 35 -15 7 -8 21 -15 32 -15 10 0 21 -7 24 -15 4 -8 16 -15 28 -15 12 0 35 -13 51 -30 16 -16 38 -30 50 -30 23 0 55 -28 55 -48 0 -7 -15 -12 -34 -12 -18 0 -39 -7 -46 -15 -11 -13 -56 -15 -295 -15 -231 0 -284 -3 -288 -14 -6 -14 -63 -27 -84 -19 -8 3 -13 23 -13 49 l0 44 -45 0 -45 0 0 40 c0 33 -7 47 -40 80 -31 31 -48 40 -74 40 -29 0 -34 4 -39 30 -6 29 -8 30 -62 30 -52 0 -55 1 -55 25 0 25 -32 51 -50 40 -20 -12 -49 6 -52 33 -3 26 -5 27 -63 27 l-60 0 0 -35 c0 -34 1 -35 43 -38 32 -2 42 -7 42 -21 0 -29 22 -41 72 -41 40 0 48 -3 48 -18 0 -30 22 -42 77 -42 61 0 67 -9 61 -96 -3 -45 -5 -49 -30 -52 -29 -3 -43 -29 -33 -61 3 -10 0 -23 -7 -28 -15 -11 -248 -11 -265 0 -7 5 -13 17 -13 28 0 11 -7 27 -15 35 -17 17 -10 70 12 96 8 9 13 31 11 50 -3 30 -6 33 -40 36 -32 3 -43 -3 -78 -38 -39 -39 -40 -43 -26 -59 9 -10 16 -24 16 -33 0 -8 16 -29 35 -47 41 -37 42 -47 11 -83 -23 -26 -26 -27 -155 -29 -139 -2 -167 5 -140 37 10 12 23 15 58 10 67 -9 71 -2 71 130 0 114 0 114 -24 114 -16 0 -39 -16 -69 -50 -43 -47 -48 -50 -95 -50 -35 0 -52 -4 -56 -15 -9 -25 -29 -17 -55 20 l-24 35 -24 -27 c-20 -20 -24 -34 -20 -58 6 -40 -7 -55 -47 -55 -48 0 -60 12 -52 53 7 39 -10 61 -26 33 -11 -20 -57 -21 -64 -1 -5 12 -27 15 -111 15 l-104 0 3 -72 3 -73 95 -1 c122 -2 117 -1 123 -25 11 -40 -1 -49 -68 -49 -38 0 -65 4 -67 11 -3 8 -11 8 -27 -2 -19 -11 -25 -11 -28 -1 -3 6 -11 12 -19 12 -8 0 -14 -6 -13 -12 4 -30 -3 -38 -31 -38 -25 0 -31 5 -38 33 -11 40 -36 39 -73 -4 l-26 -30 -129 3 -129 3 0 45 c0 42 2 45 28 48 23 3 27 8 27 36 0 36 15 56 42 56 10 0 18 6 19 13 0 6 2 26 2 42 2 25 7 31 30 33 22 3 29 10 34 33 4 20 11 29 25 29 11 0 33 12 49 28 17 16 44 29 66 32 29 4 38 10 43 30 6 24 10 25 87 28 79 3 82 4 112 38 29 33 35 35 84 32 48 -3 52 -5 55 -30 3 -27 5 -28 63 -28 l59 0 0 31 0 30 278 -3 c271 -3 277 -3 277 17 0 19 -7 20 -160 22 -88 2 -169 7 -180 13 -11 5 -36 11 -55 12 -28 2 -36 8 -38 27 -4 29 12 41 55 41 26 0 34 5 38 23 4 14 22 30 47 42 32 15 44 28 50 53 6 21 15 32 27 32 10 0 24 7 31 15 7 8 23 15 35 15 28 0 36 18 28 65 -5 28 -1 41 16 59 12 13 21 29 19 36 -2 7 8 16 21 19 24 6 34 19 45 55 4 10 12 16 20 13 24 -9 37 19 34 70 l-3 48 -45 5 -45 5 0 60 c0 58 1 60 28 63 15 2 27 9 27 17 0 8 -12 15 -27 17 -21 2 -29 9 -31 27 -5 32 -61 88 -92 93 -19 2 -26 11 -30 33 -4 24 -11 31 -33 33 -15 2 -27 9 -27 18 0 10 -14 14 -54 14 -35 0 -58 5 -66 15 -7 8 -23 15 -35 15 -13 0 -25 7 -29 15 -4 13 -37 15 -206 15 -171 0 -200 -2 -200 -15z m404 -70 c14 -10 45 -15 97 -15 77 0 78 0 81 -27 2 -22 9 -29 31 -31 15 -2 28 -8 28 -13 1 -5 3 -13 4 -19 1 -5 3 -14 4 -19 0 -5 13 -11 29 -13 27 -3 27 -4 27 -78 0 -73 -1 -75 -25 -75 -20 0 -26 6 -28 28 -3 22 -10 29 -32 34 -22 4 -30 12 -32 32 -2 17 -10 27 -23 29 -11 2 -27 10 -35 17 -8 7 -24 15 -35 17 -11 2 -22 14 -25 28 -6 25 -7 25 -145 30 -147 5 -175 1 -175 -28 0 -37 18 -41 142 -35 l119 6 67 -66 c37 -36 76 -67 87 -69 15 -2 21 -13 25 -43 4 -32 10 -41 27 -43 12 -2 27 -10 33 -18 7 -8 23 -14 36 -14 23 0 24 -3 24 -70 0 -59 -3 -72 -17 -76 -44 -13 -48 -21 -53 -90 -4 -57 -8 -69 -22 -68 -22 2 -128 -110 -128 -135 0 -18 -8 -20 -72 -23 l-73 -3 -3 -32 c-3 -33 -4 -33 -56 -33 -35 0 -58 -5 -66 -15 -7 -8 -23 -15 -37 -15 -13 0 -26 7 -29 15 -5 11 -22 15 -70 15 -53 0 -65 3 -74 20 -6 11 -8 20 -4 20 3 0 1 7 -6 15 -8 10 -30 15 -61 15 -44 0 -48 2 -51 26 -3 26 -14 37 -50 48 -13 4 -18 16 -18 40 0 21 -6 36 -15 40 -10 3 -15 19 -15 45 0 37 -3 41 -32 49 -31 8 -33 11 -36 60 -2 40 1 54 12 58 20 8 21 30 1 38 -31 12 -10 66 26 66 9 0 22 7 29 15 7 9 29 15 51 15 34 0 38 3 41 28 2 21 9 28 31 30 21 3 27 9 27 28 0 19 6 26 29 30 16 4 40 17 52 30 12 13 33 24 45 24 27 0 36 12 27 35 -5 14 -15 16 -56 12 -27 -4 -57 -13 -66 -21 -10 -9 -42 -16 -81 -18 -56 -3 -65 -6 -68 -23 -2 -11 -10 -27 -17 -35 -7 -8 -15 -26 -17 -40 -2 -19 -10 -26 -30 -28 -21 -3 -27 -9 -30 -30 -3 -25 -7 -27 -48 -27 l-45 0 -3 54 c-3 51 -1 56 27 79 17 13 31 31 31 41 0 10 9 26 19 35 11 10 21 28 23 40 2 17 11 22 44 24 37 3 42 6 48 33 l6 29 124 0 c98 0 126 3 136 15 18 22 286 21 314 0z m-770 -514 c9 -15 -22 -33 -44 -26 -31 10 -25 35 9 35 17 0 32 -4 35 -9z m3878 -71 c8 -13 24 -20 43 -20 16 0 39 -7 49 -15 11 -8 34 -15 52 -15 19 0 34 -6 38 -15 3 -8 15 -15 27 -15 12 0 27 -8 34 -17 9 -12 25 -16 59 -15 35 2 51 -3 67 -19 18 -18 29 -20 64 -16 35 5 46 3 61 -14 16 -18 29 -20 136 -18 99 1 122 -2 137 -15 16 -15 41 -17 175 -15 133 1 159 -1 169 -14 7 -9 28 -17 47 -19 l35 -3 0 -205 0 -205 -540 -5 c-507 -5 -541 -4 -561 13 -13 11 -33 16 -55 15 l-34 -3 -3 137 c-2 105 -6 139 -17 148 -12 10 -15 43 -15 163 0 124 -3 154 -16 168 -9 10 -13 23 -9 28 10 18 44 12 57 -9z m-4908 -461 c3 -2 7 -123 10 -269 5 -261 5 -264 -17 -287 l-22 -23 -313 0 c-269 0 -313 -2 -318 -15 -5 -11 -21 -15 -60 -15 -34 0 -56 -5 -61 -14 -5 -9 -41 -15 -111 -20 -89 -6 -103 -5 -108 9 -4 10 2 25 17 38 21 20 34 21 153 22 94 0 130 3 133 13 3 8 -7 12 -31 12 -24 0 -42 7 -53 20 -11 12 -30 20 -49 20 -18 0 -38 -8 -49 -20 -10 -11 -24 -20 -30 -20 -24 0 -65 41 -65 65 0 14 -12 34 -30 48 l-30 26 0 144 0 145 -30 25 c-24 20 -30 34 -30 64 l0 39 545 -1 c299 -1 546 -3 549 -6z m2784 -391 c-3 -32 -5 -33 -48 -33 -43 0 -45 1 -48 33 l-3 32 51 0 51 0 -3 -32z m2032 -52 c0 -13 7 -29 15 -36 12 -10 15 -43 15 -175 0 -136 3 -164 15 -169 12 -4 15 -33 15 -170 0 -136 3 -165 15 -170 11 -4 15 -21 15 -66 0 -33 -3 -60 -6 -60 -4 0 -63 59 -131 130 -69 72 -131 130 -139 130 -7 0 -60 47 -117 105 -58 58 -112 105 -121 105 -9 0 -66 50 -126 110 -61 61 -119 110 -128 110 -9 0 -30 14 -46 30 -16 17 -39 30 -50 30 -25 1 -59 43 -54 68 3 16 24 17 268 13 259 -3 265 -3 284 18 18 19 30 21 148 21 l128 0 0 -24z m-928 -56 c7 -11 22 -20 34 -20 12 0 27 -7 34 -15 7 -8 19 -15 27 -15 7 0 27 -16 44 -35 17 -19 39 -35 49 -35 18 0 37 -17 148 -134 30 -31 61 -56 70 -56 10 0 71 -54 137 -120 66 -66 126 -120 134 -120 7 0 39 -25 70 -55 31 -30 104 -102 164 -159 l107 -105 0 -66 c0 -49 4 -67 15 -71 12 -5 15 -33 15 -169 0 -151 1 -163 21 -180 19 -18 20 -26 13 -147 -6 -107 -4 -131 9 -151 13 -20 16 -59 18 -197 1 -109 -2 -175 -9 -179 -5 -3 -12 -17 -13 -31 -4 -23 -9 -25 -59 -28 -64 -4 -100 -31 -130 -99 -13 -29 -25 -42 -42 -45 -22 -3 -23 -7 -20 -60 4 -57 3 -58 -22 -58 -15 0 -29 -7 -32 -15 -8 -19 -28 -19 -44 0 -7 8 -20 15 -30 15 -10 0 -20 -7 -24 -15 -5 -13 -48 -15 -304 -15 -254 0 -301 -2 -312 -15 -11 -13 -58 -15 -311 -15 -288 0 -299 -1 -309 -20 -10 -19 -21 -20 -176 -20 l-165 0 1 98 c1 53 1 103 1 110 -1 6 -12 12 -25 12 -13 0 -29 7 -36 15 -7 8 -22 15 -35 15 -12 0 -24 2 -27 5 -3 3 -93 6 -199 7 l-194 2 -3 -77 c-2 -62 0 -78 13 -83 19 -8 19 -28 0 -44 -9 -7 -13 -21 -10 -31 4 -11 4 -27 1 -36 -5 -17 -39 -18 -478 -21 -260 -2 -498 -4 -528 -5 -46 -2 -55 1 -58 17 -4 21 13 36 41 36 10 0 25 7 34 16 10 10 25 13 43 9 18 -4 31 -1 40 10 7 8 20 15 30 15 10 0 23 7 30 15 8 9 36 15 83 17 67 3 72 5 77 28 5 21 13 26 44 28 28 2 45 11 63 33 14 16 33 29 43 29 10 0 25 7 34 15 8 8 22 15 30 15 9 0 16 6 16 14 0 15 24 22 94 30 22 3 44 12 48 20 5 9 20 16 32 16 13 0 26 7 30 15 3 8 16 15 30 15 19 0 25 6 28 28 3 26 6 27 68 33 80 7 88 4 92 -29 2 -21 9 -28 30 -30 31 -4 46 -35 28 -57 -7 -8 -10 -15 -6 -15 3 -1 88 -1 189 -1 l182 -1 3 80 3 81 -28 3 c-20 2 -29 9 -31 25 -2 12 -10 27 -18 33 -20 18 -20 143 1 160 12 10 15 28 13 69 -3 47 -6 56 -22 56 -29 0 -29 18 -1 45 28 26 33 61 10 80 -8 7 -15 20 -15 30 0 10 7 23 15 30 8 7 15 23 15 36 0 17 6 23 28 26 21 2 28 9 30 31 3 21 9 27 26 27 13 0 29 6 36 14 6 8 24 16 38 18 24 3 27 8 30 45 2 23 10 47 18 53 18 16 18 46 -1 54 -12 4 -15 23 -15 81 l0 76 -30 6 c-23 4 -30 11 -30 29 0 18 -7 25 -27 30 -16 4 -35 12 -43 19 -8 7 -24 15 -35 17 -11 2 -19 10 -18 19 2 8 -13 30 -32 49 -19 19 -35 44 -35 56 0 12 -7 24 -15 28 -11 4 -15 21 -15 61 0 54 -1 56 -30 62 -31 6 -45 32 -38 70 3 14 14 19 60 21 34 2 61 9 68 17 7 9 29 15 51 15 34 0 38 3 41 27 2 22 9 29 33 33 29 5 30 8 33 59 3 58 -5 71 -45 71 -23 0 -23 2 -23 133 0 184 -22 171 291 168 239 -3 248 -2 268 18 20 20 32 21 231 21 199 0 210 -1 222 -20z m-1318 -59 c10 -11 28 -21 40 -23 20 -3 21 -8 19 -103 -1 -89 -3 -100 -20 -103 -10 -2 -28 -13 -40 -24 -34 -31 -57 -20 -61 29 -2 23 -10 47 -18 53 -7 7 -14 27 -14 45 0 18 -7 38 -15 45 -38 31 4 100 60 100 19 0 39 -8 49 -19z m184 -78 c3 -92 3 -92 30 -95 24 -3 27 -8 30 -45 3 -37 6 -42 30 -45 23 -2 27 -8 27 -33 l0 -30 -87 -3 -88 -3 0 -29 c0 -23 -5 -30 -19 -30 -18 0 -18 10 -16 203 2 111 4 203 4 205 1 2 20 2 44 0 l42 -3 3 -92z m-739 50 c9 -17 10 -17 28 0 39 34 123 9 123 -38 0 -13 -14 -20 -23 -12 -1 1 -15 -8 -31 -20 -35 -28 -37 -28 -66 -3 -17 15 -37 20 -78 20 -50 0 -58 -3 -90 -36 -40 -41 -72 -42 -86 -3 -14 41 0 79 30 79 13 0 27 7 30 15 9 23 149 21 163 -2z m249 -19 c3 -34 -16 -49 -49 -39 -24 8 -24 20 -1 50 23 33 46 28 50 -11z m-578 -8 c6 -8 21 -16 33 -18 14 -2 22 -10 22 -23 0 -17 -7 -20 -50 -20 l-50 0 -3 38 c-3 31 0 37 16 37 11 0 25 -6 32 -14z m714 8 c13 -5 16 -23 16 -94 0 -64 4 -91 14 -100 8 -6 16 -28 18 -48 3 -32 7 -37 30 -40 25 -3 27 -7 30 -60 3 -54 5 -57 31 -60 34 -4 37 -32 3 -32 -13 0 -29 -7 -36 -15 -7 -8 -20 -15 -29 -15 -22 0 -41 -19 -41 -42 0 -14 -8 -18 -40 -18 -37 0 -41 -3 -46 -29 -6 -27 -10 -29 -67 -35 -53 -5 -63 -3 -83 15 -26 24 -43 9 -18 -16 15 -15 15 -18 -6 -41 -19 -19 -34 -24 -71 -24 -29 0 -51 -6 -59 -15 -7 -8 -29 -15 -50 -15 -24 0 -40 -5 -44 -15 -3 -8 -16 -15 -30 -15 -13 0 -26 -7 -30 -15 -4 -13 -38 -15 -214 -15 -174 0 -212 3 -222 15 -7 8 -20 15 -30 15 -10 0 -34 19 -54 41 -36 41 -36 42 -36 135 0 92 12 126 32 90 13 -23 259 -24 278 -1 7 8 29 15 49 15 29 0 40 6 56 30 22 33 40 38 49 15 3 -8 15 -15 27 -15 12 0 27 -7 33 -15 9 -12 50 -15 213 -18 127 -2 207 1 213 7 16 16 13 187 -4 205 -8 9 -18 40 -22 68 -5 44 -4 54 10 59 10 4 16 18 16 35 0 23 5 29 21 29 11 0 32 9 46 20 29 23 26 22 47 14z m-1547 -40 c7 -19 -20 -49 -36 -40 -6 4 -11 18 -11 32 0 17 5 24 20 24 11 0 23 -7 27 -16z m256 9 c15 -4 17 -20 17 -163 0 -124 -3 -162 -14 -173 -8 -8 -16 -32 -18 -53 -3 -34 -6 -40 -33 -44 -21 -4 -31 -12 -35 -30 -5 -23 -11 -25 -60 -25 -49 0 -55 2 -60 25 -4 18 -14 26 -33 28 -22 3 -27 8 -27 32 0 15 7 30 15 34 8 3 15 17 15 31 0 28 0 28 88 25 l62 -2 0 90 0 91 -27 3 c-20 2 -29 9 -31 24 -2 12 -12 30 -23 40 -22 19 -25 44 -7 62 11 11 132 15 171 5z m448 -5 c1 -7 2 -20 3 -28 0 -8 10 -16 21 -18 66 -10 66 -10 63 -59 -3 -41 -6 -48 -28 -53 -20 -5 -26 -13 -28 -39 -2 -19 1 -38 6 -43 16 -16 52 1 52 25 0 11 10 31 22 44 20 21 29 23 134 23 l113 0 3 43 3 42 60 0 60 0 3 -38 c3 -32 8 -40 33 -49 25 -9 29 -15 29 -48 0 -25 6 -42 16 -48 9 -5 14 -18 12 -33 -3 -23 -7 -24 -89 -27 l-86 -3 -6 31 c-6 30 -7 30 -76 30 -49 0 -72 4 -81 15 -16 19 -46 19 -57 1 -4 -8 -19 -16 -33 -18 -19 -2 -26 -10 -28 -30 -3 -24 -8 -27 -45 -30 -33 -2 -43 -7 -45 -23 -6 -32 -20 -40 -39 -23 -10 9 -27 18 -38 20 -17 3 -20 12 -23 61 -3 57 -3 57 27 63 31 6 31 7 31 75 0 65 -1 69 -23 69 -27 0 -82 53 -73 69 10 16 106 14 107 -1z m3834 -28 c0 -16 -6 -26 -18 -28 -19 -4 -32 20 -23 44 9 25 41 13 41 -16z m-4725 -35 c18 -22 3 -33 -50 -37 -36 -2 -46 -7 -48 -23 -2 -11 -11 -26 -20 -33 -16 -12 -16 -14 1 -23 9 -6 17 -21 17 -35 0 -13 7 -27 15 -30 8 -4 15 -16 15 -28 0 -12 13 -33 30 -46 19 -16 29 -35 30 -52 0 -26 3 -28 45 -28 34 0 47 -5 55 -19 7 -13 23 -21 48 -23 25 -2 36 -7 34 -17 -4 -18 17 -41 37 -41 10 0 21 -13 26 -32 10 -33 10 -33 72 -32 78 2 91 7 95 35 2 15 12 25 28 29 17 4 26 14 28 30 2 14 8 29 13 35 5 5 9 16 9 25 0 9 9 25 20 35 11 10 20 29 20 42 0 33 28 29 32 -4 2 -19 10 -29 28 -33 l25 -6 2 -134 c1 -74 2 -143 3 -152 0 -11 10 -18 28 -20 25 -3 27 -6 30 -58 2 -36 8 -58 18 -63 14 -8 14 -11 0 -26 -10 -10 -16 -41 -18 -86 -3 -67 -4 -70 -28 -70 -18 0 -26 7 -30 25 -5 20 -13 26 -42 28 -20 2 -44 12 -53 23 -23 24 -37 24 -60 -1 -10 -11 -27 -20 -37 -20 -10 0 -21 -7 -24 -15 -4 -9 -19 -15 -42 -15 -30 0 -44 -8 -84 -51 -52 -56 -56 -64 -33 -73 13 -4 15 -19 13 -68 -3 -55 -5 -63 -23 -63 -18 0 -20 8 -23 63 -2 34 -7 62 -12 62 -6 0 -10 14 -10 30 0 26 -5 31 -29 36 -17 4 -32 12 -35 20 -8 20 -109 19 -126 -1 -8 -10 -37 -15 -93 -17 l-82 -3 -3 -77 c-3 -78 -3 -78 -30 -78 -33 0 -62 31 -62 64 0 26 -16 36 -61 36 -23 0 -30 -5 -35 -27 -4 -16 -13 -36 -21 -45 -10 -11 -14 -33 -11 -65 l3 -48 -75 0 -75 0 -3 56 c-2 47 -8 61 -32 84 -21 20 -30 38 -30 61 0 17 -7 37 -14 44 -8 6 -16 30 -18 53 -3 37 -6 42 -30 45 -21 3 -27 9 -30 30 -2 21 -9 28 -30 30 -24 3 -28 8 -28 33 0 26 -3 30 -22 27 -31 -4 -38 -52 -9 -67 14 -8 21 -23 23 -54 3 -37 6 -42 30 -45 27 -3 27 -4 30 -90 3 -85 4 -87 28 -90 20 -2 31 -14 48 -50 20 -43 22 -62 22 -210 0 -135 -3 -164 -15 -168 -20 -8 -20 -60 1 -68 11 -4 14 -17 12 -48 -3 -43 -3 -43 -45 -46 -23 -2 -47 -10 -53 -18 -9 -10 -35 -14 -92 -14 -53 0 -84 -4 -93 -13 -10 -11 -39 -13 -117 -9 -95 4 -104 3 -122 -17 -16 -18 -30 -21 -98 -21 -61 0 -80 -3 -84 -15 -7 -18 -63 -20 -65 -2 -1 6 -1 30 0 53 2 27 -3 45 -13 53 -12 10 -16 34 -16 101 0 69 -3 89 -15 94 -12 4 -15 26 -15 104 0 76 -4 102 -15 112 -11 10 -15 36 -15 111 0 90 -2 99 -21 110 -20 10 -21 17 -17 105 4 72 2 97 -8 105 -10 8 -14 37 -14 95 0 73 -2 85 -20 94 -18 10 -20 21 -20 109 0 75 -4 101 -15 111 -12 10 -15 45 -15 191 l0 179 30 0 c18 0 33 -6 36 -15 8 -20 48 -19 64 0 12 14 15 13 32 -5 26 -28 103 -28 118 0 9 17 21 20 79 20 55 0 70 3 75 16 6 16 8 16 24 0 23 -20 56 -21 72 -1 10 12 47 15 215 15 168 0 205 3 215 15 7 8 21 15 32 15 10 0 21 -7 24 -15 8 -19 30 -19 38 0 4 12 44 15 243 18 131 1 252 3 269 5 19 1 37 -4 44 -13z m644 -7 c7 -10 23 -18 35 -18 23 0 31 -35 9 -43 -9 -2 -13 -30 -13 -88 l-1 -84 -31 -3 c-28 -3 -32 0 -35 25 -2 22 -9 29 -30 31 -26 3 -28 6 -29 55 -1 69 -4 85 -24 107 -15 16 -15 19 -1 27 28 16 106 10 120 -9z m170 -21 c13 -9 17 -23 14 -52 -3 -35 -6 -40 -30 -43 l-28 -3 0 -90 c0 -82 -1 -89 -20 -89 -19 0 -20 7 -20 90 0 60 4 92 13 97 30 20 39 41 25 63 -11 17 -11 22 2 30 20 13 23 12 44 -3z m723 -14 c40 -51 54 -100 51 -179 l-3 -79 -40 0 c-33 0 -41 4 -43 21 -2 14 8 30 27 47 41 34 43 74 4 79 -25 3 -28 8 -31 42 -2 22 -11 45 -19 51 -9 7 -13 17 -9 23 11 18 47 14 63 -5z m-3330 -208 c7 -20 -75 -98 -95 -90 -7 3 -16 5 -18 5 -2 0 -4 7 -4 15 0 9 9 15 25 15 20 0 25 5 25 25 0 37 54 62 67 30z m3048 -15 c9 -27 -1 -40 -30 -40 -29 0 -39 13 -30 40 4 13 15 20 30 20 15 0 26 -7 30 -20z m705 -115 c9 -11 10 -36 5 -88 -5 -60 -4 -76 9 -86 9 -8 16 -22 16 -32 0 -25 105 -129 130 -129 13 0 20 -7 20 -19 0 -36 38 -70 83 -73 l42 -3 3 -72 3 -73 -39 0 c-32 0 -45 -6 -71 -35 -17 -19 -40 -35 -51 -35 -10 0 -28 -13 -40 -30 -20 -28 -25 -30 -89 -30 -49 0 -72 -4 -81 -15 -7 -8 -29 -15 -50 -15 -24 0 -40 -5 -44 -15 -3 -8 -16 -15 -30 -15 -13 0 -26 -7 -30 -15 -4 -11 -20 -15 -57 -15 -37 0 -55 -5 -64 -17 -15 -20 -35 -9 -35 18 0 12 -20 40 -44 64 -41 39 -45 48 -48 96 -3 47 -6 54 -28 59 -24 6 -25 8 -28 108 -3 101 -3 102 -28 102 -13 0 -27 7 -30 15 -4 10 -20 15 -49 15 -24 0 -50 3 -59 6 -25 10 -19 34 8 34 13 0 29 7 36 15 7 8 21 15 32 15 10 0 21 7 24 15 4 9 19 15 35 15 40 0 39 -29 -1 -36 -23 -5 -30 -12 -30 -29 0 -21 5 -22 101 -29 55 -3 105 -4 110 -1 5 4 9 17 9 29 0 13 7 29 15 36 17 14 11 50 -12 63 -22 13 -4 27 36 27 28 0 44 7 66 30 16 17 37 30 48 30 10 0 30 14 44 30 13 17 33 30 43 30 11 0 32 16 47 35 30 38 53 44 73 20z m-3970 -250 c0 -8 -7 -15 -15 -15 -16 0 -20 12 -8 23 11 12 23 8 23 -8z m3142 -98 c4 -7 33 -10 83 -8 84 3 105 -7 105 -46 0 -28 -38 -83 -57 -83 -17 0 -17 -30 0 -31 6 -1 35 -2 62 -3 l50 -1 3 -56 c3 -54 4 -57 33 -63 29 -5 30 -8 27 -48 l-3 -43 -57 -3 -58 -3 0 -44 0 -45 -89 0 c-66 0 -92 4 -101 15 -9 10 -32 15 -75 15 -43 0 -66 5 -75 15 -7 8 -27 15 -45 15 -18 0 -38 6 -44 13 -6 8 -35 24 -66 37 -30 13 -55 28 -55 34 -1 91 -13 222 -22 233 -8 10 -8 17 0 25 7 7 12 27 12 45 0 17 6 36 14 40 23 13 349 4 358 -10z m-4227 -177 c20 -21 38 -30 61 -30 17 0 37 -7 44 -15 8 -10 30 -15 62 -15 34 0 50 -4 54 -15 5 -11 24 -15 80 -15 65 0 74 -2 74 -18 0 -10 7 -27 15 -38 8 -11 15 -41 15 -70 0 -37 4 -54 15 -58 9 -3 15 -19 15 -41 0 -41 36 -85 69 -85 11 0 24 -8 30 -17 9 -17 10 -17 28 0 15 13 38 17 96 17 74 0 77 -1 112 -35 19 -20 35 -44 35 -54 0 -22 57 -74 72 -65 5 3 16 -3 24 -15 8 -12 23 -21 33 -21 10 0 24 -7 31 -15 7 -8 20 -15 30 -15 10 0 23 -7 30 -15 7 -8 20 -15 29 -15 24 -1 61 -35 61 -57 0 -10 13 -30 30 -43 16 -14 29 -33 30 -43 0 -26 70 -95 100 -99 25 -3 25 -4 25 -104 0 -71 4 -106 14 -118 12 -14 11 -19 -3 -34 -10 -12 -16 -36 -16 -64 0 -28 -6 -50 -15 -58 -8 -7 -15 -23 -15 -35 0 -13 -7 -25 -15 -29 -10 -3 -15 -19 -15 -44 0 -23 -6 -45 -15 -52 -8 -7 -15 -18 -15 -26 0 -7 -34 -48 -75 -91 -41 -43 -75 -83 -75 -89 0 -23 -42 -64 -65 -64 -12 0 -25 -7 -29 -15 -3 -8 -14 -15 -24 -15 -11 0 -25 -7 -32 -15 -8 -10 -30 -15 -61 -15 -38 0 -52 -4 -61 -20 -11 -18 -24 -20 -109 -20 -74 0 -100 4 -109 15 -7 8 -21 15 -32 15 -10 0 -21 -7 -24 -15 -4 -8 -15 -15 -27 -15 -19 0 -20 4 -13 103 l6 102 56 53 c30 28 64 52 75 52 10 0 20 6 20 13 1 6 2 19 3 27 0 8 14 17 31 20 27 5 30 9 35 50 3 30 10 45 20 46 8 1 21 2 28 3 9 1 12 30 12 110 0 77 4 117 15 137 17 33 20 100 5 109 -15 9 -40 -14 -40 -35 0 -11 -10 -20 -25 -24 -23 -6 -25 -10 -25 -70 0 -44 -5 -67 -15 -76 -8 -7 -15 -21 -15 -31 0 -10 -6 -22 -14 -26 -9 -5 -16 -28 -18 -63 l-3 -55 -40 -5 -40 -5 -5 -55 c-4 -46 -9 -57 -30 -67 -14 -7 -27 -23 -30 -35 -8 -32 -64 -33 -68 -1 -2 12 -10 27 -18 33 -9 8 -14 32 -14 66 0 43 4 55 20 64 24 13 27 62 5 80 -8 7 -15 19 -15 27 0 7 7 16 15 19 19 8 21 134 3 165 -10 17 -10 23 0 26 15 6 17 123 1 123 -15 0 -48 42 -49 61 0 9 -7 22 -15 29 -8 7 -15 21 -15 31 0 9 -7 24 -15 33 -10 10 -15 35 -15 78 0 66 -10 88 -42 88 -15 0 -18 8 -18 49 0 32 -6 55 -16 65 -18 19 -20 19 -45 6 -16 -9 -19 -22 -19 -94 0 -80 10 -110 36 -105 29 5 34 -4 34 -55 0 -35 5 -58 15 -66 8 -7 15 -26 15 -43 0 -20 11 -42 35 -68 28 -31 35 -47 35 -79 0 -28 -5 -43 -16 -47 -8 -3 -13 -12 -10 -19 3 -7 0 -16 -6 -20 -7 -4 -8 -30 -3 -76 6 -64 4 -72 -16 -94 -33 -35 -47 -30 -51 18 -3 36 -7 43 -28 48 -22 5 -26 12 -30 64 -4 43 -2 60 9 65 9 6 10 10 2 15 -6 4 -11 16 -11 27 0 13 -10 24 -29 30 -22 8 -31 18 -33 37 -2 20 -9 28 -28 30 -13 2 -30 11 -36 20 -12 16 -14 16 -30 0 -15 -15 -15 -17 5 -27 16 -9 21 -21 21 -49 0 -30 6 -42 35 -65 l35 -28 0 -119 0 -119 28 -3 c25 -3 27 -7 32 -58 4 -45 9 -55 25 -58 28 -6 45 -21 45 -43 0 -14 7 -19 25 -19 35 0 42 -26 14 -50 -33 -27 -47 -25 -51 8 -3 26 -5 27 -73 32 -67 5 -70 6 -73 32 -2 20 -10 30 -29 34 -35 9 -63 39 -63 68 0 40 -11 56 -36 56 -18 0 -24 5 -24 23 0 35 -19 47 -72 47 -36 0 -50 -4 -57 -19 -12 -22 -5 -31 23 -31 15 0 25 -10 33 -29 7 -19 19 -30 34 -33 19 -2 25 -10 27 -38 4 -43 63 -108 101 -112 19 -2 26 -9 27 -26 2 -32 7 -34 66 -36 50 -1 53 -3 56 -28 3 -25 7 -28 42 -28 32 0 47 -7 80 -38 35 -34 40 -45 40 -82 l0 -43 -212 7 -213 7 -43 45 c-42 44 -42 44 -111 44 -69 0 -70 0 -73 28 l-3 27 -100 3 c-75 2 -102 6 -108 17 -4 8 -18 15 -30 15 -13 0 -41 22 -74 57 l-53 57 0 69 c0 53 4 75 19 93 11 13 17 33 14 44 -3 11 4 31 16 46 12 15 21 41 21 59 0 20 6 35 15 39 8 3 20 17 25 31 5 14 17 25 25 25 9 0 32 12 51 28 l34 27 0 208 c0 153 3 207 12 207 25 0 78 45 78 66 0 12 7 27 15 34 10 9 15 32 15 77 0 59 2 66 30 90 17 13 30 34 30 46 0 12 21 41 50 69 28 27 50 57 50 68 0 12 7 23 15 26 8 4 15 16 15 28 0 27 56 81 93 90 15 3 27 11 27 16 0 18 16 11 45 -20z m3215 -230 c3 -63 4 -121 1 -128 -2 -9 -19 -13 -50 -12 -69 3 -69 2 -73 -27 -3 -26 -6 -28 -48 -28 l-45 0 -3 89 c-2 68 0 91 12 100 8 6 16 22 18 36 2 19 10 26 31 28 18 2 27 9 27 21 0 30 22 42 75 39 l50 -3 5 -115z m1431 -105 c28 -32 34 -34 73 -29 44 6 61 -3 67 -41 3 -11 15 -22 29 -25 25 -6 25 -7 28 -122 l3 -117 -58 -3 c-56 -3 -58 -4 -63 -33 l-5 -30 -150 0 -150 0 -3 28 c-3 27 -27 38 -34 15 -3 -7 -12 -9 -22 -5 -15 6 -17 15 -11 73 7 64 9 68 66 122 48 48 58 63 61 97 2 32 7 40 28 45 18 4 26 13 28 33 3 24 7 27 43 27 33 0 45 -6 70 -35z m503 -262 l1 -292 -65 -3 c-81 -5 -88 -2 -92 30 -2 21 -9 28 -30 30 -30 4 -38 29 -13 38 8 4 15 16 15 29 0 13 -7 25 -15 29 -12 4 -15 25 -15 96 0 90 -2 95 -37 91 -16 -2 -17 21 -1 37 9 9 8 16 -5 30 -9 10 -17 26 -17 35 0 9 -7 20 -16 25 -9 5 -14 18 -12 33 3 23 6 24 101 27 96 3 100 4 124 33 18 22 33 29 51 27 l25 -3 1 -292z m-2244 180 c0 -48 4 -62 25 -81 22 -22 29 -22 114 -16 67 5 95 4 106 -6 23 -19 18 -43 -14 -74 -22 -21 -37 -27 -62 -24 -29 3 -34 0 -39 -22 -7 -34 -78 -110 -96 -103 -8 3 -14 18 -14 33 0 16 -5 30 -10 32 -6 2 -12 17 -13 33 -2 24 -7 31 -29 33 -21 3 -27 9 -30 30 -3 26 -6 27 -69 30 -63 3 -68 1 -92 -28 -28 -32 -54 -39 -63 -15 -4 8 -17 15 -30 15 -24 0 -24 1 -24 103 0 57 3 107 7 110 3 4 80 7 170 7 l163 0 0 -57z m1260 27 c5 -23 11 -25 74 -28 55 -2 71 0 81 14 19 26 35 7 35 -41 0 -59 -8 -75 -36 -75 -14 0 -27 -7 -30 -15 -4 -8 -14 -15 -24 -15 -10 0 -23 7 -30 15 -7 9 -29 15 -52 15 -24 0 -41 5 -44 14 -3 8 -19 19 -35 25 -27 9 -29 14 -29 59 0 27 3 52 7 56 4 4 23 6 42 4 28 -2 36 -8 41 -28z m-1522 -443 c4 -44 -11 -67 -42 -67 -32 0 -46 19 -46 60 0 46 6 52 50 48 33 -3 35 -5 38 -41z m220 -50 c7 -61 -50 -77 -99 -28 -48 48 -40 62 34 59 60 -3 62 -4 65 -31z m2322 -102 c15 -18 5 -35 -20 -35 -10 0 -22 5 -25 10 -7 11 12 40 25 40 4 0 13 -7 20 -15z m2530 -74 l145 -6 -90 -7 c-50 -4 -100 -5 -112 -2 -13 4 -35 3 -49 0 -25 -7 -26 -10 -21 -51 4 -28 2 -46 -6 -52 -7 -5 -85 -7 -175 -5 l-163 4 3 41 c2 35 7 43 26 45 12 2 22 9 22 17 0 23 70 35 175 28 55 -3 165 -8 245 -12z m-5750 -119 c36 -6 45 -11 50 -32 6 -24 10 -25 87 -28 56 -2 85 -7 93 -17 7 -8 27 -15 44 -15 23 0 41 -9 61 -30 19 -20 38 -30 59 -30 16 0 38 -8 48 -17 12 -10 32 -16 54 -15 23 2 36 -2 40 -13 4 -8 18 -15 34 -15 15 0 30 -6 33 -14 3 -8 18 -16 34 -18 23 -2 29 -8 31 -35 2 -22 -1 -33 -10 -33 -7 -1 -104 0 -216 0 -173 1 -203 -1 -208 -15 -3 -8 -17 -15 -30 -15 -14 0 -27 -6 -30 -14 -8 -21 -42 -26 -59 -10 -8 8 -12 21 -8 29 4 11 -4 17 -26 21 -25 5 -33 13 -38 35 -3 15 -11 30 -19 33 -9 3 -14 20 -14 45 0 31 -6 44 -30 64 -16 14 -30 35 -30 46 0 15 -6 21 -22 21 -28 0 -72 45 -64 65 6 16 56 19 136 7z m1002 -19 c27 -24 22 -50 -24 -121 -23 -35 -49 -78 -58 -95 -10 -18 -29 -39 -43 -47 -25 -14 -28 -13 -54 13 -24 23 -28 36 -28 81 0 48 4 58 39 97 44 50 102 89 130 89 11 0 28 -7 38 -17z m2232 -10 c38 -35 90 -146 82 -176 -7 -31 -43 -46 -84 -35 -64 17 -112 137 -82 208 16 38 45 39 84 3z m-3361 -51 c31 -32 38 -98 12 -108 -20 -8 -95 64 -95 91 0 50 43 58 83 17z m1611 22 c9 -3 16 -16 16 -29 0 -17 7 -24 30 -28 27 -6 30 -11 30 -42 0 -34 -1 -35 -38 -35 -29 0 -46 -7 -68 -29 -16 -16 -41 -31 -54 -33 -18 -2 -25 -10 -26 -27 -2 -32 -21 -42 -73 -39 -43 3 -52 10 -65 52 -6 17 -14 18 -84 12 -42 -3 -83 -2 -91 3 -13 9 -12 17 7 51 5 8 13 24 19 35 15 29 75 32 101 5 17 -18 29 -21 83 -18 60 3 64 5 67 28 2 14 21 42 43 63 38 36 68 45 103 31z m-1741 -60 c-6 -16 -29 -19 -38 -4 -4 6 -1 17 5 26 15 18 42 0 33 -22z m5877 21 c7 -8 20 -15 30 -15 24 0 42 -24 38 -52 -3 -21 -8 -23 -68 -23 l-65 0 -3 44 c-3 45 7 61 39 61 9 0 22 -7 29 -15z m371 -1 c11 -14 10 -18 -6 -30 -10 -8 -24 -14 -30 -14 -6 0 -20 6 -30 14 -16 12 -17 16 -6 30 7 9 24 16 36 16 12 0 29 -7 36 -16z m-1102 -78 c14 -15 21 -33 19 -48 -3 -21 -9 -23 -60 -26 -54 -3 -58 -2 -64 23 -3 14 -3 36 0 50 5 21 12 25 44 25 28 0 45 -7 61 -24z m399 -5 c2 -12 1 -34 -2 -48 -6 -22 -11 -24 -54 -21 -45 3 -47 4 -50 36 -5 55 2 63 55 60 42 -3 48 -6 51 -27z m-1319 -30 c17 -16 40 -31 53 -33 18 -2 24 -10 26 -36 l3 -33 -108 3 c-99 3 -108 5 -111 23 -2 11 -11 28 -20 38 -15 17 -14 20 13 42 42 37 104 35 144 -4z m506 -6 c0 -30 0 -30 -60 -30 -50 0 -60 3 -63 18 -8 39 5 48 65 45 57 -3 58 -3 58 -33z m-1378 -29 c4 -8 6 -39 5 -70 -3 -42 -8 -57 -21 -61 -26 -8 -51 4 -51 25 0 9 -9 25 -20 35 -25 22 -26 61 -2 74 25 15 80 13 89 -3z m-3357 -26 c3 -14 14 -26 25 -29 31 -5 45 -21 45 -50 0 -52 -6 -54 -161 -52 -79 1 -147 5 -153 8 -5 3 -2 11 7 18 9 6 21 24 26 38 7 17 18 27 31 27 15 0 22 8 26 29 7 32 28 39 109 37 33 -1 40 -5 45 -26z m2465 20 c50 0 53 -1 58 -29 5 -23 12 -30 34 -33 21 -2 29 -9 31 -28 2 -14 10 -29 18 -33 33 -19 -4 -27 -122 -27 -113 0 -128 2 -154 22 -42 31 -37 72 9 73 14 0 25 15 35 49 4 11 12 16 22 12 9 -3 39 -6 69 -6z m483 -5 c6 -3 12 -16 12 -30 0 -21 5 -25 31 -25 29 0 30 -1 27 -42 l-3 -43 -69 -3 c-59 -3 -72 0 -92 19 -13 12 -24 31 -26 43 -2 14 -11 22 -29 24 -29 3 -42 29 -28 53 6 11 26 14 86 11 43 -2 84 -5 91 -7z m-903 -70 c26 -27 33 -68 15 -95 -7 -11 -27 -14 -92 -11 -46 1 -87 7 -92 12 -6 5 -20 9 -33 9 -30 0 -40 25 -19 45 9 9 16 24 16 34 0 28 9 31 96 31 76 0 85 -2 109 -25z m-660 -55 c15 -16 31 -20 87 -20 61 0 69 -2 66 -17 -2 -13 -15 -19 -43 -21 -22 -2 -44 -8 -49 -13 -14 -13 -50 -11 -64 3 -9 9 -18 6 -40 -15 -34 -33 -50 -34 -54 -4 -2 15 -11 23 -29 25 -33 4 -74 45 -66 66 5 13 24 16 90 16 71 0 87 -3 102 -20z m2345 -15 c3 -20 12 -31 25 -33 30 -6 38 -18 31 -46 -5 -19 -13 -26 -30 -26 -19 0 -26 -7 -31 -30 -7 -31 -8 -31 -63 -28 -51 3 -57 5 -62 28 -4 16 -14 26 -28 28 -14 2 -28 15 -35 30 -6 15 -18 32 -26 38 -9 7 -12 18 -7 29 6 16 15 17 76 11 63 -6 70 -4 80 15 18 32 63 22 70 -16z m-2802 -2 c2 -12 10 -27 18 -33 8 -7 14 -20 14 -29 0 -35 -21 -41 -145 -41 -81 0 -125 4 -133 12 -13 13 -17 100 -5 112 4 3 61 5 127 4 116 -3 121 -4 124 -25z m6148 -664 c8 -13 -15 -30 -36 -26 -8 1 -16 10 -18 20 -3 12 3 17 22 17 14 0 28 -5 32 -11z m-2648 -346 c-3 -71 -5 -78 -26 -83 -32 -7 -32 -24 0 -28 34 -4 48 -40 23 -58 -9 -7 -23 -10 -31 -7 -8 3 -15 -1 -15 -8 -1 -8 -2 -18 -4 -24 -1 -5 -3 -16 -3 -23 -1 -9 -13 -12 -34 -10 -27 2 -34 8 -36 28 -2 14 -9 31 -15 39 -7 7 -12 19 -13 25 0 6 -2 17 -2 24 -1 6 -13 12 -26 12 -21 0 -25 -6 -28 -32 -3 -29 -6 -33 -33 -33 -30 0 -30 0 -33 63 l-3 62 31 6 c20 4 30 12 30 24 0 10 7 23 15 30 8 7 15 22 15 35 0 12 3 25 7 28 3 4 46 7 95 7 l89 0 -3 -77z m86 -349 c9 -3 16 -14 16 -24 0 -31 -77 -43 -100 -15 -26 31 33 59 84 39z m65 -167 c24 -29 26 -29 95 -23 39 3 77 2 85 -3 24 -15 5 -41 -31 -41 -18 0 -42 -7 -52 -15 -11 -9 -41 -15 -69 -15 -34 0 -47 -4 -44 -12 2 -7 19 -13 38 -13 48 0 47 -29 -1 -33 -19 -2 -39 -8 -44 -13 -6 -5 -17 -9 -25 -9 -8 0 -23 -7 -33 -17 -17 -15 -19 -15 -36 0 -10 10 -26 17 -34 17 -9 0 -21 7 -28 15 -7 8 -20 15 -30 15 -10 0 -23 7 -30 15 -7 8 -20 15 -29 15 -21 0 -97 36 -106 50 -3 5 -17 10 -31 10 -14 0 -24 6 -24 14 0 10 14 16 43 18 36 3 42 6 46 28 1 14 7 28 12 31 5 3 75 3 156 1 l146 -5 26 -30z m285 -36 c8 -13 -20 -33 -41 -29 -10 2 -19 11 -21 21 -3 13 3 17 27 17 16 0 32 -4 35 -9z"
         id="path8" />
      <g
         id="g12">
        <path
           d="M8550 6455 c-15 -16 -20 -29 -14 -34 14 -14 145 -1 151 16 10 25 -18 43 -66 43 -38 0 -52 -5 -71 -25z"
           id="path10" />
      </g>
      <g
         id="g16">
        <path
           d="M8503 6342 c-20 -21 -15 -58 12 -88 24 -25 32 -28 105 -28 74 -1 82 1 105 26 27 28 35 85 13 93 -7 2 -60 5 -117 7 -77 2 -108 -1 -118 -10z"
           id="path14" />
      </g>
      <g
         id="g20">
        <path
           d="M8104 6335 c-4 -8 -16 -15 -28 -15 -23 0 -66 -40 -66 -61 1 -22 36 -59 57 -59 10 0 26 -9 36 -20 9 -11 28 -20 42 -20 14 0 33 9 42 20 10 11 28 20 40 20 19 0 23 5 23 33 0 21 8 41 20 52 29 26 8 49 -37 40 -25 -4 -35 -2 -39 10 -8 21 -82 21 -90 0z"
           id="path18" />
      </g>
      <g
         id="g24">
        <path
           d="M8377 6223 c-4 -3 -7 -30 -7 -60 0 -50 -1 -53 -25 -53 -18 0 -26 -7 -31 -26 -10 -40 10 -74 44 -74 61 0 106 68 66 101 -12 10 -14 23 -10 50 3 21 3 45 0 53 -6 16 -26 21 -37 9z"
           id="path22" />
      </g>
      <g
         id="g28">
        <path
           d="M8620 6000 c-11 -20 -17 -21 -195 -19 -100 1 -188 -2 -194 -5 -6 -4 -11 -18 -11 -31 0 -21 5 -24 48 -27 43 -3 47 -5 50 -30 l3 -28 119 0 119 0 3 28 c2 21 9 28 30 30 19 2 29 11 36 32 7 18 19 30 34 32 32 4 29 32 -4 36 -19 2 -30 -3 -38 -18z"
           id="path26" />
      </g>
      <g
         id="g32">
        <path
           d="M9664 4546 c-10 -27 1 -49 26 -56 14 -4 40 -21 57 -39 17 -17 38 -31 46 -31 7 0 27 -13 43 -30 16 -16 37 -30 46 -30 9 0 32 -13 50 -30 18 -16 37 -30 44 -30 6 0 24 -13 40 -30 16 -16 36 -30 45 -30 9 0 32 -16 52 -35 20 -19 45 -35 55 -35 11 0 22 -7 26 -15 3 -8 16 -15 28 -15 13 0 29 -9 36 -21 7 -11 28 -27 46 -34 48 -20 639 -616 649 -655 4 -16 12 -30 17 -30 6 0 10 -8 10 -19 0 -10 16 -33 35 -52 19 -19 35 -42 35 -51 0 -9 5 -20 10 -23 6 -3 10 -15 10 -26 0 -10 9 -27 20 -36 11 -10 20 -27 20 -39 0 -12 7 -27 15 -34 8 -7 15 -20 15 -29 0 -9 13 -28 30 -41 16 -14 29 -33 30 -42 0 -10 6 -18 14 -18 9 0 16 -12 18 -27 2 -20 9 -28 23 -28 39 0 31 73 -10 95 -15 8 -25 22 -25 35 0 13 -7 28 -15 35 -8 7 -15 20 -15 30 0 10 -7 23 -15 30 -8 7 -15 21 -15 31 0 11 -9 27 -20 36 -11 10 -20 25 -20 34 0 10 -13 30 -30 46 -16 15 -30 35 -30 44 0 9 -7 22 -15 29 -9 7 -14 19 -11 27 3 7 -3 21 -14 30 -11 10 -20 26 -20 37 0 23 -598 626 -621 626 -8 0 -28 14 -44 30 -16 17 -37 30 -48 30 -10 0 -30 14 -44 30 -13 17 -33 30 -42 30 -10 0 -30 14 -46 30 -16 17 -37 30 -47 30 -10 0 -32 16 -49 35 -17 19 -39 35 -49 35 -10 0 -32 14 -48 30 -17 17 -37 30 -45 30 -8 0 -20 7 -27 15 -7 8 -22 15 -34 15 -12 0 -32 14 -46 30 -14 17 -34 30 -46 30 -11 0 -30 13 -42 30 -24 32 -49 39 -58 16z"
           id="path30" />
      </g>
      <g
         id="g36">
        <path
           d="M9054 4549 c-10 -17 13 -36 27 -22 12 12 4 33 -11 33 -5 0 -12 -5 -16 -11z"
           id="path34" />
      </g>
      <g
         id="g40">
        <path
           d="M8262 4454 c-15 -27 -3 -54 24 -54 14 0 27 -7 30 -15 4 -8 17 -15 30 -15 14 0 27 -7 30 -15 5 -12 28 -15 119 -15 88 0 115 3 125 15 7 8 23 15 36 15 37 0 36 14 -6 55 l-40 39 -96 -3 c-92 -3 -98 -4 -123 -32 l-26 -29 -40 35 c-44 40 -50 42 -63 19z"
           id="path38" />
      </g>
      <g
         id="g44">
        <path
           d="M8755 4859 c-8 -12 23 -49 42 -49 7 0 13 8 13 18 0 33 -40 56 -55 31z"
           id="path42" />
      </g>
      <g
         id="g48">
        <path
           d="M6523 3621 c-14 -22 -8 -31 22 -31 12 0 24 3 28 6 8 8 -15 44 -28 44 -6 0 -16 -9 -22 -19z"
           id="path46" />
      </g>
      <g
         id="g52">
        <path
           d="M4152 2858 c2 -15 10 -23 23 -23 13 0 21 8 23 23 3 18 -1 22 -23 22 -22 0 -26 -4 -23 -22z"
           id="path50" />
      </g>
    </g>
    <g
       id="g58">
      <path
         d="M2810 6535 c-11 -13 -81 -15 -515 -15 -530 0 -515 1 -515 -41 0 -5 635 -9 1600 -9 1414 0 1601 -2 1606 -15 5 -12 33 -15 164 -15 128 0 160 -3 170 -15 10 -12 44 -15 189 -15 165 0 177 -1 189 -20 11 -19 23 -20 170 -20 122 -1 161 -4 176 -15 15 -11 50 -15 142 -15 99 0 123 -3 128 -15 4 -12 27 -15 118 -15 84 -1 118 -4 132 -15 15 -11 48 -15 122 -15 78 0 104 -3 114 -15 10 -12 37 -15 125 -15 88 0 115 -3 125 -15 10 -12 37 -15 125 -15 91 0 114 -3 119 -15 4 -12 24 -15 91 -15 67 0 87 -3 91 -15 4 -11 21 -15 59 -15 34 0 57 -5 65 -15 15 -18 86 -20 96 -3 4 6 -5 22 -23 38 -24 21 -41 27 -89 29 -39 1 -62 7 -67 17 -6 10 -27 14 -76 14 -49 0 -72 4 -81 15 -10 12 -37 15 -125 15 -91 0 -114 3 -119 15 -4 12 -27 15 -121 15 -94 0 -117 3 -121 15 -5 12 -28 15 -119 15 -88 0 -115 3 -125 15 -10 12 -37 15 -125 15 -88 0 -115 3 -125 15 -10 12 -37 15 -125 15 -91 0 -114 3 -119 15 -4 12 -33 15 -168 15 -152 0 -164 1 -176 20 -11 19 -23 20 -186 20 -144 0 -176 3 -186 15 -11 13 -39 16 -166 14 -128 -1 -156 2 -170 15 -14 14 -117 16 -1047 16 -892 1 -1035 3 -1051 15 -28 21 -159 21 -176 0z"
         id="path56" />
    </g>
    <g
       id="g62">
      <path
         d="M9087 6533 c-4 -3 -7 -30 -7 -59 0 -56 7 -64 60 -64 43 0 56 30 27 66 -23 31 -58 63 -68 64 -3 0 -9 -3 -12 -7z"
         id="path60" />
    </g>
    <g
       id="g66">
      <path
         d="M7977 5383 c-4 -3 -7 -16 -7 -29 0 -12 -7 -25 -16 -28 -11 -4 -14 -17 -12 -43 3 -37 4 -38 45 -41 35 -3 42 0 48 18 4 14 1 28 -9 39 -9 10 -16 34 -16 54 0 35 -15 49 -33 30z"
         id="path64" />
    </g>
    <g
       id="g70">
      <path
         d="M6964 5325 c-11 -29 7 -35 103 -35 93 0 96 -1 123 -30 27 -29 32 -31 96 -28 74 3 99 21 78 56 -9 13 -28 18 -95 20 -61 2 -86 7 -92 17 -12 22 -205 22 -213 0z"
         id="path68" />
    </g>
    <g
       id="g74">
      <path
         d="M7438 5243 c-24 -6 -23 -25 2 -46 28 -24 50 -22 50 6 0 22 -17 48 -29 46 -4 -1 -14 -3 -23 -6z"
         id="path72" />
    </g>
    <g
       id="g82">
      <path
         d="M13244 4709 c-4 -6 -7 -21 -8 -33 -1 -15 -9 -22 -28 -24 -26 -3 -32 -11 -29 -37 2 -18 -73 -83 -99 -87 -19 -2 -26 -10 -28 -30 -2 -14 -10 -32 -18 -38 -8 -7 -14 -18 -14 -25 0 -7 -7 -18 -15 -25 -11 -9 -15 -33 -15 -87 0 -71 -1 -75 -20 -70 -28 7 -50 -18 -50 -58 0 -41 28 -62 60 -45 15 8 20 21 20 50 0 29 4 40 15 40 9 0 15 9 15 24 0 13 7 29 15 36 9 7 15 29 15 51 0 22 6 41 14 46 8 4 16 19 18 33 2 19 10 26 30 28 21 3 27 9 30 30 3 23 8 27 38 30 39 4 55 15 55 40 0 9 9 18 20 20 33 7 45 22 45 58 0 19 5 34 10 34 6 0 10 -7 10 -16 0 -23 38 -68 63 -74 19 -5 22 -14 25 -60 2 -30 9 -58 15 -62 20 -13 92 -9 112 5 27 21 13 65 -23 69 -21 2 -28 9 -30 30 -3 21 -9 27 -30 30 -20 2 -28 9 -30 28 -2 13 -10 29 -17 35 -8 5 -15 21 -17 35 -3 24 -7 25 -75 28 -47 2 -74 -1 -79 -9z"
         id="path80" />
    </g>
    <g
       id="g86">
      <path
         d="M13637 4464 c-11 -11 -8 -49 5 -62 7 -7 35 -12 62 -12 46 0 53 -3 93 -45 34 -37 49 -45 77 -45 30 0 35 -3 38 -27 3 -24 8 -28 40 -31 20 -2 42 -10 48 -18 7 -8 23 -14 36 -14 18 0 24 -5 24 -23 0 -38 19 -49 48 -26 22 17 27 18 47 5 12 -8 37 -16 56 -18 27 -2 35 -8 37 -27 3 -15 14 -27 33 -34 16 -6 29 -19 29 -28 0 -8 13 -29 30 -45 25 -25 29 -37 30 -82 0 -37 4 -54 15 -58 8 -4 15 -16 15 -28 0 -28 18 -46 45 -46 11 0 26 -9 33 -21 7 -11 29 -27 48 -35 l35 -15 -3 -76 c-3 -73 -4 -77 -28 -83 -14 -3 -26 -14 -28 -25 -2 -11 -19 -36 -38 -56 -31 -31 -33 -37 -19 -49 21 -17 21 -115 0 -124 -9 -3 -15 -19 -15 -41 0 -26 8 -43 35 -71 33 -33 35 -40 35 -102 0 -75 -32 -162 -60 -162 -21 0 -40 -20 -40 -42 0 -16 -9 -18 -70 -18 l-69 0 -9 -32 c-5 -23 -15 -34 -29 -36 -12 -2 -27 -10 -33 -18 -10 -10 -39 -14 -120 -14 -83 0 -110 -3 -120 -15 -7 -8 -20 -15 -30 -15 -9 0 -25 -9 -35 -20 -10 -11 -26 -20 -35 -20 -10 0 -20 -7 -24 -15 -7 -18 -66 -21 -67 -2 0 6 0 62 1 122 1 83 5 113 16 121 8 6 14 18 14 26 0 13 -18 15 -117 14 l-118 -2 -3 -44 c-2 -30 1 -48 11 -55 11 -8 16 -34 17 -90 1 -44 2 -86 1 -93 -1 -11 -30 -12 -148 -6 -145 6 -149 7 -178 35 -29 27 -36 29 -113 29 -72 0 -82 2 -82 18 0 10 -7 27 -15 38 -19 25 -19 48 0 64 9 7 15 29 15 51 0 34 -5 42 -40 64 -22 14 -48 25 -59 25 -10 0 -24 7 -31 15 -7 8 -21 15 -31 15 -23 0 -24 13 -4 30 8 7 15 20 15 29 0 9 6 23 13 30 6 6 12 29 12 49 0 33 3 37 30 42 42 7 40 34 -3 38 l-33 3 3 57 c3 55 4 57 33 62 25 4 30 10 33 38 4 40 -12 62 -41 59 -17 -1 -23 4 -25 25 -3 21 -9 27 -30 30 l-27 3 3 95 c1 52 -1 100 -5 106 -4 7 -19 14 -33 15 -18 3 -26 11 -28 29 -2 14 -11 31 -19 37 -15 11 -15 13 0 19 10 3 17 12 17 20 0 8 10 14 24 14 28 0 49 22 40 43 -5 13 5 16 58 19 l63 3 3 42 c2 34 9 47 33 63 36 26 37 43 3 69 -30 24 -44 20 -44 -13 0 -18 -7 -25 -29 -29 -23 -5 -30 -12 -33 -34 -3 -27 -6 -28 -63 -33 -55 -5 -60 -7 -63 -30 -2 -14 -10 -32 -18 -41 -8 -9 -14 -22 -12 -30 2 -7 -9 -15 -27 -18 -27 -5 -30 -10 -33 -46 -3 -35 2 -45 32 -74 28 -28 34 -39 29 -62 -9 -47 4 -79 32 -79 28 0 32 -12 10 -30 -18 -15 -20 -64 -2 -78 6 -5 21 -12 32 -14 17 -3 20 -11 20 -58 0 -53 -1 -55 -30 -60 -43 -7 -43 -35 -1 -77 34 -34 36 -40 36 -99 0 -61 -1 -64 -27 -70 -36 -9 -43 -20 -43 -69 0 -47 14 -65 48 -65 15 0 26 -7 29 -20 3 -11 13 -20 23 -20 10 0 23 -6 30 -14 6 -8 21 -16 33 -18 30 -4 37 -48 8 -48 -11 0 -27 -10 -35 -22 -20 -28 -4 -58 29 -58 22 0 25 -4 25 -39 0 -35 3 -40 29 -46 16 -3 32 -13 35 -20 4 -10 29 -15 93 -17 l88 -3 3 -29 4 -28 111 2 c144 3 137 5 137 -30 0 -28 -2 -30 -39 -30 -31 0 -48 -8 -80 -37 -34 -30 -41 -43 -41 -73 0 -72 -2 -72 357 -70 194 0 319 4 321 10 2 6 14 10 27 10 14 0 29 9 35 21 7 13 17 18 27 15 19 -8 43 11 43 34 0 24 -77 90 -105 90 -18 0 -24 6 -27 28 -2 21 -8 27 -28 27 -20 0 -26 -6 -28 -27 -7 -56 -72 -14 -72 46 0 51 18 60 104 51 67 -6 75 -5 85 13 8 16 18 18 65 14 45 -4 57 -1 62 12 3 9 17 16 30 16 14 0 27 7 30 15 4 8 17 15 30 15 14 0 27 7 30 15 4 11 21 15 58 15 54 0 76 12 76 42 0 11 7 18 18 18 24 0 42 19 42 46 0 12 7 25 16 28 11 4 14 13 10 30 -4 18 -1 25 14 29 13 3 20 14 20 30 0 13 7 30 15 37 19 16 19 54 1 70 -8 6 -16 28 -18 48 -2 29 -9 40 -30 50 l-28 13 0 110 c0 100 2 109 19 109 21 0 37 17 42 45 3 11 15 22 29 25 24 6 25 8 30 119 5 112 5 113 -22 144 -26 29 -29 29 -46 14 -25 -23 -52 -22 -52 2 0 10 -7 24 -14 31 -8 6 -16 30 -18 53 -3 37 -6 42 -30 45 -27 3 -28 6 -28 55 0 41 -5 57 -21 70 -13 12 -18 24 -14 37 8 27 -10 58 -37 62 -14 2 -24 12 -28 28 -6 25 -8 25 -118 28 -96 2 -116 6 -132 22 -11 11 -27 20 -35 20 -8 0 -15 8 -15 18 0 27 -20 42 -56 42 -17 0 -37 7 -44 15 -7 8 -23 15 -36 15 -17 0 -23 6 -26 28 -2 21 -9 28 -30 30 -21 3 -27 9 -30 30 -3 26 -5 27 -78 30 -42 1 -79 0 -83 -4z"
         id="path84" />
    </g>
    <g
       id="g90">
      <path
         d="M5544 4446 c-8 -22 3 -49 19 -43 6 2 12 14 12 27 0 27 -22 39 -31 16z"
         id="path88" />
    </g>
    <g
       id="g94">
      <path
         d="M13416 4144 c-12 -31 -5 -45 29 -60 l35 -14 0 -95 c0 -95 0 -95 -25 -95 -14 0 -28 -7 -32 -15 -7 -20 0 -27 29 -29 23 -1 23 -2 29 -186 4 -102 7 -217 8 -257 1 -70 1 -72 29 -75 26 -3 27 -6 33 -68 3 -36 3 -71 1 -77 -3 -9 -24 -13 -61 -13 l-56 0 -23 48 c-12 26 -22 52 -22 58 0 6 -7 17 -16 24 -8 8 -14 25 -12 39 1 15 -5 37 -15 51 -9 13 -17 32 -17 42 0 9 -4 20 -10 23 -5 3 -10 14 -10 24 0 9 -13 30 -30 46 -21 20 -30 38 -30 60 0 46 -21 69 -54 61 -26 -6 -27 -9 -24 -69 3 -60 4 -62 33 -67 29 -5 30 -7 33 -63 2 -39 8 -60 18 -64 7 -3 14 -14 14 -25 0 -12 8 -27 18 -34 16 -12 16 -14 -5 -36 -20 -20 -31 -22 -92 -20 -71 3 -86 -3 -75 -33 6 -15 16 -16 59 -11 48 5 54 4 80 -24 16 -17 36 -30 46 -30 9 0 22 -7 29 -15 7 -8 20 -15 29 -15 10 0 30 -13 45 -29 16 -17 40 -31 55 -33 20 -2 27 -9 29 -29 2 -21 10 -28 35 -33 50 -9 245 -14 322 -7 65 6 70 8 73 31 2 14 24 44 49 68 45 42 45 44 47 110 1 65 2 67 29 70 28 3 30 7 31 57 1 21 7 31 21 33 29 6 45 22 45 44 0 10 7 21 15 24 8 4 15 11 15 18 0 18 -46 56 -68 56 -23 0 -44 -22 -40 -41 2 -7 -6 -15 -17 -17 -37 -8 -47 -24 -41 -63 7 -46 -1 -69 -24 -69 -31 0 -43 -26 -37 -84 6 -61 -3 -76 -45 -76 -32 0 -68 -31 -68 -60 0 -25 -29 -40 -78 -40 -52 0 -66 18 -59 76 5 52 8 56 39 58 19 1 24 8 26 36 2 19 10 42 17 50 8 9 15 44 17 85 3 68 4 70 30 73 37 4 39 18 36 182 l-3 135 -45 0 -45 0 -3 -156 -2 -157 -31 -6 c-29 -5 -31 -8 -25 -38 3 -18 1 -40 -4 -48 -7 -12 -13 -11 -34 10 -15 13 -26 34 -26 47 0 13 -7 26 -15 29 -10 4 -15 20 -15 49 0 29 -5 45 -15 49 -10 3 -15 19 -15 44 0 24 -6 45 -16 53 -14 12 -16 40 -13 231 l4 217 -40 41 c-42 43 -87 54 -99 24z"
         id="path92" />
    </g>
    <g
       id="g98">
      <path
         d="M12994 2677 c-3 -8 -4 -39 -2 -68 3 -53 4 -54 33 -54 26 0 30 4 33 28 2 16 -3 36 -11 45 -8 10 -17 26 -18 36 -5 24 -27 33 -35 13z"
         id="path96" />
    </g>
    <g
       id="g102">
      <path
         d="M13022 2468 c-19 -19 -14 -73 8 -93 19 -17 20 -31 20 -214 0 -108 4 -202 9 -209 4 -8 19 -12 32 -10 24 3 24 4 29 163 4 129 2 163 -9 178 -9 11 -14 38 -12 77 2 55 -1 63 -28 90 -34 34 -33 34 -49 18z"
         id="path100" />
    </g>
    <g
       id="g106">
      <path
         d="M11545 2390 c-11 -12 -31 -20 -52 -20 -26 0 -33 -4 -33 -19 0 -28 -20 -39 -75 -43 -46 -3 -50 -5 -53 -30 -3 -22 -9 -28 -28 -28 -26 0 -28 -4 -25 -66 2 -26 -3 -47 -13 -57 -10 -10 -16 -33 -16 -62 0 -44 -4 -51 -50 -94 l-50 -47 0 -67 c0 -67 0 -68 -30 -74 -31 -6 -45 -32 -38 -70 3 -16 16 -18 119 -21 94 -2 118 0 129 13 9 11 32 15 79 15 57 0 69 4 89 25 40 42 22 49 -118 41 -137 -7 -159 -1 -145 44 6 18 15 20 74 20 49 0 72 4 81 15 7 8 23 15 35 15 13 0 26 7 29 16 5 14 16 16 58 11 67 -8 88 6 57 40 -26 27 -65 30 -91 7 -16 -16 -18 -16 -24 0 -4 11 -19 16 -51 16 -37 0 -44 3 -41 18 2 12 15 18 45 20 34 3 42 7 45 25 3 21 9 22 92 23 61 1 91 6 97 15 16 26 -5 32 -103 26 -99 -5 -99 -5 -128 23 -16 16 -39 30 -52 32 -13 2 -24 11 -26 21 -3 15 5 17 56 17 44 0 61 4 66 15 4 11 22 15 74 15 52 0 73 4 83 16 10 12 25 15 55 11 48 -5 74 6 74 33 0 22 -17 35 -45 35 -14 0 -21 8 -23 28 -3 26 -11 31 -39 28 -7 -1 -17 8 -23 19 -14 26 -42 26 -65 0z"
         id="path104" />
    </g>
    <g
       id="g110">
      <path
         d="M10854 2372 c-7 -4 -14 -18 -15 -32 -3 -19 -11 -26 -31 -28 -21 -3 -27 -9 -30 -30 -2 -21 -9 -28 -30 -30 -27 -3 -28 -6 -28 -61 0 -48 -4 -61 -24 -80 -15 -14 -33 -21 -48 -19 -23 3 -23 5 -21 111 1 104 0 107 -22 113 -13 3 -34 4 -46 2 -22 -3 -24 -9 -27 -65 -3 -59 -4 -62 -30 -65 -24 -3 -28 -8 -32 -48 l-5 -45 -72 -3 -73 -3 0 -45 0 -46 99 3 98 4 43 -38 42 -39 -21 -22 c-18 -19 -21 -35 -21 -98 0 -65 3 -77 18 -80 9 -2 112 -4 227 -4 l210 1 5 75 c5 69 7 75 30 80 22 5 26 12 30 65 4 53 8 60 30 65 15 4 26 14 28 27 2 11 16 33 33 48 16 16 29 35 29 44 0 8 6 22 14 30 8 9 17 46 21 84 l7 67 -148 0 -149 0 -28 35 c-28 35 -42 41 -63 27z m171 -226 c0 -70 -3 -76 -47 -90 -16 -5 -18 -19 -18 -104 l0 -99 -82 -6 c-51 -3 -88 -1 -95 5 -14 12 -19 214 -5 234 4 7 18 14 32 15 22 4 25 10 28 47 3 36 6 42 26 42 13 0 29 7 36 15 10 12 28 15 69 13 l56 -3 0 -69z"
         id="path108" />
    </g>
  </g>
</svg>
